SplineFontDB: 3.0
FontName: Alegreya-Bold
FullName: Alegreya Bold
FamilyName: Alegreya
Weight: Bold
Copyright: Copyright (c) 2011, Juan Pablo del Peral (juan@huertatipografica.com.ar), with Reserved Font Names "Alegreya" "Alegreya SC"
Version: 1.003
ItalicAngle: 0
UnderlinePosition: -59
UnderlineWidth: 56
Ascent: 800
Descent: 200
sfntRevision: 0x000100c5
LayerCount: 2
Layer: 0 1 "Back"  1
Layer: 1 1 "Fore"  0
XUID: [1021 38 1612138342 5702147]
FSType: 0
OS2Version: 2
OS2_WeightWidthSlopeOnly: 0
OS2_UseTypoMetrics: 1
CreationTime: 1325707233
ModificationTime: 1325707761
PfmFamily: 17
TTFWeight: 700
TTFWidth: 5
LineGap: 0
VLineGap: 0
Panose: 2 0 5 3 5 0 0 2 0 4
OS2TypoAscent: 216
OS2TypoAOffset: 1
OS2TypoDescent: -145
OS2TypoDOffset: 1
OS2TypoLinegap: 0
OS2WinAscent: 39
OS2WinAOffset: 1
OS2WinDescent: 27
OS2WinDOffset: 1
HheadAscent: 39
HheadAOffset: 1
HheadDescent: -27
HheadDOffset: 1
OS2SubXSize: 700
OS2SubYSize: 650
OS2SubXOff: 0
OS2SubYOff: 140
OS2SupXSize: 700
OS2SupYSize: 650
OS2SupXOff: 0
OS2SupYOff: 477
OS2StrikeYSize: 50
OS2StrikeYPos: 250
OS2FamilyClass: 258
OS2Vendor: 'pyrs'
OS2CodePages: 20000093.00000000
OS2UnicodeRanges: a00000ef.4000204b.00000000.00000000
Lookup: 258 0 0 "'kern' Horizontal Kerning lookup 0"  {"'kern' Horizontal Kerning lookup 0 subtable"  } ['kern' ('DFLT' <'dflt' > ) ]
DEI: 91125
TtTable: prep
PUSHW_1
 511
SCANCTRL
PUSHB_1
 4
SCANTYPE
EndTTInstrs
ShortTable: maxp 16
  1
  0
  501
  84
  7
  0
  0
  2
  0
  1
  1
  0
  64
  0
  0
  0
EndShort
LangName: 1033 "" "" "" "FONTLAB:OTFEXPORT" "" "Version 1.003" "" "Alegreya is a trademark of Juan Pablo del Peral" "Juan Pablo del Peral" "Juan Pablo del Peral" "" "www.huertatipografica.com.ar" "www.huertatipografica.com.ar" "This Font Software is licensed under the SIL Open Font License, Version 1.1. This license is available with a FAQ at: http://scripts.sil.org/OFL" "http://scripts.sil.org/OFL" 
GaspTable: 1 65535 15 1
Encoding: UnicodeBmp
UnicodeInterp: none
NameList: Adobe Glyph List

StartChar: exclam
Encoding: 33 33 4
Width: 285
GlyphClass: 2
Flags: W
LayerCount: 2
Fore
SplineSet
183 12 m 128,-1,1
 161 -11 161 -11 124.5 -11 c 128,-1,2
 88 -11 88 -11 69 9.5 c 128,-1,3
 50 30 50 30 50 65.5 c 128,-1,4
 50 101 50 101 72 124 c 128,-1,5
 94 147 94 147 130 147 c 128,-1,6
 166 147 166 147 185.5 126.5 c 128,-1,7
 205 106 205 106 205 70.5 c 128,-1,0
 205 35 205 35 183 12 c 128,-1,1
93 236 m 1,8,-1
 72 666 l 1,9,-1
 84 683 l 1,10,-1
 218 705 l 1,11,-1
 234 687 l 1,12,-1
 172 234 l 1,13,-1
 108 223 l 1,14,-1
 93 236 l 1,8,-1
EndSplineSet
EndChar

StartChar: quotedbl
Encoding: 34 34 5
Width: 321
GlyphClass: 2
Flags: W
LayerCount: 2
Fore
SplineSet
50 412 m 1,0,1
 50 432 50 432 50 459 c 0,2,3
 50 547 50 547 43 640 c 1,4,-1
 143 654 l 1,5,-1
 151 644 l 1,6,7
 136 534 136 534 113 428 c 1,8,-1
 65 408 l 1,9,-1
 50 412 l 1,0,1
195 412 m 1,10,11
 195 432 195 432 195 459 c 0,12,13
 195 547 195 547 188 640 c 1,14,-1
 288 654 l 1,15,-1
 296 644 l 1,16,17
 281 534 281 534 258 428 c 1,18,-1
 210 408 l 1,19,-1
 195 412 l 1,10,11
EndSplineSet
EndChar

StartChar: numbersign
Encoding: 35 35 6
Width: 526
GlyphClass: 2
Flags: W
LayerCount: 2
Fore
SplineSet
49 351 m 1,0,-1
 43 362 l 1,1,-1
 58 432 l 1,2,-1
 157 431 l 1,3,-1
 184 570 l 1,4,-1
 257 577 l 1,5,-1
 268 571 l 1,6,-1
 237 431 l 1,7,-1
 284 431 l 1,8,-1
 331 430 l 1,9,-1
 358 570 l 1,10,-1
 431 577 l 1,11,-1
 442 571 l 1,12,-1
 411 431 l 1,13,-1
 508 433 l 1,14,-1
 513 421 l 1,15,-1
 499 351 l 1,16,-1
 395 351 l 1,17,-1
 377 258 l 1,18,-1
 474 259 l 1,19,-1
 479 247 l 1,20,-1
 465 178 l 1,21,-1
 363 178 l 1,22,-1
 337 44 l 1,23,-1
 266 33 l 1,24,-1
 256 41 l 1,25,-1
 284 178 l 1,26,-1
 228 179 l 1,27,-1
 190 178 l 1,28,-1
 164 44 l 1,29,-1
 93 33 l 1,30,-1
 83 41 l 1,31,-1
 111 178 l 1,32,-1
 15 177 l 1,33,-1
 9 189 l 1,34,-1
 24 258 l 1,35,-1
 125 257 l 1,36,-1
 144 351 l 1,37,-1
 49 351 l 1,0,-1
222 352 m 1,38,-1
 203 257 l 1,39,-1
 247 257 l 1,40,-1
 299 256 l 1,41,-1
 317 352 l 1,42,-1
 222 352 l 1,38,-1
EndSplineSet
EndChar

StartChar: dollar
Encoding: 36 36 7
Width: 466
GlyphClass: 2
Flags: W
LayerCount: 2
Fore
SplineSet
145 92.5 m 128,-1,1
 164 71 164 71 206 71 c 128,-1,2
 248 71 248 71 269 85 c 128,-1,3
 290 99 290 99 290 122 c 0,4,5
 290 140 290 140 279 149.5 c 128,-1,6
 268 159 268 159 262.5 164 c 128,-1,7
 257 169 257 169 242.5 176 c 128,-1,8
 228 183 228 183 221 186 c 0,9,10
 212 191 212 191 160 214 c 128,-1,11
 108 237 108 237 74 268.5 c 128,-1,12
 40 300 40 300 40 356 c 128,-1,13
 40 412 40 412 89 454 c 128,-1,14
 138 496 138 496 219 507 c 1,15,-1
 235 649 l 1,16,-1
 304 658 l 1,17,-1
 310 649 l 1,18,-1
 295 509 l 1,19,20
 358 507 358 507 414 489 c 1,21,-1
 421 477 l 1,22,23
 406 413 406 413 400 343 c 1,24,-1
 330 337 l 1,25,-1
 322 343 l 1,26,27
 323 354 323 354 323 365 c 0,28,29
 323 397 323 397 305 411.5 c 128,-1,30
 287 426 287 426 251.5 426 c 128,-1,31
 216 426 216 426 195.5 412.5 c 128,-1,32
 175 399 175 399 175 381.5 c 128,-1,33
 175 364 175 364 182.5 353 c 128,-1,34
 190 342 190 342 210 330 c 0,35,36
 233 317 233 317 274 299 c 128,-1,37
 315 281 315 281 335.5 270.5 c 128,-1,38
 356 260 356 260 380 242 c 0,39,40
 428 206 428 206 428 145.5 c 128,-1,41
 428 85 428 85 377 43.5 c 128,-1,42
 326 2 326 2 238 -6 c 1,43,-1
 222 -151 l 1,44,-1
 154 -159 l 1,45,-1
 148 -152 l 1,46,-1
 164 -8 l 1,47,48
 101 -4 101 -4 42 21 c 1,49,-1
 34 33 l 1,50,51
 47 104 47 104 49 164 c 1,52,-1
 126 170 l 1,53,0
 126 114 126 114 145 92.5 c 128,-1,1
EndSplineSet
EndChar

StartChar: percent
Encoding: 37 37 8
Width: 713
GlyphClass: 2
Flags: W
LayerCount: 2
Fore
SplineSet
172 408 m 0,0,1
 254 408 254 408 254 474 c 0,2,3
 254 509 254 509 230 530 c 128,-1,4
 206 551 206 551 161 551 c 0,5,6
 81 551 81 551 81 486 c 0,7,8
 81 447 81 447 106.5 427.5 c 128,-1,9
 132 408 132 408 172 408 c 0,0,1
275 360 m 128,-1,11
 233 309 233 309 163 309 c 128,-1,12
 93 309 93 309 55.5 353.5 c 128,-1,13
 18 398 18 398 18 476.5 c 128,-1,14
 18 555 18 555 61 604.5 c 128,-1,15
 104 654 104 654 174.5 654 c 128,-1,16
 245 654 245 654 281 609.5 c 128,-1,17
 317 565 317 565 317 488 c 128,-1,10
 317 411 317 411 275 360 c 128,-1,11
562 88 m 0,18,19
 643 88 643 88 643 153 c 0,20,21
 643 188 643 188 619 209.5 c 128,-1,22
 595 231 595 231 553 231 c 128,-1,23
 511 231 511 231 490.5 213.5 c 128,-1,24
 470 196 470 196 470 161 c 128,-1,25
 470 126 470 126 495.5 107 c 128,-1,26
 521 88 521 88 562 88 c 0,18,19
665 39 m 128,-1,28
 623 -12 623 -12 553 -12 c 128,-1,29
 483 -12 483 -12 445.5 32.5 c 128,-1,30
 408 77 408 77 408 156 c 128,-1,31
 408 235 408 235 451 284 c 128,-1,32
 494 333 494 333 564 333 c 128,-1,33
 634 333 634 333 670.5 288.5 c 128,-1,34
 707 244 707 244 707 167 c 128,-1,27
 707 90 707 90 665 39 c 128,-1,28
607 653 m 1,35,-1
 614 634 l 1,36,37
 438 367 438 367 348 227 c 1,38,-1
 146 -93 l 1,39,-1
 81 -66 l 1,40,-1
 76 -52 l 1,41,42
 197 128 197 128 283 264 c 2,43,-1
 545 678 l 1,44,-1
 607 653 l 1,35,-1
EndSplineSet
EndChar

StartChar: ampersand
Encoding: 38 38 9
Width: 720
GlyphClass: 2
Flags: W
LayerCount: 2
Fore
SplineSet
423 360 m 0,0,1
 403 360 403 360 370 353 c 1,2,-1
 350 420 l 1,3,4
 376 435 376 435 419 437 c 2,5,-1
 624 449 l 1,6,7
 704 456 704 456 706 460 c 1,8,-1
 720 437 l 1,9,-1
 702 387 l 1,10,11
 695 371 695 371 681 365 c 128,-1,12
 667 359 667 359 633 359 c 2,13,-1
 550 359 l 1,14,-1
 547 352 l 1,15,16
 577 319 577 319 577 265 c 128,-1,17
 577 211 577 211 535 148 c 1,18,-1
 672 32 l 1,19,-1
 672 16 l 1,20,21
 608 -34 608 -34 578 -34 c 0,22,23
 565 -34 565 -34 456 64 c 1,24,25
 363 -12 363 -12 262 -12 c 128,-1,26
 161 -12 161 -12 101 34.5 c 128,-1,27
 41 81 41 81 41 163 c 0,28,29
 41 195 41 195 54 224 c 128,-1,30
 67 253 67 253 85 270 c 0,31,32
 123 307 123 307 152 320 c 1,33,-1
 165 325 l 1,34,-1
 165 334 l 1,35,36
 86 416 86 416 86 488 c 128,-1,37
 86 560 86 560 148 607 c 128,-1,38
 210 654 210 654 309 654 c 0,39,40
 380 654 380 654 449 631 c 1,41,-1
 451 614 l 1,42,-1
 403 523 l 1,43,-1
 385 522 l 1,44,45
 334 568 334 568 280 568 c 0,46,47
 245 568 245 568 224.5 550.5 c 128,-1,48
 204 533 204 533 204 497 c 128,-1,49
 204 461 204 461 232 422 c 128,-1,50
 260 383 260 383 336 318 c 2,51,-1
 483 192 l 1,52,53
 496 229 496 229 496 267 c 0,54,55
 496 360 496 360 423 360 c 0,0,1
212 287 m 1,56,57
 156 251 156 251 156 194 c 128,-1,58
 156 137 156 137 195 105.5 c 128,-1,59
 234 74 234 74 297 74 c 128,-1,60
 360 74 360 74 409 106 c 1,61,-1
 212 287 l 1,56,57
EndSplineSet
EndChar

StartChar: quotesingle
Encoding: 39 39 10
Width: 176
GlyphClass: 2
Flags: W
LayerCount: 2
Fore
SplineSet
50 412 m 1,0,1
 50 432 50 432 50 459 c 0,2,3
 50 547 50 547 43 640 c 1,4,-1
 143 654 l 1,5,-1
 151 644 l 1,6,7
 136 534 136 534 113 428 c 1,8,-1
 65 408 l 1,9,-1
 50 412 l 1,0,1
EndSplineSet
EndChar

StartChar: parenleft
Encoding: 40 40 11
Width: 309
GlyphClass: 2
Flags: W
LayerCount: 2
Fore
SplineSet
70 163 m 2,0,-1
 70 336 l 2,1,2
 70 405 70 405 88.5 462.5 c 128,-1,3
 107 520 107 520 133 553 c 0,4,5
 186 621 186 621 230 640 c 1,6,-1
 248 649 l 1,7,-1
 259 649 l 1,8,-1
 290 603 l 1,9,-1
 289 597 l 1,10,11
 275 590 275 590 253.5 568 c 128,-1,12
 232 546 232 546 218 521 c 128,-1,13
 204 496 204 496 192 450.5 c 128,-1,14
 180 405 180 405 180 351 c 2,15,-1
 180 178 l 2,16,17
 180 119 180 119 191.5 69.5 c 128,-1,18
 203 20 203 20 220 -9 c 0,19,20
 255 -69 255 -69 282 -88 c 2,21,-1
 294 -96 l 1,22,-1
 294 -104 l 1,23,-1
 253 -146 l 1,24,-1
 245 -146 l 1,25,26
 218 -135 218 -135 186 -108.5 c 128,-1,27
 154 -82 154 -82 131 -50.5 c 128,-1,28
 108 -19 108 -19 89 38 c 128,-1,29
 70 95 70 95 70 163 c 2,0,-1
EndSplineSet
EndChar

StartChar: parenright
Encoding: 41 41 12
Width: 309
GlyphClass: 2
Flags: W
LayerCount: 2
Fore
SplineSet
239 340 m 2,0,-1
 239 167 l 2,1,2
 239 98 239 98 220.5 40.5 c 128,-1,3
 202 -17 202 -17 176 -50 c 0,4,5
 123 -118 123 -118 80 -138 c 1,6,-1
 61 -146 l 1,7,-1
 50 -146 l 1,8,-1
 19 -100 l 1,9,-1
 20 -94 l 1,10,11
 34 -87 34 -87 55.5 -65 c 128,-1,12
 77 -43 77 -43 91 -18 c 128,-1,13
 105 7 105 7 117 52.5 c 128,-1,14
 129 98 129 98 129 152 c 2,15,-1
 129 325 l 2,16,17
 129 384 129 384 117.5 433.5 c 128,-1,18
 106 483 106 483 89 512 c 0,19,20
 54 572 54 572 26 591 c 1,21,-1
 15 599 l 1,22,-1
 15 607 l 1,23,-1
 56 649 l 1,24,-1
 64 649 l 1,25,26
 91 638 91 638 123 611.5 c 128,-1,27
 155 585 155 585 178 553.5 c 128,-1,28
 201 522 201 522 220 465 c 128,-1,29
 239 408 239 408 239 340 c 2,0,-1
EndSplineSet
EndChar

StartChar: asterisk
Encoding: 42 42 13
Width: 412
GlyphClass: 2
Flags: W
LayerCount: 2
Fore
SplineSet
62 673 m 1,0,1
 112 647 112 647 165 607 c 1,2,-1
 157 566 l 1,3,-1
 150 560 l 1,4,-1
 41 590 l 1,5,6
 41 635 41 635 53 670 c 1,7,-1
 62 673 l 1,0,1
62 469 m 1,8,9
 102 508 102 508 157 546 c 1,10,-1
 193 526 l 1,11,-1
 196 518 l 1,12,-1
 135 423 l 1,13,14
 92 437 92 437 62 459 c 1,15,-1
 62 469 l 1,8,9
256 406 m 1,16,17
 231 456 231 456 212 520 c 1,18,-1
 242 549 l 1,19,-1
 252 549 l 1,20,-1
 322 461 l 1,21,22
 296 424 296 424 266 403 c 1,23,-1
 256 406 l 1,16,17
376 571 m 1,24,25
 334 564 334 564 254 564 c 1,26,-1
 236 601 l 1,27,-1
 239 611 l 1,28,-1
 344 651 l 1,29,30
 371 614 371 614 382 579 c 1,31,-1
 376 571 l 1,24,25
257 736 m 1,32,33
 246 681 246 681 225 618 c 1,34,-1
 183 613 l 1,35,-1
 176 617 l 1,36,-1
 170 730 l 1,37,38
 214 744 214 744 250 744 c 1,39,-1
 257 736 l 1,32,33
EndSplineSet
EndChar

StartChar: plus
Encoding: 43 43 14
Width: 506
GlyphClass: 2
Flags: W
LayerCount: 2
Fore
SplineSet
292 497 m 1,0,-1
 305 490 l 1,1,2
 300 384 300 384 299 306 c 1,3,-1
 482 312 l 1,4,-1
 489 300 l 1,5,-1
 479 208 l 1,6,-1
 299 207 l 1,7,-1
 300 39 l 1,8,-1
 212 24 l 1,9,-1
 201 32 l 1,10,11
 201 125 201 125 202 207 c 1,12,-1
 24 206 l 1,13,-1
 17 217 l 1,14,-1
 31 307 l 1,15,16
 121 306 121 306 202 306 c 1,17,-1
 203 486 l 1,18,-1
 292 497 l 1,0,-1
EndSplineSet
EndChar

StartChar: comma
Encoding: 44 44 15
Width: 238
GlyphClass: 2
Flags: W
LayerCount: 2
Fore
SplineSet
48 108 m 1,0,1
 93 142 93 142 125 142 c 128,-1,2
 157 142 157 142 175.5 118 c 128,-1,3
 194 94 194 94 194 47.5 c 128,-1,4
 194 1 194 1 150 -51 c 128,-1,5
 106 -103 106 -103 41 -140 c 1,6,-1
 4 -110 l 1,7,-1
 4 -93 l 1,8,9
 36 -71 36 -71 56 -40 c 128,-1,10
 76 -9 76 -9 76 26 c 128,-1,11
 76 61 76 61 45 94 c 1,12,-1
 48 108 l 1,0,1
EndSplineSet
EndChar

StartChar: hyphen
Encoding: 45 45 16
Width: 324
GlyphClass: 2
Flags: W
LayerCount: 2
Fore
SplineSet
280 313 m 1,0,-1
 289 300 l 1,1,-1
 281 220 l 1,2,-1
 44 194 l 1,3,-1
 35 206 l 1,4,-1
 42 284 l 1,5,-1
 280 313 l 1,0,-1
EndSplineSet
EndChar

StartChar: period
Encoding: 46 46 17
Width: 238
GlyphClass: 2
Flags: W
LayerCount: 2
Fore
SplineSet
116 -11 m 128,-1,1
 79 -11 79 -11 60 9.5 c 128,-1,2
 41 30 41 30 41 65.5 c 128,-1,3
 41 101 41 101 63 124 c 128,-1,4
 85 147 85 147 121 147 c 128,-1,5
 157 147 157 147 177 126.5 c 128,-1,6
 197 106 197 106 197 70.5 c 128,-1,7
 197 35 197 35 175 12 c 128,-1,0
 153 -11 153 -11 116 -11 c 128,-1,1
EndSplineSet
EndChar

StartChar: slash
Encoding: 47 47 18
Width: 329
GlyphClass: 2
Flags: W
LayerCount: 2
Fore
SplineSet
306 675 m 1,0,-1
 319 660 l 1,1,2
 240 377 240 377 197 215 c 1,3,-1
 114 -110 l 1,4,-1
 29 -110 l 1,5,-1
 20 -99 l 1,6,7
 71 74 71 74 110 226 c 2,8,-1
 225 675 l 1,9,-1
 306 675 l 1,0,-1
EndSplineSet
EndChar

StartChar: zero
Encoding: 48 48 19
Width: 501
GlyphClass: 2
Flags: W
LayerCount: 2
Fore
SplineSet
410 63.5 m 128,-1,1
 345 -12 345 -12 242.5 -12 c 128,-1,2
 140 -12 140 -12 83 54.5 c 128,-1,3
 26 121 26 121 26 240.5 c 128,-1,4
 26 360 26 360 91.5 435 c 128,-1,5
 157 510 157 510 259.5 510 c 128,-1,6
 362 510 362 510 418.5 444 c 128,-1,7
 475 378 475 378 475 258.5 c 128,-1,0
 475 139 475 139 410 63.5 c 128,-1,1
147 155 m 128,-1,9
 187 119 187 119 254 119 c 128,-1,10
 321 119 321 119 357.5 151 c 128,-1,11
 394 183 394 183 394 242.5 c 128,-1,12
 394 302 394 302 354 338 c 128,-1,13
 314 374 314 374 247 374 c 128,-1,14
 180 374 180 374 143.5 341.5 c 128,-1,15
 107 309 107 309 107 250 c 128,-1,8
 107 191 107 191 147 155 c 128,-1,9
EndSplineSet
EndChar

StartChar: one
Encoding: 49 49 20
Width: 365
GlyphClass: 2
Flags: W
LayerCount: 2
Fore
SplineSet
246 132 m 0,0,1
 246 95 246 95 255.5 80 c 128,-1,2
 265 65 265 65 290 65 c 1,3,-1
 339 68 l 1,4,-1
 341 63 l 1,5,-1
 330 -4 l 1,6,7
 237 0 237 0 198 0 c 0,8,9
 141 0 141 0 31 -11 c 1,10,-1
 39 52 l 1,11,12
 90 57 90 57 109 76 c 128,-1,13
 128 95 128 95 128 144 c 2,14,-1
 128 359 l 2,15,16
 128 394 128 394 117 405 c 128,-1,17
 106 416 106 416 77 416 c 1,18,-1
 27 411 l 1,19,-1
 21 418 l 1,20,-1
 27 475 l 1,21,22
 106 483 106 483 284 510 c 1,23,-1
 294 480 l 1,24,25
 262 454 262 454 256 402 c 1,26,27
 246 289 246 289 246 132 c 0,0,1
EndSplineSet
EndChar

StartChar: two
Encoding: 50 50 21
Width: 484
GlyphClass: 2
Flags: W
LayerCount: 2
Fore
SplineSet
238 343 m 0,0,1
 238 404 238 404 176 404 c 0,2,3
 147 404 147 404 116.5 383.5 c 128,-1,4
 86 363 86 363 64 327 c 1,5,-1
 50 327 l 1,6,-1
 33 401 l 1,7,8
 72 452 72 452 123.5 481 c 128,-1,9
 175 510 175 510 236.5 510 c 128,-1,10
 298 510 298 510 341 474.5 c 128,-1,11
 384 439 384 439 384 386.5 c 128,-1,12
 384 334 384 334 346 277.5 c 128,-1,13
 308 221 308 221 197 101 c 1,14,-1
 201 93 l 1,15,-1
 297 93 l 2,16,17
 344 93 344 93 363.5 111.5 c 128,-1,18
 383 130 383 130 393 184 c 1,19,-1
 469 191 l 1,20,21
 448 84 448 84 441 3 c 1,22,-1
 427 -9 l 1,23,24
 181 0 181 0 87 0 c 1,25,-1
 23 -9 l 1,26,-1
 15 24 l 1,27,-1
 90 107 l 1,28,29
 170 199 170 199 204 253.5 c 128,-1,30
 238 308 238 308 238 343 c 0,0,1
EndSplineSet
EndChar

StartChar: three
Encoding: 51 51 22
Width: 431
GlyphClass: 2
Flags: W
LayerCount: 2
Fore
SplineSet
61 365 m 1,0,-1
 49 364 l 1,1,-1
 28 435 l 1,2,3
 58 458 58 458 113.5 484 c 128,-1,4
 169 510 169 510 225 510 c 128,-1,5
 281 510 281 510 321.5 478 c 128,-1,6
 362 446 362 446 362 399 c 128,-1,7
 362 352 362 352 332 315 c 128,-1,8
 302 278 302 278 252 257 c 1,9,-1
 252 249 l 1,10,11
 391 212 391 212 391 117 c 0,12,13
 391 38 391 38 296 -31 c 128,-1,14
 201 -100 201 -100 92 -100 c 0,15,16
 50 -100 50 -100 32.5 -77 c 128,-1,17
 15 -54 15 -54 11 2 c 1,18,-1
 25 16 l 1,19,20
 63 3 63 3 118 3 c 128,-1,21
 173 3 173 3 214.5 30 c 128,-1,22
 256 57 256 57 256 98 c 128,-1,23
 256 139 256 139 220 158.5 c 128,-1,24
 184 178 184 178 108 178 c 1,25,-1
 99 188 l 1,26,-1
 92 250 l 1,27,-1
 157 264 l 1,28,29
 191 279 191 279 211.5 305.5 c 128,-1,30
 232 332 232 332 232 358 c 128,-1,31
 232 384 232 384 214.5 399 c 128,-1,32
 197 414 197 414 171 414 c 0,33,34
 118 414 118 414 61 365 c 1,0,-1
EndSplineSet
EndChar

StartChar: four
Encoding: 52 52 23
Width: 468
GlyphClass: 2
Flags: W
LayerCount: 2
Fore
SplineSet
270 508 m 2,0,1
 271 508 271 508 276 510 c 1,2,-1
 360 499 l 1,3,-1
 360 157 l 1,4,-1
 442 157 l 1,5,-1
 450 146 l 1,6,-1
 441 63 l 1,7,8
 409 64 409 64 361 66 c 1,9,-1
 367 -79 l 1,10,-1
 359 -88 l 1,11,-1
 244 -100 l 1,12,-1
 236 -90 l 1,13,14
 240 -3 240 -3 242 69 c 1,15,16
 84 73 84 73 2 73 c 1,17,-1
 5 140 l 1,18,-1
 270 508 l 2,0,1
242 157 m 1,19,-1
 242 335 l 1,20,-1
 232 335 l 1,21,-1
 107 157 l 1,22,-1
 242 157 l 1,19,-1
EndSplineSet
EndChar

StartChar: five
Encoding: 53 53 24
Width: 427
GlyphClass: 2
Flags: W
LayerCount: 2
Fore
SplineSet
383 130 m 0,0,1
 383 43 383 43 286.5 -28.5 c 128,-1,2
 190 -100 190 -100 81 -100 c 0,3,4
 41 -100 41 -100 23 -77.5 c 128,-1,5
 5 -55 5 -55 1 2 c 1,6,-1
 14 16 l 1,7,8
 53 3 53 3 109 3 c 128,-1,9
 165 3 165 3 208 30 c 128,-1,10
 251 57 251 57 251 97.5 c 128,-1,11
 251 138 251 138 209 160.5 c 128,-1,12
 167 183 167 183 62 198 c 1,13,-1
 53 209 l 1,14,-1
 73 479 l 1,15,-1
 81 487 l 1,16,-1
 274 494 l 2,17,18
 303 496 303 496 316 504 c 128,-1,19
 329 512 329 512 337 534 c 1,20,-1
 392 538 l 1,21,-1
 366 391 l 1,22,-1
 353 378 l 1,23,24
 262 386 262 386 154 386 c 1,25,-1
 146 297 l 1,26,27
 266 273 266 273 324.5 235 c 128,-1,28
 383 197 383 197 383 130 c 0,0,1
EndSplineSet
EndChar

StartChar: six
Encoding: 54 54 25
Width: 464
GlyphClass: 2
Flags: W
LayerCount: 2
Fore
SplineSet
439 191 m 0,0,1
 439 102 439 102 379.5 45 c 128,-1,2
 320 -12 320 -12 227 -12 c 128,-1,3
 134 -12 134 -12 81 48 c 128,-1,4
 28 108 28 108 28 204 c 0,5,6
 28 266 28 266 47 321 c 128,-1,7
 66 376 66 376 96.5 414.5 c 128,-1,8
 127 453 127 453 164.5 485.5 c 128,-1,9
 202 518 202 518 239 538 c 0,10,11
 321 582 321 582 356 592 c 1,12,-1
 375 598 l 1,13,-1
 385 593 l 1,14,-1
 405 538 l 1,15,16
 387 533 387 533 349.5 511.5 c 128,-1,17
 312 490 312 490 285 468 c 128,-1,18
 258 446 258 446 227.5 409 c 128,-1,19
 197 372 197 372 180 330 c 1,20,-1
 185 324 l 1,21,22
 188 325 188 325 204 334 c 0,23,24
 251 358 251 358 270 361 c 1,25,26
 348 361 348 361 393.5 311.5 c 128,-1,27
 439 262 439 262 439 191 c 0,0,1
296 243 m 128,-1,29
 272 273 272 273 231.5 273 c 128,-1,30
 191 273 191 273 152 245 c 1,31,32
 150 217 150 217 150 203 c 0,33,34
 150 140 150 140 173.5 104.5 c 128,-1,35
 197 69 197 69 237.5 69 c 128,-1,36
 278 69 278 69 299 94 c 128,-1,37
 320 119 320 119 320 166 c 128,-1,28
 320 213 320 213 296 243 c 128,-1,29
EndSplineSet
EndChar

StartChar: seven
Encoding: 55 55 26
Width: 427
GlyphClass: 2
Flags: W
LayerCount: 2
Fore
SplineSet
172 498 m 2,0,-1
 389 498 l 1,1,-1
 428 450 l 1,2,3
 319 224 319 224 232 13 c 1,4,-1
 201 -100 l 1,5,-1
 184 -100 l 1,6,-1
 93 -73 l 1,7,-1
 82 -48 l 1,8,-1
 306 394 l 1,9,-1
 172 386 l 1,10,11
 125 382 125 382 109.5 366 c 128,-1,12
 94 350 94 350 85 298 c 1,13,-1
 25 292 l 1,14,15
 39 406 39 406 44 497 c 1,16,-1
 50 502 l 1,17,18
 110 498 110 498 172 498 c 2,0,-1
EndSplineSet
EndChar

StartChar: eight
Encoding: 56 56 27
Width: 479
GlyphClass: 2
Flags: W
LayerCount: 2
Fore
SplineSet
38 130 m 0,0,1
 38 228 38 228 150 278 c 1,2,3
 51 340 51 340 51 429 c 0,4,5
 51 498 51 498 108.5 548 c 128,-1,6
 166 598 166 598 244.5 598 c 128,-1,7
 323 598 323 598 374 559 c 128,-1,8
 425 520 425 520 425 458 c 0,9,10
 425 370 425 370 335 323 c 1,11,12
 383 295 383 295 411 260 c 128,-1,13
 439 225 439 225 439 174 c 0,14,15
 439 95 439 95 377.5 41.5 c 128,-1,16
 316 -12 316 -12 230.5 -12 c 128,-1,17
 145 -12 145 -12 91.5 27 c 128,-1,18
 38 66 38 66 38 130 c 0,0,1
173.5 89.5 m 128,-1,20
 200 62 200 62 238.5 62 c 128,-1,21
 277 62 277 62 300.5 84 c 128,-1,22
 324 106 324 106 324 139 c 128,-1,23
 324 172 324 172 297 193.5 c 128,-1,24
 270 215 270 215 239 230 c 128,-1,25
 208 245 208 245 204 247 c 1,26,27
 147 212 147 212 147 156 c 0,28,19
 147 117 147 117 173.5 89.5 c 128,-1,20
187.5 500 m 128,-1,30
 168 481 168 481 168 455.5 c 128,-1,31
 168 430 168 430 185 411 c 128,-1,32
 202 392 202 392 219.5 382 c 128,-1,33
 237 372 237 372 275 353 c 1,34,35
 314 386 314 386 314 430.5 c 128,-1,36
 314 475 314 475 293 497 c 128,-1,37
 272 519 272 519 239.5 519 c 128,-1,29
 207 519 207 519 187.5 500 c 128,-1,30
EndSplineSet
EndChar

StartChar: nine
Encoding: 57 57 28
Width: 464
GlyphClass: 2
Flags: W
LayerCount: 2
Fore
SplineSet
279 174 m 1,0,1
 208 138 208 138 193 137 c 1,2,3
 115 137 115 137 69.5 186 c 128,-1,4
 24 235 24 235 24 307 c 0,5,6
 24 396 24 396 84 453 c 128,-1,7
 144 510 144 510 236.5 510 c 128,-1,8
 329 510 329 510 382.5 450 c 128,-1,9
 436 390 436 390 436 294 c 0,10,11
 436 232 436 232 417 177 c 128,-1,12
 398 122 398 122 367.5 83.5 c 128,-1,13
 337 45 337 45 299.5 12 c 128,-1,14
 262 -21 262 -21 225 -41 c 0,15,16
 149 -82 149 -82 89 -101 c 1,17,-1
 79 -95 l 1,18,-1
 59 -40 l 1,19,20
 75 -35 75 -35 113 -13.5 c 128,-1,21
 151 8 151 8 178.5 29.5 c 128,-1,22
 206 51 206 51 236 88 c 128,-1,23
 266 125 266 125 283 167 c 1,24,-1
 279 174 l 1,0,1
167.5 254.5 m 128,-1,26
 191 225 191 225 230 225 c 128,-1,27
 269 225 269 225 311 252 c 1,28,29
 314 273 314 273 314 295 c 0,30,31
 314 357 314 357 290 393 c 128,-1,32
 266 429 266 429 226 429 c 128,-1,33
 186 429 186 429 165 404 c 128,-1,34
 144 379 144 379 144 331.5 c 128,-1,25
 144 284 144 284 167.5 254.5 c 128,-1,26
EndSplineSet
EndChar

StartChar: colon
Encoding: 58 58 29
Width: 238
GlyphClass: 2
Flags: W
LayerCount: 2
Fore
SplineSet
114 -11 m 128,-1,1
 77 -11 77 -11 58 9.5 c 128,-1,2
 39 30 39 30 39 65.5 c 128,-1,3
 39 101 39 101 61 124 c 128,-1,4
 83 147 83 147 119 147 c 128,-1,5
 155 147 155 147 175 126.5 c 128,-1,6
 195 106 195 106 195 70.5 c 128,-1,7
 195 35 195 35 173 12 c 128,-1,0
 151 -11 151 -11 114 -11 c 128,-1,1
114 262 m 128,-1,9
 77 262 77 262 58 282.5 c 128,-1,10
 39 303 39 303 39 338.5 c 128,-1,11
 39 374 39 374 61 397 c 128,-1,12
 83 420 83 420 119 420 c 128,-1,13
 155 420 155 420 175 399.5 c 128,-1,14
 195 379 195 379 195 343.5 c 128,-1,15
 195 308 195 308 173 285 c 128,-1,8
 151 262 151 262 114 262 c 128,-1,9
EndSplineSet
EndChar

StartChar: semicolon
Encoding: 59 59 30
Width: 238
GlyphClass: 2
Flags: W
LayerCount: 2
Fore
SplineSet
48 108 m 1,0,1
 93 142 93 142 125 142 c 128,-1,2
 157 142 157 142 175.5 118 c 128,-1,3
 194 94 194 94 194 47.5 c 128,-1,4
 194 1 194 1 150 -51 c 128,-1,5
 106 -103 106 -103 41 -140 c 1,6,-1
 4 -110 l 1,7,-1
 4 -93 l 1,8,9
 36 -71 36 -71 56 -40 c 128,-1,10
 76 -9 76 -9 76 26 c 128,-1,11
 76 61 76 61 45 94 c 1,12,-1
 48 108 l 1,0,1
114 262 m 128,-1,14
 77 262 77 262 58 282.5 c 128,-1,15
 39 303 39 303 39 338.5 c 128,-1,16
 39 374 39 374 61 397 c 128,-1,17
 83 420 83 420 119 420 c 128,-1,18
 155 420 155 420 175 399.5 c 128,-1,19
 195 379 195 379 195 343.5 c 128,-1,20
 195 308 195 308 173 285 c 128,-1,13
 151 262 151 262 114 262 c 128,-1,14
EndSplineSet
EndChar

StartChar: less
Encoding: 60 60 31
Width: 470
GlyphClass: 2
Flags: W
LayerCount: 2
Fore
SplineSet
36 213 m 1,0,-1
 28 226 l 1,1,-1
 29 323 l 1,2,-1
 397 481 l 1,3,-1
 410 473 l 1,4,-1
 430 397 l 1,5,6
 366 373 366 373 127 276 c 1,7,-1
 127 269 l 1,8,-1
 427 137 l 1,9,-1
 431 122 l 1,10,-1
 389 57 l 1,11,12
 192 146 192 146 36 213 c 1,0,-1
EndSplineSet
EndChar

StartChar: equal
Encoding: 61 61 32
Width: 506
GlyphClass: 2
Flags: W
LayerCount: 2
Fore
SplineSet
482 224 m 1,0,-1
 489 212 l 1,1,-1
 479 120 l 1,2,-1
 24 118 l 1,3,-1
 17 129 l 1,4,-1
 31 219 l 1,5,6
 176 218 176 218 265 218 c 1,7,-1
 482 224 l 1,0,-1
482 402 m 1,8,-1
 489 390 l 1,9,-1
 479 298 l 1,10,-1
 24 296 l 1,11,-1
 17 307 l 1,12,-1
 31 397 l 1,13,14
 176 396 176 396 265 396 c 1,15,-1
 482 402 l 1,8,-1
EndSplineSet
EndChar

StartChar: greater
Encoding: 62 62 33
Width: 470
GlyphClass: 2
Flags: W
LayerCount: 2
Fore
SplineSet
434 325 m 1,0,-1
 442 312 l 1,1,-1
 441 214 l 1,2,-1
 73 57 l 1,3,-1
 60 64 l 1,4,-1
 40 141 l 1,5,6
 112 167 112 167 343 261 c 1,7,-1
 343 268 l 1,8,-1
 43 400 l 1,9,-1
 39 416 l 1,10,-1
 81 481 l 1,11,12
 168 441 168 441 245 406 c 1,13,-1
 434 325 l 1,0,-1
EndSplineSet
EndChar

StartChar: question
Encoding: 63 63 34
Width: 370
GlyphClass: 2
Flags: W
LayerCount: 2
Fore
SplineSet
240 496 m 0,0,1
 240 590 240 590 57 600 c 1,2,-1
 49 614 l 1,3,-1
 86 698 l 1,4,-1
 101 705 l 1,5,6
 211 702 211 702 285.5 652.5 c 128,-1,7
 360 603 360 603 360 531 c 0,8,9
 360 470 360 470 320 430 c 0,10,11
 298 407 298 407 276 390 c 0,12,13
 246 368 246 368 195 334 c 1,14,-1
 192 327 l 1,15,-1
 207 244 l 1,16,-1
 201 233 l 1,17,-1
 113 215 l 1,18,-1
 101 221 l 1,19,-1
 77 347 l 1,20,-1
 80 361 l 1,21,-1
 188 424 l 1,22,23
 240 456 240 456 240 496 c 0,0,1
211 12 m 128,-1,25
 189 -11 189 -11 152.5 -11 c 128,-1,26
 116 -11 116 -11 96.5 9.5 c 128,-1,27
 77 30 77 30 77 65.5 c 128,-1,28
 77 101 77 101 99.5 124 c 128,-1,29
 122 147 122 147 158 147 c 128,-1,30
 194 147 194 147 213.5 126.5 c 128,-1,31
 233 106 233 106 233 70.5 c 128,-1,24
 233 35 233 35 211 12 c 128,-1,25
EndSplineSet
EndChar

StartChar: at
Encoding: 64 64 35
Width: 863
GlyphClass: 2
Flags: W
LayerCount: 2
Fore
SplineSet
493 -158 m 1,0,-1
 492 -174 l 1,1,-1
 461 -224 l 1,2,3
 256 -220 256 -220 140 -109 c 128,-1,4
 24 2 24 2 24 179 c 0,5,6
 24 269 24 269 59.5 353.5 c 128,-1,7
 95 438 95 438 155 501.5 c 128,-1,8
 215 565 215 565 300.5 603.5 c 128,-1,9
 386 642 386 642 481 642 c 0,10,11
 643 642 643 642 741 554 c 128,-1,12
 839 466 839 466 839 322.5 c 128,-1,13
 839 179 839 179 746.5 83.5 c 128,-1,14
 654 -12 654 -12 493 -12 c 0,15,16
 472 -12 472 -12 460.5 -1 c 128,-1,17
 449 10 449 10 449 35 c 128,-1,18
 449 60 449 60 483 193 c 1,19,-1
 475 194 l 1,20,21
 392 43 392 43 314 -12 c 1,22,23
 259 -12 259 -12 229 27 c 128,-1,24
 199 66 199 66 199 134 c 0,25,26
 199 256 199 256 276.5 361 c 128,-1,27
 354 466 354 466 440 466 c 1,28,-1
 527 448 l 1,29,-1
 534 470 l 1,30,-1
 546 477 l 1,31,-1
 626 463 l 1,32,-1
 634 446 l 1,33,34
 581 242 581 242 557 84 c 1,35,-1
 563 78 l 1,36,37
 651 78 651 78 701.5 137.5 c 128,-1,38
 752 197 752 197 752 294 c 0,39,40
 752 420 752 420 671.5 491 c 128,-1,41
 591 562 591 562 447.5 562 c 128,-1,42
 304 562 304 562 208.5 458.5 c 128,-1,43
 113 355 113 355 113 198.5 c 128,-1,44
 113 42 113 42 209.5 -55.5 c 128,-1,45
 306 -153 306 -153 493 -158 c 1,0,-1
346 105 m 0,46,47
 367 105 367 105 413 180.5 c 128,-1,48
 459 256 459 256 498 358 c 1,49,50
 447 387 447 387 410 387 c 0,51,52
 378 387 378 387 351 325 c 128,-1,53
 324 263 324 263 324 189 c 0,54,55
 324 154 324 154 330 129.5 c 128,-1,56
 336 105 336 105 346 105 c 0,46,47
EndSplineSet
EndChar

StartChar: A
Encoding: 65 65 36
Width: 625
GlyphClass: 2
Flags: W
LayerCount: 2
Fore
SplineSet
627 -3 m 1,0,1
 548 0 548 0 507 0 c 0,2,3
 427 0 427 0 335 -8 c 1,4,-1
 329 0 l 1,5,-1
 334 60 l 1,6,7
 383 64 383 64 397 71 c 128,-1,8
 411 78 411 78 411 92.5 c 128,-1,9
 411 107 411 107 406 130 c 1,10,-1
 386 206 l 1,11,12
 360 207 360 207 308 207 c 128,-1,13
 256 207 256 207 200 200 c 1,14,-1
 175 125 l 2,15,16
 169 104 169 104 169 90.5 c 128,-1,17
 169 77 169 77 179 70.5 c 128,-1,18
 189 64 189 64 215 64 c 2,19,-1
 258 64 l 1,20,-1
 262 57 l 1,21,-1
 255 -6 l 1,22,23
 173 0 173 0 109 0 c 1,24,-1
 -12 -3 l 1,25,-1
 -4 64 l 1,26,27
 20 68 20 68 34.5 82.5 c 128,-1,28
 49 97 49 97 61 130 c 2,29,-1
 239 637 l 1,30,-1
 398 653 l 1,31,-1
 409 648 l 1,32,33
 499 301 499 301 552 132 c 0,34,35
 563 96 563 96 580 81 c 128,-1,36
 597 66 597 66 630 63 c 1,37,-1
 634 56 l 1,38,-1
 627 -3 l 1,0,1
294 286 m 2,39,40
 326 286 326 286 368 290 c 1,41,-1
 310 510 l 1,42,-1
 296 510 l 1,43,-1
 224 286 l 1,44,-1
 294 286 l 2,39,40
EndSplineSet
EndChar

StartChar: B
Encoding: 66 66 37
Width: 629
GlyphClass: 2
Flags: W
LayerCount: 2
Fore
SplineSet
331 -10 m 1,0,-1
 183 0 l 1,1,2
 132 0 132 0 36 -10 c 1,3,-1
 44 58 l 1,4,5
 87 66 87 66 102 82 c 128,-1,6
 117 98 117 98 117 137 c 2,7,-1
 118 527 l 2,8,9
 118 555 118 555 111 566 c 128,-1,10
 104 577 104 577 85 577 c 1,11,-1
 51 575 l 1,12,-1
 45 583 l 1,13,-1
 54 644 l 1,14,15
 158 642 158 642 193 642 c 1,16,-1
 346 647 l 1,17,18
 450 647 450 647 504 607.5 c 128,-1,19
 558 568 558 568 558 492 c 0,20,21
 558 395 558 395 451 339 c 1,22,23
 515 322 515 322 553.5 285 c 128,-1,24
 592 248 592 248 592 190 c 0,25,26
 592 99 592 99 520.5 44.5 c 128,-1,27
 449 -10 449 -10 331 -10 c 1,0,-1
268.5 89.5 m 128,-1,29
 290 76 290 76 340 76 c 128,-1,30
 390 76 390 76 417 102.5 c 128,-1,31
 444 129 444 129 444 176 c 0,32,33
 444 258 444 258 343 281 c 1,34,-1
 251 280 l 1,35,-1
 247 135 l 2,36,28
 247 103 247 103 268.5 89.5 c 128,-1,29
417 466 m 0,37,38
 417 564 417 564 279 564 c 0,39,40
 269 564 269 564 266 560 c 0,41,42
 257 550 257 550 253 369 c 1,43,44
 329 360 329 360 348 360 c 1,45,46
 391 374 391 374 410 424 c 0,47,48
 417 443 417 443 417 466 c 0,37,38
EndSplineSet
EndChar

StartChar: C
Encoding: 67 67 38
Width: 617
GlyphClass: 2
Flags: W
LayerCount: 2
Fore
SplineSet
545 28 m 1,0,1
 449 -12 449 -12 318 -12 c 128,-1,2
 187 -12 187 -12 107.5 72.5 c 128,-1,3
 28 157 28 157 28 310.5 c 128,-1,4
 28 464 28 464 123 559 c 128,-1,5
 218 654 218 654 378 654 c 0,6,7
 457 654 457 654 569 629 c 1,8,-1
 575 616 l 1,9,10
 555 533 555 533 549 427 c 1,11,-1
 450 420 l 1,12,13
 452 447 452 447 452 473 c 0,14,15
 452 516 452 516 425.5 536.5 c 128,-1,16
 399 557 399 557 343 557 c 0,17,18
 184 557 184 557 184 338 c 0,19,20
 184 216 184 216 228 149 c 128,-1,21
 272 82 272 82 350 82 c 0,22,23
 404 82 404 82 434 114.5 c 128,-1,24
 464 147 464 147 476 220 c 1,25,-1
 575 227 l 1,26,27
 558 123 558 123 555 40 c 1,28,-1
 545 28 l 1,0,1
EndSplineSet
EndChar

StartChar: D
Encoding: 68 68 39
Width: 693
GlyphClass: 2
Flags: W
LayerCount: 2
Fore
SplineSet
318 -12 m 1,0,1
 224 0 224 0 184 0 c 0,2,3
 120 0 120 0 38 -10 c 1,4,-1
 45 58 l 1,5,6
 88 66 88 66 102.5 83.5 c 128,-1,7
 117 101 117 101 117 143 c 2,8,-1
 118 522 l 2,9,10
 118 554 118 554 111.5 565 c 128,-1,11
 105 576 105 576 86 576 c 1,12,-1
 53 574 l 1,13,-1
 47 583 l 1,14,-1
 55 645 l 1,15,16
 144 642 144 642 183 642 c 1,17,-1
 342 647 l 1,18,19
 494 647 494 647 579.5 567.5 c 128,-1,20
 665 488 665 488 665 338.5 c 128,-1,21
 665 189 665 189 568 88.5 c 128,-1,22
 471 -12 471 -12 318 -12 c 1,0,1
289 560 m 0,23,24
 273 560 273 560 267 555 c 128,-1,25
 261 550 261 550 260 536 c 0,26,27
 247 263 247 263 247 146 c 0,28,29
 247 103 247 103 263.5 89 c 128,-1,30
 280 75 280 75 330 75 c 0,31,32
 508 75 508 75 508 316 c 0,33,34
 508 443 508 443 454.5 501.5 c 128,-1,35
 401 560 401 560 289 560 c 0,23,24
EndSplineSet
EndChar

StartChar: E
Encoding: 69 69 40
Width: 597
GlyphClass: 2
Flags: W
LayerCount: 2
Fore
SplineSet
253 370 m 1,0,-1
 346 369 l 1,1,-1
 462 377 l 1,2,-1
 470 368 l 1,3,-1
 456 282 l 1,4,5
 376 285 376 285 338.5 285 c 128,-1,6
 301 285 301 285 250 279 c 1,7,8
 247 170 247 170 247 134.5 c 128,-1,9
 247 99 247 99 257.5 89 c 128,-1,10
 268 79 268 79 314 79 c 128,-1,11
 360 79 360 79 386 82.5 c 128,-1,12
 412 86 412 86 430 99 c 128,-1,13
 448 112 448 112 454.5 132.5 c 128,-1,14
 461 153 461 153 467 193 c 1,15,-1
 552 200 l 1,16,-1
 559 190 l 1,17,18
 541 100 541 100 531 4 c 1,19,-1
 522 -7 l 1,20,21
 334 0 334 0 252 0 c 0,22,23
 130 0 130 0 36 -10 c 1,24,-1
 44 58 l 1,25,26
 85 64 85 64 100.5 82.5 c 128,-1,27
 116 101 116 101 116 144 c 2,28,-1
 117 523 l 2,29,30
 117 556 117 556 110.5 566.5 c 128,-1,31
 104 577 104 577 84 577 c 1,32,-1
 54 575 l 1,33,-1
 47 584 l 1,34,-1
 55 645 l 1,35,36
 165 642 165 642 309 642 c 128,-1,37
 453 642 453 642 544 654 c 1,38,-1
 552 643 l 1,39,40
 534 554 534 554 529 461 c 1,41,-1
 437 455 l 1,42,43
 439 481 439 481 439 495 c 0,44,45
 439 536 439 536 418 547 c 128,-1,46
 397 558 397 558 337.5 558 c 128,-1,47
 278 558 278 558 269.5 552.5 c 128,-1,48
 261 547 261 547 260 525 c 2,49,-1
 253 370 l 1,0,-1
EndSplineSet
EndChar

StartChar: F
Encoding: 70 70 41
Width: 532
GlyphClass: 2
Flags: W
LayerCount: 2
Fore
SplineSet
353 -4 m 1,0,1
 248 0 248 0 206 0 c 0,2,3
 139 0 139 0 36 -11 c 1,4,-1
 44 57 l 1,5,6
 86 65 86 65 101 83 c 128,-1,7
 116 101 116 101 116 144 c 2,8,-1
 117 523 l 2,9,10
 117 556 117 556 110.5 566.5 c 128,-1,11
 104 577 104 577 84 577 c 1,12,-1
 54 575 l 1,13,-1
 47 584 l 1,14,-1
 55 645 l 1,15,16
 165 642 165 642 299.5 642 c 128,-1,17
 434 642 434 642 521 654 c 1,18,-1
 528 643 l 1,19,20
 513 552 513 552 508 460 c 1,21,-1
 417 454 l 1,22,23
 419 482 419 482 419 495 c 0,24,25
 419 536 419 536 400.5 547 c 128,-1,26
 382 558 382 558 330 558 c 128,-1,27
 278 558 278 558 269.5 552.5 c 128,-1,28
 261 547 261 547 260 525 c 2,29,-1
 253 353 l 1,30,-1
 346 352 l 1,31,-1
 451 360 l 1,32,-1
 459 351 l 1,33,-1
 445 265 l 1,34,35
 371 268 371 268 330.5 268 c 128,-1,36
 290 268 290 268 250 261 c 1,37,-1
 247 142 l 2,38,39
 247 104 247 104 255.5 91 c 128,-1,40
 264 78 264 78 290 78 c 1,41,-1
 355 83 l 1,42,-1
 364 73 l 1,43,-1
 353 -4 l 1,0,1
EndSplineSet
EndChar

StartChar: G
Encoding: 71 71 42
Width: 654
GlyphClass: 2
Flags: W
LayerCount: 2
Fore
SplineSet
357 329 m 1,0,-1
 496 327 l 1,1,2
 598 327 598 327 598 332 c 2,3,-1
 605 293 l 1,4,5
 579 276 579 276 571.5 245 c 128,-1,6
 564 214 564 214 564 141 c 128,-1,7
 564 68 564 68 571 41 c 1,8,-1
 562 28 l 1,9,10
 520 11 520 11 455 -0.5 c 128,-1,11
 390 -12 390 -12 326 -12 c 0,12,13
 188 -12 188 -12 108 72.5 c 128,-1,14
 28 157 28 157 28 312 c 128,-1,15
 28 467 28 467 123 560.5 c 128,-1,16
 218 654 218 654 384 654 c 0,17,18
 467 654 467 654 582 629 c 1,19,-1
 589 616 l 1,20,21
 569 536 569 536 563 432 c 1,22,-1
 464 426 l 1,23,24
 467 451 467 451 467 486.5 c 128,-1,25
 467 522 467 522 442.5 539.5 c 128,-1,26
 418 557 418 557 360 557 c 0,27,28
 270 557 270 557 226.5 503 c 128,-1,29
 183 449 183 449 183 332 c 128,-1,30
 183 215 183 215 227 148.5 c 128,-1,31
 271 82 271 82 351 82 c 0,32,33
 377 82 377 82 401 88.5 c 128,-1,34
 425 95 425 95 447 108 c 1,35,-1
 447 201 l 2,36,37
 447 230 447 230 438.5 239.5 c 128,-1,38
 430 249 430 249 403 249 c 2,39,-1
 352 249 l 1,40,-1
 346 257 l 1,41,-1
 357 329 l 1,0,-1
EndSplineSet
EndChar

StartChar: H
Encoding: 72 72 43
Width: 747
GlyphClass: 2
Flags: W
LayerCount: 2
Fore
SplineSet
629 133 m 0,0,1
 629 94 629 94 638 80 c 128,-1,2
 647 66 647 66 671 66 c 1,3,-1
 707 69 l 1,4,-1
 712 61 l 1,5,-1
 703 -3 l 1,6,7
 620 0 620 0 557 0 c 2,8,-1
 418 -2 l 1,9,-1
 426 64 l 1,10,11
 468 65 468 65 483 83.5 c 128,-1,12
 498 102 498 102 498 156 c 2,13,-1
 498 283 l 1,14,15
 426 284 426 284 390 284 c 1,16,-1
 250 274 l 1,17,-1
 248 133 l 2,18,19
 248 92 248 92 255.5 78.5 c 128,-1,20
 263 65 263 65 286 65 c 1,21,-1
 322 68 l 1,22,-1
 327 61 l 1,23,-1
 318 -3 l 1,24,25
 234 0 234 0 200.5 0 c 128,-1,26
 167 0 167 0 129 -2 c 0,27,28
 37 -5 37 -5 37 -9 c 2,29,-1
 44 56 l 1,30,31
 88 65 88 65 102 81.5 c 128,-1,32
 116 98 116 98 116 140 c 2,33,-1
 117 525 l 2,34,35
 117 556 117 556 110 566.5 c 128,-1,36
 103 577 103 577 81 577 c 2,37,-1
 50 576 l 1,38,-1
 45 584 l 1,39,-1
 53 643 l 1,40,41
 132 642 132 642 172 642 c 1,42,-1
 323 649 l 1,43,-1
 318 582 l 1,44,45
 280 576 280 576 270 563.5 c 128,-1,46
 260 551 260 551 258 511 c 2,47,-1
 252 368 l 1,48,-1
 380 366 l 2,49,50
 442 366 442 366 498 373 c 1,51,-1
 498 525 l 2,52,53
 498 556 498 556 491 566.5 c 128,-1,54
 484 577 484 577 462 577 c 2,55,-1
 431 576 l 1,56,-1
 426 584 l 1,57,-1
 434 643 l 1,58,59
 519 642 519 642 562 642 c 1,60,-1
 709 649 l 1,61,-1
 703 583 l 1,62,63
 666 578 666 578 654.5 567.5 c 128,-1,64
 643 557 643 557 641 528 c 0,65,66
 629 298 629 298 629 133 c 0,0,1
EndSplineSet
EndChar

StartChar: I
Encoding: 73 73 44
Width: 365
GlyphClass: 2
Flags: W
LayerCount: 2
Fore
SplineSet
48 643 m 1,0,-1
 188 642 l 1,1,-1
 330 649 l 1,2,-1
 324 582 l 1,3,4
 286 577 286 577 274 566.5 c 128,-1,5
 262 556 262 556 260 528 c 0,6,7
 248 321 248 321 248 133 c 0,8,9
 248 92 248 92 255.5 78.5 c 128,-1,10
 263 65 263 65 286 65 c 1,11,-1
 329 68 l 1,12,-1
 334 61 l 1,13,-1
 325 -3 l 1,14,15
 221 0 221 0 186 0 c 0,16,17
 117 0 117 0 36 -9 c 1,18,-1
 43 56 l 1,19,20
 87 65 87 65 101.5 82 c 128,-1,21
 116 99 116 99 116 140 c 2,22,-1
 117 525 l 2,23,24
 117 556 117 556 110 566.5 c 128,-1,25
 103 577 103 577 81 577 c 2,26,-1
 46 576 l 1,27,-1
 41 584 l 1,28,-1
 48 643 l 1,0,-1
EndSplineSet
EndChar

StartChar: J
Encoding: 74 74 45
Width: 333
GlyphClass: 2
Flags: W
LayerCount: 2
Fore
SplineSet
107 123 m 2,0,-1
 107 525 l 2,1,2
 107 557 107 557 100.5 567 c 128,-1,3
 94 577 94 577 72 577 c 1,4,-1
 31 574 l 1,5,-1
 25 582 l 1,6,-1
 33 642 l 1,7,-1
 157 642 l 1,8,-1
 308 650 l 1,9,-1
 302 582 l 1,10,11
 270 576 270 576 261 566.5 c 128,-1,12
 252 557 252 557 250 528 c 0,13,14
 238 310 238 310 238 101 c 1,15,16
 237 2 237 2 189.5 -59 c 128,-1,17
 142 -120 142 -120 38 -154 c 1,18,-1
 10 -113 l 1,19,-1
 12 -102 l 1,20,21
 69 -61 69 -61 88 -15.5 c 128,-1,22
 107 30 107 30 107 123 c 2,0,-1
EndSplineSet
EndChar

StartChar: K
Encoding: 75 75 46
Width: 659
GlyphClass: 2
Flags: W
LayerCount: 2
Fore
SplineSet
257 524 m 0,0,1
 248 128 248 128 248 109 c 128,-1,2
 248 90 248 90 255 77.5 c 128,-1,3
 262 65 262 65 286 65 c 1,4,-1
 325 68 l 1,5,-1
 329 61 l 1,6,-1
 320 -3 l 1,7,8
 219 0 219 0 176 0 c 2,9,-1
 37 -3 l 1,10,-1
 46 61 l 1,11,12
 89 68 89 68 102.5 83 c 128,-1,13
 116 98 116 98 116 140 c 2,14,-1
 117 525 l 2,15,16
 117 556 117 556 110 566.5 c 128,-1,17
 103 577 103 577 81 577 c 2,18,-1
 50 576 l 1,19,-1
 45 584 l 1,20,-1
 53 644 l 1,21,22
 159 642 159 642 188 642 c 1,23,-1
 326 649 l 1,24,-1
 320 582 l 1,25,26
 283 574 283 574 270.5 563 c 128,-1,27
 258 552 258 552 257 524 c 0,0,1
443 547 m 0,28,29
 443 575 443 575 390 578 c 1,30,-1
 387 585 l 1,31,-1
 395 647 l 1,32,33
 479 642 479 642 520 642 c 1,34,-1
 637 646 l 1,35,-1
 644 635 l 1,36,-1
 636 578 l 1,37,38
 605 565 605 565 576.5 540.5 c 128,-1,39
 548 516 548 516 505 464 c 1,40,-1
 402 348 l 1,41,-1
 534 146 l 2,42,43
 564 101 564 101 589.5 81 c 128,-1,44
 615 61 615 61 648 59 c 1,45,-1
 654 50 l 1,46,-1
 646 -3 l 1,47,48
 547 -15 547 -15 529 -15 c 0,49,50
 470 -15 470 -15 418 69 c 2,51,-1
 267 316 l 1,52,-1
 270 338 l 1,53,-1
 417 498 l 1,54,55
 443 524 443 524 443 547 c 0,28,29
EndSplineSet
EndChar

StartChar: L
Encoding: 76 76 47
Width: 531
GlyphClass: 2
Flags: W
LayerCount: 2
Fore
SplineSet
52 643 m 1,0,-1
 188 642 l 1,1,-1
 343 649 l 1,2,-1
 335 578 l 1,3,4
 286 572 286 572 273.5 559 c 128,-1,5
 261 546 261 546 259 505 c 1,6,7
 248 356 248 356 248 139 c 0,8,9
 248 101 248 101 259.5 90 c 128,-1,10
 271 79 271 79 310 79 c 0,11,12
 381 79 381 79 404.5 106.5 c 128,-1,13
 428 134 428 134 438 231 c 1,14,-1
 523 240 l 1,15,-1
 530 230 l 1,16,17
 513 121 513 121 503 3 c 1,18,-1
 494 -8 l 1,19,20
 331 0 331 0 252 0 c 0,21,22
 134 0 134 0 42 -10 c 1,23,-1
 49 58 l 1,24,25
 87 64 87 64 101.5 82.5 c 128,-1,26
 116 101 116 101 116 144 c 2,27,-1
 116 525 l 2,28,29
 116 556 116 556 109 566.5 c 128,-1,30
 102 577 102 577 80 577 c 2,31,-1
 50 576 l 1,32,-1
 45 584 l 1,33,-1
 52 643 l 1,0,-1
EndSplineSet
EndChar

StartChar: M
Encoding: 77 77 48
Width: 841
GlyphClass: 2
Flags: W
LayerCount: 2
Fore
SplineSet
562 643 m 1,0,-1
 659 641 l 2,1,2
 666 641 666 641 786 648 c 1,3,-1
 790 644 l 1,4,-1
 784 582 l 1,5,6
 741 579 741 579 726 568 c 128,-1,7
 711 557 711 557 711 529 c 0,8,9
 711 438 711 438 735 157 c 0,10,11
 740 103 740 103 750 84.5 c 128,-1,12
 760 66 760 66 783 66 c 1,13,-1
 812 68 l 1,14,-1
 816 62 l 1,15,-1
 807 -3 l 1,16,17
 746 0 746 0 714 0 c 128,-1,18
 682 0 682 0 623 -3 c 128,-1,19
 564 -6 564 -6 559 -8 c 1,20,-1
 567 60 l 1,21,22
 596 63 596 63 609 74.5 c 128,-1,23
 622 86 622 86 622 109 c 1,24,-1
 602 445 l 1,25,-1
 593 445 l 1,26,27
 508 209 508 209 441 -7 c 1,28,-1
 368 -16 l 1,29,30
 283 256 283 256 215 445 c 1,31,-1
 207 445 l 1,32,33
 187 122 187 122 187 98 c 0,34,35
 187 65 187 65 219 65 c 1,36,-1
 252 67 l 1,37,-1
 258 61 l 1,38,-1
 247 -4 l 1,39,40
 161 0 161 0 128 0 c 1,41,-1
 27 -8 l 1,42,-1
 34 59 l 1,43,44
 64 63 64 63 77.5 78.5 c 128,-1,45
 91 94 91 94 94 131 c 1,46,47
 99 167 99 167 116.5 339.5 c 128,-1,48
 134 512 134 512 134 535 c 128,-1,49
 134 558 134 558 119.5 567 c 128,-1,50
 105 576 105 576 59 581 c 1,51,-1
 54 587 l 1,52,-1
 63 647 l 1,53,54
 153 642 153 642 190 642 c 1,55,-1
 299 646 l 1,56,57
 355 442 355 442 423 235 c 1,58,-1
 431 235 l 1,59,60
 495 424 495 424 562 643 c 1,0,-1
EndSplineSet
EndChar

StartChar: N
Encoding: 78 78 49
Width: 729
GlyphClass: 2
Flags: W
LayerCount: 2
Fore
SplineSet
495 577 m 2,0,-1
 461 576 l 1,1,-1
 457 584 l 1,2,-1
 464 646 l 1,3,4
 549 642 549 642 593 642 c 1,5,-1
 711 647 l 1,6,-1
 706 580 l 1,7,8
 673 575 673 575 658.5 561 c 128,-1,9
 644 547 644 547 643 517 c 2,10,-1
 630 -14 l 1,11,-1
 524 -27 l 1,12,13
 376 210 376 210 233 417 c 1,14,-1
 223 417 l 1,15,-1
 222 109 l 2,16,17
 222 84 222 84 229.5 74 c 128,-1,18
 237 64 237 64 256 64 c 1,19,-1
 299 67 l 1,20,-1
 305 60 l 1,21,-1
 295 -4 l 1,22,23
 209 0 209 0 176 0 c 0,24,25
 119 0 119 0 43 -8 c 1,26,-1
 51 59 l 1,27,28
 109 66 109 66 110 122 c 2,29,-1
 123 517 l 1,30,31
 123 549 123 549 107 561.5 c 128,-1,32
 91 574 91 574 42 579 c 1,33,-1
 34 589 l 1,34,-1
 41 647 l 1,35,36
 108 642 108 642 157 642 c 1,37,-1
 253 646 l 1,38,39
 384 433 384 433 520 235 c 1,40,-1
 530 235 l 1,41,-1
 528 534 l 2,42,43
 527 577 527 577 495 577 c 2,0,-1
EndSplineSet
EndChar

StartChar: O
Encoding: 79 79 50
Width: 674
GlyphClass: 2
Flags: W
LayerCount: 2
Fore
SplineSet
224 144 m 128,-1,1
 265 75 265 75 338 75 c 128,-1,2
 411 75 411 75 450.5 130.5 c 128,-1,3
 490 186 490 186 490 303 c 128,-1,4
 490 420 490 420 448 488.5 c 128,-1,5
 406 557 406 557 332.5 557 c 128,-1,6
 259 557 259 557 221 501.5 c 128,-1,7
 183 446 183 446 183 329.5 c 128,-1,0
 183 213 183 213 224 144 c 128,-1,1
555 85 m 128,-1,9
 464 -12 464 -12 323 -12 c 128,-1,10
 182 -12 182 -12 105 73 c 128,-1,11
 28 158 28 158 28 310 c 128,-1,12
 28 462 28 462 118 558 c 128,-1,13
 208 654 208 654 350 654 c 128,-1,14
 492 654 492 654 569 571 c 128,-1,15
 646 488 646 488 646 335 c 128,-1,8
 646 182 646 182 555 85 c 128,-1,9
EndSplineSet
EndChar

StartChar: P
Encoding: 80 80 51
Width: 577
GlyphClass: 2
Flags: W
LayerCount: 2
Fore
SplineSet
53 643 m 1,0,-1
 179 642 l 1,1,-1
 331 647 l 1,2,3
 517 647 517 647 561 526 c 0,4,5
 573 493 573 493 573 454 c 0,6,7
 573 364 573 364 501 295.5 c 128,-1,8
 429 227 429 227 334 227 c 2,9,-1
 249 227 l 1,10,-1
 248 153 l 2,11,12
 248 97 248 97 256 81 c 128,-1,13
 264 65 264 65 294 65 c 1,14,-1
 338 68 l 1,15,-1
 342 62 l 1,16,-1
 332 -3 l 1,17,18
 244 0 244 0 213.5 0 c 128,-1,19
 183 0 183 0 142 -2 c 0,20,21
 40 -7 40 -7 39 -8 c 2,22,-1
 47 60 l 1,23,24
 88 67 88 67 102 84 c 128,-1,25
 116 101 116 101 116 143 c 2,26,-1
 117 523 l 2,27,28
 117 555 117 555 110.5 566 c 128,-1,29
 104 577 104 577 85 577 c 1,30,-1
 50 575 l 1,31,-1
 45 583 l 1,32,-1
 53 643 l 1,0,-1
430 440 m 0,33,34
 430 503 430 503 395 532 c 128,-1,35
 360 561 360 561 283 561 c 0,36,37
 269 561 269 561 266 558 c 0,38,39
 258 553 258 553 251 316 c 1,40,-1
 339 304 l 1,41,42
 430 323 430 323 430 440 c 0,33,34
EndSplineSet
EndChar

StartChar: Q
Encoding: 81 81 52
Width: 679
GlyphClass: 2
Flags: W
LayerCount: 2
Fore
SplineSet
105 73 m 128,-1,1
 28 158 28 158 28 310 c 128,-1,2
 28 462 28 462 118 558 c 128,-1,3
 208 654 208 654 350 654 c 128,-1,4
 492 654 492 654 569 571 c 128,-1,5
 646 488 646 488 646 341 c 0,6,7
 646 227 646 227 591 139.5 c 128,-1,8
 536 52 536 52 444 15 c 1,9,-1
 444 6 l 1,10,11
 605 -106 605 -106 712 -106 c 0,12,13
 753 -106 753 -106 797 -96 c 1,14,-1
 805 -103 l 1,15,-1
 816 -145 l 1,16,17
 710 -228 710 -228 682 -228 c 0,18,19
 615 -228 615 -228 548 -188.5 c 128,-1,20
 481 -149 481 -149 315 -12 c 1,21,0
 182 -12 182 -12 105 73 c 128,-1,1
224 144 m 128,-1,23
 265 75 265 75 338 75 c 128,-1,24
 411 75 411 75 450.5 130.5 c 128,-1,25
 490 186 490 186 490 303 c 128,-1,26
 490 420 490 420 448 488.5 c 128,-1,27
 406 557 406 557 332.5 557 c 128,-1,28
 259 557 259 557 221 501.5 c 128,-1,29
 183 446 183 446 183 329.5 c 128,-1,22
 183 213 183 213 224 144 c 128,-1,23
EndSplineSet
EndChar

StartChar: R
Encoding: 82 82 53
Width: 643
GlyphClass: 2
Flags: W
LayerCount: 2
Fore
SplineSet
569 475 m 0,0,1
 569 354 569 354 435 284 c 1,2,-1
 522 144 l 2,3,4
 550 98 550 98 576 77.5 c 128,-1,5
 602 57 602 57 633 57 c 1,6,-1
 640 48 l 1,7,-1
 633 -5 l 1,8,-1
 514 -16 l 1,9,10
 448 -16 448 -16 405 77 c 1,11,-1
 319 251 l 1,12,-1
 249 251 l 1,13,-1
 248 141 l 2,14,15
 248 91 248 91 259.5 78 c 128,-1,16
 271 65 271 65 319 64 c 1,17,-1
 323 58 l 1,18,-1
 313 -4 l 2,19,20
 313 -1 313 -1 179 -1 c 1,21,-1
 36 -6 l 1,22,-1
 45 61 l 1,23,24
 87 67 87 67 101.5 83.5 c 128,-1,25
 116 100 116 100 116 143 c 2,26,-1
 117 528 l 2,27,28
 117 557 117 557 110.5 567 c 128,-1,29
 104 577 104 577 85 577 c 1,30,-1
 50 575 l 1,31,-1
 45 583 l 1,32,-1
 53 644 l 1,33,34
 140 642 140 642 179 642 c 1,35,-1
 332 647 l 1,36,37
 447 647 447 647 508 602.5 c 128,-1,38
 569 558 569 558 569 475 c 0,0,1
427 456 m 0,39,40
 427 564 427 564 278 564 c 0,41,42
 268 564 268 564 264 560 c 0,43,44
 256 551 256 551 252 341 c 1,45,-1
 342 331 l 1,46,47
 427 367 427 367 427 456 c 0,39,40
EndSplineSet
EndChar

StartChar: S
Encoding: 83 83 54
Width: 540
GlyphClass: 2
Flags: W
LayerCount: 2
Fore
SplineSet
220 -12 m 0,0,1
 173 -12 173 -12 129 -2.5 c 128,-1,2
 85 7 85 7 44 26 c 1,3,-1
 36 40 l 1,4,5
 51 128 51 128 52 210 c 1,6,-1
 136 217 l 1,7,8
 136 135 136 135 159 106 c 128,-1,9
 182 77 182 77 237.5 77 c 128,-1,10
 293 77 293 77 321.5 98 c 128,-1,11
 350 119 350 119 350 154 c 0,12,13
 350 179 350 179 336.5 192.5 c 128,-1,14
 323 206 323 206 316 212.5 c 128,-1,15
 309 219 309 219 291 229 c 128,-1,16
 273 239 273 239 265 243 c 128,-1,17
 257 247 257 247 233 258 c 0,18,19
 131 308 131 308 87.5 349 c 128,-1,20
 44 390 44 390 44 454 c 0,21,22
 44 542 44 542 119 598 c 128,-1,23
 194 654 194 654 311 654 c 0,24,25
 396 654 396 654 462 634 c 1,26,-1
 483 627 l 1,27,-1
 490 614 l 1,28,29
 473 533 473 533 466 442 c 1,30,-1
 390 436 l 1,31,-1
 381 443 l 1,32,33
 382 459 382 459 382 478 c 0,34,35
 382 522 382 522 359.5 540.5 c 128,-1,36
 337 559 337 559 290.5 559 c 128,-1,37
 244 559 244 559 217 539 c 128,-1,38
 190 519 190 519 190 488 c 0,39,40
 190 440 190 440 270 400 c 0,41,42
 287 392 287 392 325 374 c 128,-1,43
 363 356 363 356 386 343 c 128,-1,44
 409 330 409 330 440 306 c 0,45,46
 499 261 499 261 499 190 c 0,47,48
 499 98 499 98 423 43 c 128,-1,49
 347 -12 347 -12 220 -12 c 0,0,1
EndSplineSet
EndChar

StartChar: T
Encoding: 84 84 55
Width: 569
GlyphClass: 2
Flags: W
LayerCount: 2
Fore
SplineSet
216 165 m 2,0,-1
 216 563 l 1,1,2
 173 562 173 562 152 558.5 c 128,-1,3
 131 555 131 555 117 538.5 c 128,-1,4
 103 522 103 522 99 501.5 c 128,-1,5
 95 481 95 481 89 433 c 1,6,-1
 5 427 l 1,7,8
 14 544 14 544 16 642 c 1,9,-1
 27 653 l 1,10,-1
 128 642 l 1,11,-1
 439 642 l 1,12,-1
 542 653 l 1,13,-1
 553 642 l 1,14,-1
 563 433 l 1,15,-1
 479 427 l 1,16,17
 468 520 468 520 450.5 540.5 c 128,-1,18
 433 561 433 561 358 563 c 1,19,20
 347 400 347 400 347 135 c 0,21,22
 347 98 347 98 359.5 82.5 c 128,-1,23
 372 67 372 67 402 67 c 1,24,-1
 455 70 l 1,25,-1
 459 65 l 1,26,-1
 450 -4 l 1,27,28
 328 0 328 0 276 0 c 1,29,-1
 108 -6 l 1,30,-1
 116 60 l 1,31,32
 182 66 182 66 199 83.5 c 128,-1,33
 216 101 216 101 216 165 c 2,0,-1
EndSplineSet
EndChar

StartChar: U
Encoding: 85 85 56
Width: 655
GlyphClass: 2
Flags: W
LayerCount: 2
Fore
SplineSet
343 79 m 0,0,1
 465 79 465 79 465 209 c 1,2,-1
 461 523 l 2,3,4
 460 556 460 556 454 566.5 c 128,-1,5
 448 577 448 577 429 577 c 1,6,-1
 396 575 l 1,7,-1
 394 579 l 1,8,-1
 402 645 l 1,9,10
 481 642 481 642 519 642 c 1,11,-1
 638 648 l 1,12,-1
 632 581 l 1,13,14
 595 573 595 573 584.5 564 c 128,-1,15
 574 555 574 555 574 531 c 2,16,-1
 574 220 l 2,17,18
 574 107 574 107 507.5 47.5 c 128,-1,19
 441 -12 441 -12 316 -12 c 0,20,21
 84 -12 84 -12 84 204 c 2,22,-1
 84 523 l 2,23,24
 84 556 84 556 78 566.5 c 128,-1,25
 72 577 72 577 52 577 c 1,26,-1
 20 575 l 1,27,-1
 18 579 l 1,28,-1
 27 645 l 1,29,30
 113 642 113 642 170 642 c 1,31,-1
 289 648 l 1,32,-1
 282 580 l 1,33,34
 251 576 251 576 239.5 565 c 128,-1,35
 228 554 228 554 226 527 c 1,36,-1
 219 236 l 1,37,38
 219 161 219 161 251 120 c 128,-1,39
 283 79 283 79 343 79 c 0,0,1
EndSplineSet
EndChar

StartChar: V
Encoding: 86 86 57
Width: 625
GlyphClass: 2
Flags: W
LayerCount: 2
Fore
SplineSet
0 644 m 1,0,1
 83 642 83 642 121 642 c 0,2,3
 192 642 192 642 296 650 c 1,4,-1
 302 642 l 1,5,-1
 297 581 l 1,6,7
 247 577 247 577 233.5 570 c 128,-1,8
 220 563 220 563 220 545 c 0,9,10
 220 515 220 515 311 131 c 1,11,-1
 326 131 l 1,12,13
 349 190 349 190 400.5 357.5 c 128,-1,14
 452 525 452 525 452 544.5 c 128,-1,15
 452 564 452 564 440.5 571 c 128,-1,16
 429 578 429 578 401 578 c 2,17,-1
 362 578 l 1,18,-1
 357 585 l 1,19,-1
 364 647 l 1,20,21
 448 642 448 642 512 642 c 1,22,-1
 628 644 l 1,23,-1
 621 578 l 1,24,25
 597 574 597 574 587 564.5 c 128,-1,26
 577 555 577 555 567 526 c 2,27,-1
 383 5 l 1,28,-1
 218 -15 l 1,29,30
 129 328 129 328 72 515 c 0,31,32
 63 546 63 546 45.5 560.5 c 128,-1,33
 28 575 28 575 -3 577 c 1,34,-1
 -7 584 l 1,35,-1
 0 644 l 1,0,1
EndSplineSet
EndChar

StartChar: W
Encoding: 87 87 58
Width: 964
GlyphClass: 2
Flags: W
LayerCount: 2
Fore
SplineSet
1 644 m 1,0,1
 81 642 81 642 120 642 c 0,2,3
 195 642 195 642 287 650 c 1,4,-1
 292 642 l 1,5,-1
 287 581 l 1,6,7
 239 576 239 576 225.5 569.5 c 128,-1,8
 212 563 212 563 212 544 c 0,9,10
 212 505 212 505 301 131 c 1,11,-1
 314 131 l 1,12,13
 346 217 346 217 424 491 c 1,14,15
 422 511 422 511 416.5 534 c 128,-1,16
 411 557 411 557 395 566.5 c 128,-1,17
 379 576 379 576 343 577 c 1,18,-1
 338 584 l 1,19,-1
 346 644 l 1,20,21
 437 642 437 642 476 642 c 0,22,23
 550 642 550 642 646 650 c 1,24,-1
 651 642 l 1,25,-1
 646 581 l 1,26,27
 597 576 597 576 584 570 c 128,-1,28
 571 564 571 564 571 546 c 0,29,30
 571 515 571 515 660 131 c 1,31,-1
 673 131 l 1,32,33
 695 191 695 191 745.5 359.5 c 128,-1,34
 796 528 796 528 796 547 c 128,-1,35
 796 566 796 566 785 572 c 128,-1,36
 774 578 774 578 746 578 c 2,37,-1
 708 578 l 1,38,-1
 703 585 l 1,39,-1
 711 647 l 1,40,41
 793 642 793 642 854 642 c 1,42,-1
 966 644 l 1,43,-1
 959 578 l 1,44,45
 936 574 936 574 926.5 564.5 c 128,-1,46
 917 555 917 555 907 526 c 2,47,-1
 731 5 l 1,48,-1
 572 -15 l 1,49,50
 556 77 556 77 486 342 c 1,51,-1
 476 342 l 1,52,-1
 372 5 l 1,53,-1
 211 -15 l 1,54,55
 126 328 126 328 70 515 c 0,56,57
 61 546 61 546 44 560.5 c 128,-1,58
 27 575 27 575 -2 577 c 1,59,-1
 -6 584 l 1,60,-1
 1 644 l 1,0,1
EndSplineSet
EndChar

StartChar: X
Encoding: 88 88 59
Width: 682
GlyphClass: 2
Flags: W
LayerCount: 2
Fore
SplineSet
420 645 m 1,0,-1
 552 642 l 1,1,-1
 664 645 l 1,2,-1
 668 638 l 1,3,-1
 663 577 l 1,4,5
 618 562 618 562 592 540 c 128,-1,6
 566 518 566 518 531 470 c 2,7,-1
 423 321 l 1,8,-1
 540 152 l 2,9,10
 570 110 570 110 600.5 90 c 128,-1,11
 631 70 631 70 672 68 c 1,12,-1
 675 64 l 1,13,-1
 667 -2 l 1,14,15
 579 1 579 1 537 1 c 1,16,-1
 357 -7 l 1,17,-1
 352 0 l 1,18,-1
 358 61 l 1,19,20
 412 64 412 64 412 89 c 0,21,22
 412 102 412 102 397 125 c 2,23,-1
 311 252 l 1,24,-1
 245 159 l 2,25,26
 210 110 210 110 210 93 c 0,27,28
 210 66 210 66 259 63 c 1,29,-1
 263 56 l 1,30,-1
 257 -6 l 1,31,32
 162 1 162 1 127 1 c 1,33,-1
 11 -4 l 1,34,-1
 7 6 l 1,35,-1
 13 66 l 1,36,37
 71 87 71 87 158 200 c 1,38,-1
 257 331 l 1,39,-1
 150 491 l 2,40,41
 123 531 123 531 94 549 c 128,-1,42
 65 567 65 567 22 575 c 1,43,-1
 18 580 l 1,44,-1
 26 644 l 1,45,46
 110 642 110 642 185 642 c 1,47,-1
 338 649 l 1,48,-1
 343 640 l 1,49,-1
 338 582 l 1,50,51
 278 579 278 579 278 552 c 0,52,53
 278 533 278 533 330 455 c 0,54,55
 340 440 340 440 367 400 c 1,56,57
 383 424 383 424 406 456 c 128,-1,58
 429 488 429 488 440 506 c 0,59,60
 465 546 465 546 465 557 c 0,61,62
 465 579 465 579 416 582 c 1,63,-1
 414 587 l 1,64,-1
 420 645 l 1,0,-1
EndSplineSet
EndChar

StartChar: Y
Encoding: 89 89 60
Width: 598
GlyphClass: 2
Flags: W
LayerCount: 2
Fore
SplineSet
369 645 m 1,0,-1
 502 641 l 1,1,-1
 604 645 l 1,2,-1
 608 638 l 1,3,-1
 601 577 l 1,4,5
 562 564 562 564 538 537.5 c 128,-1,6
 514 511 514 511 480 449 c 2,7,-1
 384 270 l 2,8,9
 366 235 366 235 366 132 c 0,10,11
 366 129 366 129 366 111.5 c 128,-1,12
 366 94 366 94 375.5 80.5 c 128,-1,13
 385 67 385 67 413 67 c 1,14,-1
 463 70 l 1,15,-1
 466 65 l 1,16,-1
 457 -4 l 1,17,18
 342 0 342 0 304 0 c 0,19,20
 253 0 253 0 136 -11 c 1,21,-1
 143 58 l 1,22,23
 200 65 200 65 216.5 83 c 128,-1,24
 233 101 233 101 233 152 c 2,25,-1
 233 182 l 2,26,27
 233 229 233 229 204 284 c 2,28,-1
 106 475 l 2,29,30
 82 523 82 523 59.5 544.5 c 128,-1,31
 37 566 37 566 -7 575 c 1,32,-1
 -10 580 l 1,33,-1
 -2 644 l 1,34,35
 87 641 87 641 127 641 c 1,36,-1
 287 649 l 1,37,-1
 292 640 l 1,38,-1
 287 582 l 1,39,40
 253 581 253 581 240 574 c 128,-1,41
 227 567 227 567 227 554.5 c 128,-1,42
 227 542 227 542 245 498 c 0,43,44
 285 399 285 399 312 346 c 1,45,-1
 322 346 l 1,46,-1
 401 511 l 2,47,48
 415 539 415 539 415 559 c 128,-1,49
 415 579 415 579 364 582 c 1,50,-1
 362 587 l 1,51,-1
 369 645 l 1,0,-1
EndSplineSet
EndChar

StartChar: Z
Encoding: 90 90 61
Width: 580
GlyphClass: 2
Flags: W
LayerCount: 2
Fore
SplineSet
531 16 m 1,0,-1
 514 -3 l 1,1,-1
 119 3 l 1,2,-1
 44 -5 l 1,3,-1
 19 40 l 1,4,-1
 370 569 l 1,5,-1
 243 561 l 1,6,7
 179 553 179 553 156 528 c 128,-1,8
 133 503 133 503 128 434 c 1,9,-1
 43 428 l 1,10,11
 57 552 57 552 60 644 c 1,12,-1
 70 654 l 1,13,-1
 248 643 l 1,14,-1
 541 640 l 1,15,-1
 559 599 l 1,16,17
 406 396 406 396 198 73 c 1,18,-1
 354 84 l 2,19,20
 404 88 404 88 431.5 124.5 c 128,-1,21
 459 161 459 161 471 238 c 1,22,-1
 556 245 l 1,23,24
 535 114 535 114 531 16 c 1,0,-1
EndSplineSet
EndChar

StartChar: bracketleft
Encoding: 91 91 62
Width: 317
GlyphClass: 2
Flags: W
LayerCount: 2
Fore
SplineSet
296 -132 m 1,0,-1
 81 -121 l 1,1,2
 92 155 92 155 92 255 c 1,3,-1
 81 634 l 1,4,-1
 299 645 l 1,5,-1
 303 637 l 1,6,-1
 296 580 l 1,7,-1
 192 560 l 1,8,-1
 192 -47 l 1,9,-1
 299 -68 l 1,10,-1
 303 -77 l 1,11,-1
 296 -132 l 1,0,-1
EndSplineSet
EndChar

StartChar: backslash
Encoding: 92 92 63
Width: 329
GlyphClass: 2
Flags: W
LayerCount: 2
Fore
SplineSet
12 660 m 1,0,-1
 24 675 l 1,1,-1
 105 675 l 1,2,3
 241 143 241 143 262 69.5 c 128,-1,4
 283 -4 283 -4 311 -99 c 1,5,-1
 302 -110 l 1,6,-1
 217 -110 l 1,7,8
 175 50 175 50 133 215 c 1,9,-1
 12 660 l 1,0,-1
EndSplineSet
EndChar

StartChar: bracketright
Encoding: 93 93 64
Width: 317
GlyphClass: 2
Flags: W
LayerCount: 2
Fore
SplineSet
21 645 m 1,0,-1
 236 634 l 1,1,2
 225 358 225 358 225 258 c 1,3,-1
 236 -121 l 1,4,-1
 18 -132 l 1,5,-1
 14 -124 l 1,6,-1
 21 -68 l 1,7,-1
 125 -47 l 1,8,-1
 125 560 l 1,9,-1
 18 580 l 1,10,-1
 14 589 l 1,11,-1
 21 645 l 1,0,-1
EndSplineSet
EndChar

StartChar: asciicircum
Encoding: 94 94 65
Width: 489
GlyphClass: 2
Flags: W
LayerCount: 2
Fore
SplineSet
286 482 m 1,0,-1
 299 474 l 1,1,2
 350 353 350 353 381 282 c 1,3,-1
 457 118 l 1,4,-1
 392 76 l 1,5,-1
 376 81 l 1,6,7
 306 237 306 237 243 381 c 1,8,-1
 236 381 l 1,9,-1
 186 257 l 1,10,-1
 116 77 l 1,11,-1
 39 97 l 1,12,-1
 32 110 l 1,13,14
 74 209 74 209 189 478 c 1,15,-1
 286 482 l 1,0,-1
EndSplineSet
EndChar

StartChar: underscore
Encoding: 95 95 66
Width: 453
GlyphClass: 2
Flags: W
LayerCount: 2
Fore
SplineSet
2 -90 m 1,0,-1
 243 -91 l 2,1,2
 291 -91 291 -91 455 -87 c 1,3,-1
 463 -101 l 1,4,-1
 452 -178 l 1,5,-1
 0 -180 l 1,6,-1
 -9 -166 l 1,7,-1
 2 -90 l 1,0,-1
EndSplineSet
EndChar

StartChar: grave
Encoding: 96 96 67
Width: 398
GlyphClass: 2
Flags: W
LayerCount: 2
Fore
SplineSet
66 651 m 1,0,-1
 65 665 l 1,1,-1
 119 735 l 1,2,-1
 132 736 l 1,3,4
 218 646 218 646 300 566 c 1,5,-1
 270 527 l 1,6,-1
 255 523 l 1,7,8
 178 581 178 581 66 651 c 1,0,-1
EndSplineSet
EndChar

StartChar: a
Encoding: 97 97 68
Width: 479
GlyphClass: 2
Flags: W
LayerCount: 2
Fore
SplineSet
391 103 m 128,-1,1
 401 92 401 92 420 92 c 128,-1,2
 439 92 439 92 464 109 c 1,3,-1
 480 88 l 1,4,5
 466 59 466 59 435 26.5 c 128,-1,6
 404 -6 404 -6 383 -12 c 1,7,8
 291 -12 291 -12 282 65 c 1,9,-1
 274 68 l 1,10,11
 198 -8 198 -8 164 -8 c 0,12,13
 106 -8 106 -8 66.5 34 c 128,-1,14
 27 76 27 76 27 138 c 0,15,16
 27 169 27 169 43 192 c 128,-1,17
 59 215 59 215 85 221 c 2,18,-1
 277 266 l 1,19,-1
 278 289 l 1,20,21
 278 332 278 332 255.5 355.5 c 128,-1,22
 233 379 233 379 200 379 c 128,-1,23
 167 379 167 379 137.5 367.5 c 128,-1,24
 108 356 108 356 76 332 c 1,25,-1
 67 337 l 1,26,-1
 49 397 l 1,27,28
 186 474 186 474 234 474 c 0,29,30
 318 474 318 474 359.5 436.5 c 128,-1,31
 401 399 401 399 401 337 c 0,32,33
 401 321 401 321 391 238 c 128,-1,34
 381 155 381 155 381 134.5 c 128,-1,0
 381 114 381 114 391 103 c 128,-1,1
170 182 m 2,35,36
 147 175 147 175 147 149 c 128,-1,37
 147 123 147 123 162.5 106 c 128,-1,38
 178 89 178 89 206.5 89 c 128,-1,39
 235 89 235 89 273 117 c 1,40,-1
 275 211 l 1,41,-1
 170 182 l 2,35,36
EndSplineSet
EndChar

StartChar: b
Encoding: 98 98 69
Width: 514
GlyphClass: 2
Flags: W
LayerCount: 2
Fore
SplineSet
25 653 m 1,0,-1
 2 652 l 1,1,-1
 -2 656 l 1,2,-1
 3 710 l 1,3,-1
 209 742 l 1,4,-1
 217 723 l 1,5,6
 198 701 198 701 190 406 c 1,7,8
 278 471 278 471 298 471 c 0,9,10
 386 471 386 471 437 411.5 c 128,-1,11
 488 352 488 352 488 244 c 128,-1,12
 488 136 488 136 417.5 63 c 128,-1,13
 347 -10 347 -10 236 -10 c 0,14,15
 165 -10 165 -10 77 6 c 1,16,-1
 67 16 l 1,17,-1
 67 597 l 2,18,19
 67 629 67 629 58 641 c 128,-1,20
 49 653 49 653 25 653 c 1,0,-1
185 88 m 1,21,22
 218 73 218 73 261.5 73 c 128,-1,23
 305 73 305 73 331.5 109.5 c 128,-1,24
 358 146 358 146 358 216.5 c 128,-1,25
 358 287 358 287 331.5 331 c 128,-1,26
 305 375 305 375 263.5 375 c 128,-1,27
 222 375 222 375 188 343 c 1,28,-1
 185 88 l 1,21,22
EndSplineSet
EndChar

StartChar: c
Encoding: 99 99 70
Width: 432
GlyphClass: 2
Flags: W
LayerCount: 2
Fore
SplineSet
246 -12 m 0,0,1
 143 -12 143 -12 84 50 c 128,-1,2
 25 112 25 112 25 221.5 c 128,-1,3
 25 331 25 331 93.5 402.5 c 128,-1,4
 162 474 162 474 269 474 c 0,5,6
 339 474 339 474 381 458 c 1,7,-1
 396 453 l 1,8,-1
 400 444 l 1,9,10
 383 373 383 373 378 289 c 1,11,-1
 313 285 l 1,12,-1
 313 318 l 2,13,14
 313 389 313 389 251 389 c 0,15,16
 158 389 158 389 158 257 c 0,17,18
 158 175 158 175 186 132 c 128,-1,19
 214 89 214 89 267 89 c 0,20,21
 313 89 313 89 373 118 c 1,22,-1
 381 115 l 1,23,-1
 397 63 l 1,24,25
 361 34 361 34 317 11 c 128,-1,26
 273 -12 273 -12 246 -12 c 0,0,1
EndSplineSet
EndChar

StartChar: d
Encoding: 100 100 71
Width: 537
GlyphClass: 2
Flags: W
LayerCount: 2
Fore
SplineSet
478 92 m 0,0,1
 500 92 500 92 523 109 c 1,2,-1
 539 88 l 1,3,4
 522 57 522 57 492.5 26.5 c 128,-1,5
 463 -4 463 -4 438 -12 c 1,6,7
 349 -12 349 -12 338 60 c 1,8,-1
 331 62 l 1,9,10
 235 -8 235 -8 216 -8 c 0,11,12
 128 -8 128 -8 76.5 51 c 128,-1,13
 25 110 25 110 25 217 c 128,-1,14
 25 324 25 324 96.5 397.5 c 128,-1,15
 168 471 168 471 278 471 c 0,16,17
 310 471 310 471 328 469 c 1,18,-1
 328 595 l 2,19,20
 328 627 328 627 319 639 c 128,-1,21
 310 651 310 651 286 651 c 1,22,-1
 262 648 l 1,23,-1
 268 709 l 1,24,25
 341 717 341 717 468 742 c 1,26,-1
 477 725 l 1,27,28
 464 706 464 706 455 531 c 128,-1,29
 446 356 446 356 446 133 c 0,30,31
 446 92 446 92 478 92 c 0,0,1
328 370 m 1,32,33
 299 387 299 387 253.5 387 c 128,-1,34
 208 387 208 387 182 351 c 128,-1,35
 156 315 156 315 156 244.5 c 128,-1,36
 156 174 156 174 182.5 130 c 128,-1,37
 209 86 209 86 253 86 c 0,38,39
 269 86 269 86 288 94 c 128,-1,40
 307 102 307 102 328 119 c 1,41,-1
 328 370 l 1,32,33
EndSplineSet
EndChar

StartChar: e
Encoding: 101 101 72
Width: 463
GlyphClass: 2
Flags: W
LayerCount: 2
Fore
SplineSet
308 320 m 0,0,1
 308 394 308 394 245 394 c 0,2,3
 206 394 206 394 182.5 367.5 c 128,-1,4
 159 341 159 341 155 290 c 1,5,-1
 289 297 l 1,6,7
 300 299 300 299 304 303 c 128,-1,8
 308 307 308 307 308 320 c 0,0,1
155 234 m 1,9,-1
 155 225 l 1,10,11
 158 159 158 159 191 122.5 c 128,-1,12
 224 86 224 86 280 86 c 0,13,14
 308 86 308 86 338 93.5 c 128,-1,15
 368 101 368 101 400 116 c 1,16,-1
 408 113 l 1,17,-1
 424 62 l 1,18,19
 383 32 383 32 333.5 10 c 128,-1,20
 284 -12 284 -12 252 -12 c 0,21,22
 146 -12 146 -12 85.5 50 c 128,-1,23
 25 112 25 112 25 220 c 128,-1,24
 25 328 25 328 93 401 c 128,-1,25
 161 474 161 474 263 474 c 0,26,27
 431 474 431 474 431 302 c 0,28,29
 431 273 431 273 424 245 c 1,30,-1
 412 234 l 1,31,-1
 155 234 l 1,9,-1
EndSplineSet
EndChar

StartChar: f
Encoding: 102 102 73
Width: 342
GlyphClass: 2
Flags: W
LayerCount: 2
Fore
SplineSet
345 742 m 0,0,1
 408 742 408 742 446 726 c 1,2,-1
 460 721 l 1,3,-1
 465 705 l 1,4,5
 447 665 447 665 430 616 c 1,6,-1
 417 613 l 1,7,8
 373 651 373 651 316.5 651 c 128,-1,9
 260 651 260 651 238.5 615.5 c 128,-1,10
 217 580 217 580 216 496 c 2,11,-1
 215 450 l 1,12,-1
 343 453 l 1,13,-1
 347 448 l 1,14,-1
 336 380 l 1,15,16
 285 382 285 382 214 383 c 1,17,-1
 212 113 l 2,18,19
 212 67 212 67 253 67 c 1,20,-1
 314 69 l 1,21,-1
 317 64 l 1,22,-1
 308 -3 l 1,23,24
 207 0 207 0 163 0 c 1,25,-1
 31 -6 l 1,26,-1
 38 56 l 1,27,28
 93 63 93 63 93 113 c 2,29,-1
 93 346 l 1,30,31
 92 369 92 369 79 376.5 c 128,-1,32
 66 384 66 384 28 386 c 1,33,-1
 24 392 l 1,34,-1
 32 444 l 1,35,-1
 93 454 l 1,36,-1
 93 462 l 1,37,38
 94 591 94 591 162 666.5 c 128,-1,39
 230 742 230 742 345 742 c 0,0,1
EndSplineSet
EndChar

StartChar: g
Encoding: 103 103 74
Width: 512
GlyphClass: 2
Flags: W
LayerCount: 2
Fore
SplineSet
238 127 m 0,0,1
 213 127 213 127 176 134 c 1,2,3
 150 117 150 117 150 100 c 0,4,5
 150 65 150 65 247 62 c 0,6,7
 381 58 381 58 434.5 32 c 128,-1,8
 488 6 488 6 488 -55 c 0,9,10
 488 -127 488 -127 406.5 -184.5 c 128,-1,11
 325 -242 325 -242 233 -242 c 128,-1,12
 141 -242 141 -242 92.5 -203.5 c 128,-1,13
 44 -165 44 -165 44 -101 c 1,14,15
 70 -71 70 -71 144 -28 c 1,16,-1
 144 -22 l 1,17,18
 97 -14 97 -14 68 13.5 c 128,-1,19
 39 41 39 41 39 80 c 1,20,21
 65 108 65 108 123 148 c 1,22,-1
 123 155 l 1,23,24
 48 197 48 197 48 292 c 0,25,26
 48 370 48 370 107 422.5 c 128,-1,27
 166 475 166 475 256 475 c 0,28,29
 278 475 278 475 311 470 c 128,-1,30
 344 465 344 465 362 466 c 0,31,32
 404 468 404 468 499 498 c 1,33,-1
 505 493 l 1,34,-1
 492 416 l 1,35,36
 456 411 456 411 419 410 c 1,37,-1
 415 404 l 1,38,39
 454 362 454 362 454 306 c 0,40,41
 454 228 454 228 393 177.5 c 128,-1,42
 332 127 332 127 238 127 c 0,0,1
256 195 m 0,43,44
 330 195 330 195 330 292 c 0,45,46
 330 343 330 343 307.5 371 c 128,-1,47
 285 399 285 399 248 399 c 0,48,49
 173 399 173 399 173 301 c 0,50,51
 173 251 173 251 195 223 c 128,-1,52
 217 195 217 195 256 195 c 0,43,44
193.5 -149 m 128,-1,54
 218 -167 218 -167 261.5 -167 c 128,-1,55
 305 -167 305 -167 339 -145 c 128,-1,56
 373 -123 373 -123 373 -94 c 0,57,58
 373 -78 373 -78 361 -69 c 0,59,60
 340 -53 340 -53 206 -34 c 1,61,62
 169 -67 169 -67 169 -99 c 128,-1,53
 169 -131 169 -131 193.5 -149 c 128,-1,54
EndSplineSet
EndChar

StartChar: h
Encoding: 104 104 75
Width: 544
GlyphClass: 2
Flags: W
LayerCount: 2
Fore
SplineSet
72 113 m 2,0,-1
 72 597 l 2,1,2
 72 628 72 628 63 640 c 128,-1,3
 54 652 54 652 30 652 c 2,4,-1
 7 652 l 1,5,-1
 2 657 l 1,6,-1
 8 710 l 1,7,-1
 214 742 l 1,8,-1
 221 723 l 1,9,10
 201 699 201 699 193 387 c 1,11,12
 223 415 223 415 264.5 444.5 c 128,-1,13
 306 474 306 474 326 474 c 0,14,15
 399 474 399 474 438 440.5 c 128,-1,16
 477 407 477 407 477 344 c 0,17,18
 477 326 477 326 467.5 230.5 c 128,-1,19
 458 135 458 135 458 109 c 128,-1,20
 458 83 458 83 465 72.5 c 128,-1,21
 472 62 472 62 489 62 c 2,22,-1
 519 63 l 1,23,-1
 521 59 l 1,24,-1
 512 -3 l 1,25,26
 442 0 442 0 403 0 c 1,27,-1
 291 -8 l 1,28,-1
 297 55 l 1,29,30
 342 66 342 66 343 111 c 2,31,-1
 347 282 l 1,32,33
 347 369 347 369 283 369 c 0,34,35
 248 369 248 369 192 328 c 1,36,37
 190 190 190 190 190 107 c 0,38,39
 190 82 190 82 197 72 c 128,-1,40
 204 62 204 62 220 62 c 1,41,-1
 245 64 l 1,42,-1
 247 58 l 1,43,-1
 237 -3 l 1,44,45
 169 0 169 0 128 0 c 1,46,-1
 17 -3 l 1,47,-1
 25 59 l 1,48,49
 52 62 52 62 62 73.5 c 128,-1,50
 72 85 72 85 72 113 c 2,0,-1
EndSplineSet
EndChar

StartChar: i
Encoding: 105 105 76
Width: 293
GlyphClass: 2
Flags: W
LayerCount: 2
Fore
SplineSet
205.5 596 m 128,-1,1
 183 574 183 574 149 574 c 128,-1,2
 115 574 115 574 96.5 593 c 128,-1,3
 78 612 78 612 78 647 c 128,-1,4
 78 682 78 682 100 704 c 128,-1,5
 122 726 122 726 156 726 c 128,-1,6
 190 726 190 726 209 707 c 128,-1,7
 228 688 228 688 228 653 c 128,-1,0
 228 618 228 618 205.5 596 c 128,-1,1
91 115 m 2,8,-1
 91 329 l 2,9,10
 91 360 91 360 81.5 372.5 c 128,-1,11
 72 385 72 385 48 385 c 1,12,-1
 25 382 l 1,13,-1
 31 441 l 1,14,15
 100 449 100 449 223 474 c 1,16,-1
 232 457 l 1,17,18
 208 407 208 407 208 106 c 0,19,20
 208 62 208 62 239 62 c 1,21,-1
 268 64 l 1,22,-1
 270 60 l 1,23,-1
 260 -3 l 1,24,25
 191 0 191 0 159 0 c 0,26,27
 112 0 112 0 26 -11 c 1,28,-1
 34 53 l 1,29,30
 91 63 91 63 91 115 c 2,8,-1
EndSplineSet
EndChar

StartChar: j
Encoding: 106 106 77
Width: 274
GlyphClass: 2
Flags: W
LayerCount: 2
Fore
SplineSet
82 36 m 2,0,-1
 82 329 l 2,1,2
 82 361 82 361 74 373 c 128,-1,3
 66 385 66 385 46 385 c 1,4,-1
 16 382 l 1,5,-1
 22 440 l 1,6,-1
 213 474 l 1,7,-1
 222 457 l 1,8,9
 200 410 200 410 200 -14 c 0,10,11
 200 -84 200 -84 157 -145 c 128,-1,12
 114 -206 114 -206 39 -244 c 1,13,-1
 7 -214 l 1,14,-1
 9 -202 l 1,15,16
 52 -160 52 -160 67 -110.5 c 128,-1,17
 82 -61 82 -61 82 36 c 2,0,-1
198 596 m 128,-1,19
 176 574 176 574 141.5 574 c 128,-1,20
 107 574 107 574 88.5 593 c 128,-1,21
 70 612 70 612 70 647 c 128,-1,22
 70 682 70 682 92 704 c 128,-1,23
 114 726 114 726 148 726 c 128,-1,24
 182 726 182 726 201 707 c 128,-1,25
 220 688 220 688 220 653 c 128,-1,18
 220 618 220 618 198 596 c 128,-1,19
EndSplineSet
EndChar

StartChar: k
Encoding: 107 107 78
Width: 519
GlyphClass: 2
Flags: W
LayerCount: 2
Fore
SplineSet
72 134 m 2,0,-1
 72 597 l 2,1,2
 72 645 72 645 44 651 c 1,3,-1
 5 651 l 1,4,-1
 3 664 l 1,5,-1
 8 710 l 1,6,-1
 214 742 l 1,7,-1
 221 723 l 1,8,9
 208 707 208 707 199 532 c 128,-1,10
 190 357 190 357 190 106 c 0,11,12
 190 81 190 81 197 71 c 128,-1,13
 204 61 204 61 220 61 c 1,14,-1
 246 63 l 1,15,-1
 248 57 l 1,16,-1
 237 -4 l 1,17,18
 168 0 168 0 128 0 c 1,19,-1
 17 -6 l 1,20,-1
 24 57 l 1,21,22
 55 61 55 61 63.5 76.5 c 128,-1,23
 72 92 72 92 72 134 c 2,0,-1
325 388 m 0,24,25
 325 408 325 408 273 408 c 1,26,-1
 270 413 l 1,27,-1
 279 464 l 1,28,29
 349 462 349 462 399 462 c 1,30,-1
 507 466 l 1,31,-1
 510 461 l 1,32,-1
 501 404 l 1,33,34
 461 388 461 388 431.5 362 c 128,-1,35
 402 336 402 336 393.5 329 c 128,-1,36
 385 322 385 322 324 261 c 1,37,-1
 408 131 l 1,38,39
 456 61 456 61 510 57 c 1,40,-1
 514 49 l 1,41,-1
 507 -1 l 1,42,43
 431 -18 431 -18 397.5 -11 c 128,-1,44
 364 -4 364 -4 345.5 13 c 128,-1,45
 327 30 327 30 305 68 c 2,46,-1
 205 236 l 1,47,-1
 208 258 l 1,48,-1
 304 354 l 2,49,50
 325 375 325 375 325 388 c 0,24,25
EndSplineSet
EndChar

StartChar: l
Encoding: 108 108 79
Width: 265
GlyphClass: 2
Flags: W
LayerCount: 2
Fore
SplineSet
72 134 m 2,0,-1
 72 597 l 2,1,2
 72 645 72 645 44 651 c 1,3,-1
 5 651 l 1,4,-1
 3 664 l 1,5,-1
 8 710 l 1,6,-1
 214 742 l 1,7,-1
 221 723 l 1,8,9
 208 707 208 707 199 531.5 c 128,-1,10
 190 356 190 356 190 106 c 0,11,12
 190 81 190 81 196.5 71 c 128,-1,13
 203 61 203 61 219 61 c 2,14,-1
 253 63 l 1,15,-1
 255 57 l 1,16,-1
 245 -3 l 1,17,18
 170 0 170 0 139 0 c 0,19,20
 78 0 78 0 15 -9 c 1,21,-1
 23 54 l 1,22,23
 55 61 55 61 63.5 77 c 128,-1,24
 72 93 72 93 72 134 c 2,0,-1
EndSplineSet
EndChar

StartChar: m
Encoding: 109 109 80
Width: 839
GlyphClass: 2
Flags: W
LayerCount: 2
Fore
SplineSet
303 369 m 0,0,1
 267 369 267 369 217 331 c 1,2,3
 207 151 207 151 207 117 c 128,-1,4
 207 83 207 83 213.5 73 c 128,-1,5
 220 63 220 63 237 63 c 1,6,-1
 263 65 l 1,7,-1
 266 60 l 1,8,-1
 255 -3 l 1,9,10
 189 0 189 0 149 0 c 1,11,-1
 30 -3 l 1,12,-1
 38 60 l 1,13,14
 67 62 67 62 78.5 73.5 c 128,-1,15
 90 85 90 85 90 113 c 2,16,-1
 90 323 l 2,17,18
 90 358 90 358 79.5 370.5 c 128,-1,19
 69 383 69 383 41 383 c 2,20,-1
 28 383 l 1,21,-1
 24 388 l 1,22,-1
 30 441 l 1,23,-1
 216 474 l 1,24,-1
 224 464 l 1,25,26
 215 429 215 429 213 395 c 1,27,-1
 216 392 l 1,28,29
 316 474 316 474 346 474 c 0,30,31
 462 474 462 474 488 390 c 1,32,33
 516 415 516 415 559.5 444.5 c 128,-1,34
 603 474 603 474 620 474 c 0,35,36
 692 474 692 474 731.5 440 c 128,-1,37
 771 406 771 406 771 344 c 0,38,39
 771 326 771 326 762 230.5 c 128,-1,40
 753 135 753 135 753 109 c 128,-1,41
 753 83 753 83 760.5 72.5 c 128,-1,42
 768 62 768 62 785 62 c 2,43,-1
 815 63 l 1,44,-1
 817 59 l 1,45,-1
 807 -3 l 1,46,47
 736 0 736 0 697 0 c 1,48,-1
 589 -5 l 1,49,-1
 595 59 l 1,50,51
 618 62 618 62 627.5 73.5 c 128,-1,52
 637 85 637 85 638 111 c 2,53,-1
 641 282 l 1,54,55
 641 369 641 369 577 369 c 0,56,57
 540 369 540 369 493 333 c 1,58,-1
 480 109 l 1,59,60
 480 83 480 83 487 72.5 c 128,-1,61
 494 62 494 62 510 62 c 2,62,-1
 538 63 l 1,63,-1
 540 59 l 1,64,-1
 530 -3 l 1,65,66
 462 0 462 0 424 0 c 1,67,-1
 312 -8 l 1,68,-1
 318 55 l 1,69,70
 363 66 363 66 364 111 c 2,71,-1
 367 282 l 1,72,73
 367 369 367 369 303 369 c 0,0,1
EndSplineSet
EndChar

StartChar: n
Encoding: 110 110 81
Width: 570
GlyphClass: 2
Flags: W
LayerCount: 2
Fore
SplineSet
303 369 m 0,0,1
 269 369 269 369 217 332 c 1,2,3
 207 149 207 149 207 116 c 128,-1,4
 207 83 207 83 213.5 73 c 128,-1,5
 220 63 220 63 237 63 c 1,6,-1
 263 65 l 1,7,-1
 266 60 l 1,8,-1
 255 -3 l 1,9,10
 189 0 189 0 149 0 c 1,11,-1
 30 -6 l 1,12,-1
 38 58 l 1,13,14
 67 61 67 61 78.5 73 c 128,-1,15
 90 85 90 85 90 113 c 2,16,-1
 90 323 l 2,17,18
 90 358 90 358 79.5 370.5 c 128,-1,19
 69 383 69 383 41 383 c 2,20,-1
 28 383 l 1,21,-1
 24 388 l 1,22,-1
 30 441 l 1,23,-1
 216 474 l 1,24,-1
 224 464 l 1,25,26
 215 429 215 429 213 395 c 1,27,-1
 217 391 l 1,28,29
 312 474 312 474 346 474 c 0,30,31
 417 474 417 474 457 439.5 c 128,-1,32
 497 405 497 405 497 344 c 0,33,34
 497 326 497 326 488 230.5 c 128,-1,35
 479 135 479 135 479 109 c 128,-1,36
 479 83 479 83 486 72.5 c 128,-1,37
 493 62 493 62 510 62 c 2,38,-1
 540 63 l 1,39,-1
 542 59 l 1,40,-1
 533 -3 l 1,41,42
 462 0 462 0 424 0 c 1,43,-1
 312 -8 l 1,44,-1
 318 55 l 1,45,46
 363 66 363 66 364 111 c 2,47,-1
 367 282 l 1,48,49
 367 369 367 369 303 369 c 0,0,1
EndSplineSet
EndChar

StartChar: o
Encoding: 111 111 82
Width: 503
GlyphClass: 2
Flags: W
LayerCount: 2
Fore
SplineSet
411.5 59 m 128,-1,1
 345 -12 345 -12 243 -12 c 128,-1,2
 141 -12 141 -12 83 50.5 c 128,-1,3
 25 113 25 113 25 222.5 c 128,-1,4
 25 332 25 332 92 403 c 128,-1,5
 159 474 159 474 261.5 474 c 128,-1,6
 364 474 364 474 421 412.5 c 128,-1,7
 478 351 478 351 478 240.5 c 128,-1,0
 478 130 478 130 411.5 59 c 128,-1,1
257 65 m 0,8,9
 343 65 343 65 343 199 c 0,10,11
 343 388 343 388 244 388 c 0,12,13
 158 388 158 388 158 254 c 0,14,15
 158 65 158 65 257 65 c 0,8,9
EndSplineSet
EndChar

StartChar: p
Encoding: 112 112 83
Width: 538
GlyphClass: 2
Flags: W
LayerCount: 2
Fore
SplineSet
273 -232 m 1,0,-1
 151 -230 l 1,1,-1
 29 -236 l 1,2,-1
 37 -174 l 1,3,4
 65 -171 65 -171 74 -159 c 128,-1,5
 83 -147 83 -147 83 -112 c 1,6,-1
 88 41 l 1,7,-1
 88 323 l 2,8,9
 88 358 88 358 77.5 370.5 c 128,-1,10
 67 383 67 383 39 383 c 2,11,-1
 26 383 l 1,12,-1
 22 388 l 1,13,-1
 27 441 l 1,14,-1
 212 474 l 1,15,-1
 221 464 l 1,16,17
 213 430 213 430 210 401 c 1,18,-1
 214 396 l 1,19,20
 294 470 294 470 313 470 c 0,21,22
 403 470 403 470 457.5 409.5 c 128,-1,23
 512 349 512 349 512 250 c 0,24,25
 512 133 512 133 438 61.5 c 128,-1,26
 364 -10 364 -10 246 -10 c 1,27,-1
 205 -7 l 1,28,-1
 205 -99 l 2,29,30
 205 -140 205 -140 211.5 -154 c 128,-1,31
 218 -168 218 -168 241 -168 c 1,32,-1
 281 -166 l 1,33,-1
 284 -170 l 1,34,-1
 273 -232 l 1,0,-1
208 87 m 1,35,36
 244 73 244 73 286.5 73 c 128,-1,37
 329 73 329 73 355.5 109.5 c 128,-1,38
 382 146 382 146 382 215.5 c 128,-1,39
 382 285 382 285 355.5 327.5 c 128,-1,40
 329 370 329 370 284 370 c 0,41,42
 253 370 253 370 214 341 c 1,43,44
 208 224 208 224 208 87 c 1,35,36
EndSplineSet
EndChar

StartChar: q
Encoding: 113 113 84
Width: 517
GlyphClass: 2
Flags: W
LayerCount: 2
Fore
SplineSet
216 -10 m 0,0,1
 128 -10 128 -10 76.5 49.5 c 128,-1,2
 25 109 25 109 25 216.5 c 128,-1,3
 25 324 25 324 96.5 397.5 c 128,-1,4
 168 471 168 471 278 471 c 0,5,6
 329 471 329 471 389 461 c 1,7,-1
 455 488 l 1,8,-1
 466 476 l 1,9,10
 445 431 445 431 445 -101 c 0,11,12
 445 -142 445 -142 450.5 -154 c 128,-1,13
 456 -166 456 -166 476 -166 c 2,14,-1
 502 -165 l 1,15,-1
 505 -168 l 1,16,-1
 498 -230 l 1,17,-1
 370 -230 l 1,18,-1
 246 -234 l 1,19,-1
 252 -172 l 1,20,21
 297 -170 297 -170 310 -158.5 c 128,-1,22
 323 -147 323 -147 324 -111 c 2,23,-1
 328 59 l 1,24,25
 232 -10 232 -10 216 -10 c 0,0,1
328 370 m 1,26,27
 299 387 299 387 253.5 387 c 128,-1,28
 208 387 208 387 182 351 c 128,-1,29
 156 315 156 315 156 244 c 128,-1,30
 156 173 156 173 182.5 129 c 128,-1,31
 209 85 209 85 253 85 c 0,32,33
 269 85 269 85 288 93.5 c 128,-1,34
 307 102 307 102 328 119 c 1,35,-1
 328 370 l 1,26,27
EndSplineSet
EndChar

StartChar: r
Encoding: 114 114 85
Width: 413
GlyphClass: 2
Flags: W
LayerCount: 2
Fore
SplineSet
94 126 m 2,0,-1
 94 324 l 2,1,2
 94 358 94 358 85 370.5 c 128,-1,3
 76 383 76 383 51 383 c 1,4,-1
 32 382 l 1,5,-1
 27 389 l 1,6,-1
 33 441 l 1,7,-1
 216 474 l 1,8,-1
 226 465 l 1,9,10
 216 415 216 415 215 372 c 1,11,-1
 221 368 l 1,12,13
 252 414 252 414 289.5 440.5 c 128,-1,14
 327 467 327 467 362 467 c 1,15,-1
 396 463 l 1,16,-1
 400 455 l 1,17,18
 384 354 384 354 380 272 c 1,19,-1
 315 268 l 1,20,21
 315 316 315 316 309 331.5 c 128,-1,22
 303 347 303 347 286 347 c 0,23,24
 252 347 252 347 220 304 c 1,25,26
 211 130 211 130 211 108 c 128,-1,27
 211 86 211 86 219 76 c 128,-1,28
 227 66 227 66 249 66 c 1,29,-1
 300 70 l 1,30,-1
 303 64 l 1,31,-1
 292 -4 l 1,32,33
 209 0 209 0 161 0 c 1,34,-1
 35 -4 l 1,35,-1
 43 58 l 1,36,37
 73 60 73 60 83.5 74 c 128,-1,38
 94 88 94 88 94 126 c 2,0,-1
EndSplineSet
EndChar

StartChar: s
Encoding: 115 115 86
Width: 409
GlyphClass: 2
Flags: W
LayerCount: 2
Fore
SplineSet
169 -12 m 0,0,1
 133 -12 133 -12 99.5 -5 c 128,-1,2
 66 2 66 2 35 15 c 1,3,-1
 29 26 l 1,4,5
 38 90 38 90 42 157 c 1,6,-1
 99 163 l 1,7,8
 99 62 99 62 187 62 c 0,9,10
 215 62 215 62 234 74.5 c 128,-1,11
 253 87 253 87 253 106.5 c 128,-1,12
 253 126 253 126 233.5 142 c 128,-1,13
 214 158 214 158 154 186 c 128,-1,14
 94 214 94 214 66.5 245.5 c 128,-1,15
 39 277 39 277 39 320 c 0,16,17
 39 388 39 388 97 431 c 128,-1,18
 155 474 155 474 247 474 c 0,19,20
 305 474 305 474 359 456 c 1,21,-1
 365 445 l 1,22,23
 352 382 352 382 346 315 c 1,24,-1
 288 312 l 1,25,26
 290 324 290 324 290 329 c 0,27,28
 289 397 289 397 220 397 c 0,29,30
 194 397 194 397 177 385 c 128,-1,31
 160 373 160 373 160 354 c 0,32,33
 160 318 160 318 227 286 c 0,34,35
 314 245 314 245 344.5 214 c 128,-1,36
 375 183 375 183 375 138 c 0,37,38
 375 75 375 75 315.5 31.5 c 128,-1,39
 256 -12 256 -12 169 -12 c 0,0,1
EndSplineSet
EndChar

StartChar: t
Encoding: 116 116 87
Width: 332
GlyphClass: 2
Flags: W
LayerCount: 2
Fore
SplineSet
186 167 m 0,0,1
 186 87 186 87 246 87 c 0,2,3
 275 87 275 87 309 101 c 1,4,-1
 321 68 l 1,5,6
 237 -12 237 -12 206 -12 c 0,7,8
 135 -12 135 -12 101.5 17.5 c 128,-1,9
 68 47 68 47 68 111 c 2,10,-1
 68 333 l 2,11,12
 68 364 68 364 57 375 c 128,-1,13
 46 386 46 386 14 387 c 1,14,-1
 4 394 l 1,15,-1
 11 444 l 1,16,17
 89 480 89 480 158 534 c 2,18,-1
 181 552 l 1,19,-1
 209 537 l 1,20,21
 203 505 203 505 198 450 c 1,22,-1
 315 453 l 1,23,-1
 319 448 l 1,24,-1
 309 380 l 1,25,-1
 192 383 l 1,26,27
 186 267 186 267 186 167 c 0,0,1
EndSplineSet
EndChar

StartChar: u
Encoding: 117 117 88
Width: 547
GlyphClass: 2
Flags: W
LayerCount: 2
Fore
SplineSet
487 92 m 0,0,1
 509 92 509 92 534 109 c 1,2,-1
 550 88 l 1,3,4
 532 58 532 58 499.5 25.5 c 128,-1,5
 467 -7 467 -7 445 -12 c 1,6,7
 354 -12 354 -12 343 65 c 1,8,-1
 335 69 l 1,9,10
 250 -11 250 -11 224 -11 c 0,11,12
 147 -11 147 -11 107 21.5 c 128,-1,13
 67 54 67 54 67 115 c 1,14,-1
 74 336 l 1,15,16
 74 385 74 385 41 385 c 1,17,-1
 15 382 l 1,18,-1
 21 441 l 1,19,-1
 204 474 l 1,20,-1
 214 457 l 1,21,22
 203 433 203 433 195 348.5 c 128,-1,23
 187 264 187 264 187 179 c 128,-1,24
 187 94 187 94 249 94 c 0,25,26
 277 94 277 94 334 131 c 1,27,-1
 334 335 l 2,28,29
 334 364 334 364 326 374 c 1,30,31
 314 386 314 386 274 383 c 1,32,-1
 282 441 l 1,33,-1
 469 472 l 1,34,-1
 479 455 l 1,35,36
 468 432 468 432 460 338.5 c 128,-1,37
 452 245 452 245 452 133 c 0,38,39
 452 92 452 92 487 92 c 0,0,1
EndSplineSet
EndChar

StartChar: v
Encoding: 118 118 89
Width: 468
GlyphClass: 2
Flags: W
LayerCount: 2
Fore
SplineSet
244 112 m 1,0,1
 333 358 333 358 333 375 c 128,-1,2
 333 392 333 392 326 396 c 128,-1,3
 319 400 319 400 300 400 c 2,4,-1
 273 400 l 1,5,-1
 269 407 l 1,6,-1
 277 463 l 1,7,8
 340 462 340 462 385 462 c 2,9,-1
 476 463 l 1,10,-1
 469 401 l 1,11,12
 447 398 447 398 437 387.5 c 128,-1,13
 427 377 427 377 414 343 c 2,14,-1
 288 0 l 1,15,-1
 157 -15 l 1,16,17
 77 276 77 276 53 351 c 0,18,19
 37 400 37 400 -9 401 c 1,20,-1
 -11 406 l 1,21,-1
 -4 463 l 1,22,23
 58 462 58 462 89 462 c 0,24,25
 136 462 136 462 227 469 c 1,26,-1
 229 464 l 1,27,-1
 221 405 l 1,28,29
 190 402 190 402 181 397 c 128,-1,30
 172 392 172 392 172 380 c 0,31,32
 172 352 172 352 233 112 c 1,33,-1
 244 112 l 1,0,1
EndSplineSet
EndChar

StartChar: w
Encoding: 119 119 90
Width: 740
GlyphClass: 2
Flags: W
LayerCount: 2
Fore
SplineSet
602 380 m 0,0,1
 602 392 602 392 595.5 396.5 c 128,-1,2
 589 401 589 401 571 401 c 2,3,-1
 544 401 l 1,4,-1
 540 407 l 1,5,-1
 548 464 l 1,6,7
 609 462 609 462 654 462 c 2,8,-1
 745 463 l 1,9,-1
 737 401 l 1,10,11
 715 398 715 398 705.5 387.5 c 128,-1,12
 696 377 696 377 684 343 c 2,13,-1
 560 0 l 1,14,-1
 434 -15 l 1,15,16
 432 -2 432 -2 372 233 c 1,17,-1
 361 233 l 1,18,-1
 286 0 l 1,19,-1
 157 -15 l 1,20,21
 78 276 78 276 55 351 c 0,22,23
 39 400 39 400 -6 401 c 1,24,-1
 -8 406 l 1,25,-1
 -1 463 l 1,26,27
 60 462 60 462 90 462 c 0,28,29
 138 462 138 462 227 469 c 1,30,-1
 229 464 l 1,31,-1
 221 405 l 1,32,33
 191 402 191 402 182.5 397.5 c 128,-1,34
 174 393 174 393 174 380 c 0,35,36
 174 358 174 358 233 112 c 1,37,-1
 243 112 l 1,38,39
 281 207 281 207 324 359 c 1,40,41
 319 382 319 382 307.5 391 c 128,-1,42
 296 400 296 400 270 400 c 1,43,-1
 267 406 l 1,44,-1
 275 463 l 1,45,46
 335 462 335 462 367 462 c 1,47,-1
 500 468 l 1,48,-1
 502 463 l 1,49,-1
 493 404 l 1,50,51
 462 401 462 401 454 396.5 c 128,-1,52
 446 392 446 392 446 380 c 0,53,54
 446 360 446 360 505 112 c 1,55,-1
 516 112 l 1,56,57
 602 355 602 355 602 380 c 0,0,1
EndSplineSet
EndChar

StartChar: x
Encoding: 120 120 91
Width: 497
GlyphClass: 2
Flags: W
LayerCount: 2
Fore
SplineSet
292 67 m 0,0,1
 292 78 292 78 279 96 c 2,2,-1
 220 177 l 1,3,4
 148 87 148 87 148 69.5 c 128,-1,5
 148 52 148 52 184 51 c 1,6,-1
 187 45 l 1,7,-1
 180 -4 l 1,8,9
 106 0 106 0 82 0 c 2,10,-1
 4 -3 l 1,11,-1
 1 4 l 1,12,-1
 8 52 l 1,13,14
 27 61 27 61 42 77 c 1,15,16
 54 88 54 88 177 235 c 1,17,-1
 110 328 l 2,18,19
 82 367 82 367 61 382 c 128,-1,20
 40 397 40 397 7 403 c 1,21,-1
 5 407 l 1,22,-1
 11 463 l 1,23,24
 70 462 70 462 128 462 c 1,25,-1
 252 466 l 1,26,-1
 255 460 l 1,27,-1
 249 408 l 1,28,29
 211 408 211 408 211 389 c 0,30,31
 211 373 211 373 233 344 c 1,32,-1
 274 286 l 1,33,-1
 320 348 l 2,34,35
 345 382 345 382 345 392 c 0,36,37
 345 406 345 406 309 406 c 1,38,-1
 307 410 l 1,39,-1
 312 462 l 1,40,-1
 402 462 l 1,41,-1
 487 465 l 1,42,-1
 490 459 l 1,43,-1
 484 405 l 1,44,45
 440 382 440 382 398 331 c 1,46,-1
 319 228 l 1,47,-1
 396 124 l 2,48,49
 422 89 422 89 443.5 73 c 128,-1,50
 465 57 465 57 493 55 c 1,51,-1
 496 51 l 1,52,-1
 487 -2 l 1,53,54
 421 0 421 0 391 0 c 1,55,-1
 249 -6 l 1,56,-1
 246 -1 l 1,57,-1
 253 49 l 1,58,59
 292 50 292 50 292 67 c 0,0,1
EndSplineSet
EndChar

StartChar: y
Encoding: 121 121 92
Width: 465
GlyphClass: 2
Flags: W
LayerCount: 2
Fore
SplineSet
248 132 m 1,0,1
 338 364 338 364 338 378.5 c 128,-1,2
 338 393 338 393 332 397.5 c 128,-1,3
 326 402 326 402 309 402 c 2,4,-1
 277 402 l 1,5,-1
 274 407 l 1,6,-1
 282 465 l 1,7,8
 343 462 343 462 388 462 c 2,9,-1
 481 462 l 1,10,-1
 473 401 l 1,11,12
 451 396 451 396 441 386.5 c 128,-1,13
 431 377 431 377 422 352 c 1,14,-1
 294 43 l 2,15,16
 230 -111 230 -111 175 -176 c 128,-1,17
 120 -241 120 -241 55 -241 c 0,18,19
 54 -241 54 -241 53 -241 c 0,20,21
 39 -241 39 -241 8 -208.5 c 128,-1,22
 -23 -176 -23 -176 -23 -160 c 1,23,-1
 -15 -147 l 1,24,25
 117 -136 117 -136 186 -9 c 1,26,27
 94 250 94 250 48 357 c 1,28,29
 27 399 27 399 -12 400 c 1,30,-1
 -14 405 l 1,31,-1
 -7 462 l 1,32,-1
 71 462 l 2,33,34
 130 462 130 462 177 465 c 128,-1,35
 224 468 224 468 224 469 c 2,36,-1
 226 464 l 1,37,-1
 217 405 l 1,38,39
 189 404 189 404 179 398.5 c 128,-1,40
 169 393 169 393 169 380 c 0,41,42
 169 352 169 352 237 132 c 1,43,-1
 248 132 l 1,0,1
EndSplineSet
EndChar

StartChar: z
Encoding: 122 122 93
Width: 458
GlyphClass: 2
Flags: W
LayerCount: 2
Fore
SplineSet
37 -4 m 1,0,-1
 20 29 l 1,1,-1
 272 397 l 1,2,-1
 182 391 l 1,3,4
 129 386 129 386 111 369 c 128,-1,5
 93 352 93 352 89 303 c 1,6,-1
 38 298 l 1,7,8
 47 398 47 398 49 464 c 1,9,-1
 56 471 l 1,10,-1
 186 463 l 1,11,-1
 418 460 l 1,12,-1
 431 430 l 1,13,14
 290 244 290 244 171 63 c 1,15,-1
 277 72 l 1,16,17
 320 77 320 77 341.5 104 c 128,-1,18
 363 131 363 131 372 190 c 1,19,-1
 425 195 l 1,20,21
 408 85 408 85 408 11 c 1,22,-1
 392 -5 l 1,23,-1
 93 2 l 1,24,-1
 37 -4 l 1,0,-1
EndSplineSet
EndChar

StartChar: braceleft
Encoding: 123 123 94
Width: 321
GlyphClass: 2
Flags: W
LayerCount: 2
Fore
SplineSet
129 363 m 0,0,1
 129 383 129 383 105.5 445.5 c 128,-1,2
 82 508 82 508 82 538 c 0,3,4
 82 588 82 588 122.5 621 c 128,-1,5
 163 654 163 654 231 654 c 0,6,7
 266 654 266 654 304 645 c 1,8,-1
 311 635 l 1,9,-1
 298 579 l 1,10,11
 273 584 273 584 251.5 584 c 128,-1,12
 230 584 230 584 215.5 567.5 c 128,-1,13
 201 551 201 551 201 528.5 c 128,-1,14
 201 506 201 506 214.5 449 c 128,-1,15
 228 392 228 392 228 362.5 c 128,-1,16
 228 333 228 333 207.5 309.5 c 128,-1,17
 187 286 187 286 155 277 c 1,18,-1
 155 271 l 1,19,20
 228 247 228 247 228 174 c 0,21,22
 228 149 228 149 214.5 88.5 c 128,-1,23
 201 28 201 28 201 4 c 128,-1,24
 201 -20 201 -20 216 -37.5 c 128,-1,25
 231 -55 231 -55 260 -55 c 1,26,-1
 301 -49 l 1,27,-1
 309 -59 l 1,28,-1
 298 -113 l 1,29,30
 268 -128 268 -128 213 -128 c 128,-1,31
 158 -128 158 -128 120 -94.5 c 128,-1,32
 82 -61 82 -61 82 -12 c 0,33,34
 82 19 82 19 105.5 80.5 c 128,-1,35
 129 142 129 142 129 160 c 0,36,37
 129 221 129 221 44 241 c 1,38,-1
 48 289 l 1,39,40
 129 312 129 312 129 363 c 0,0,1
EndSplineSet
EndChar

StartChar: bar
Encoding: 124 124 95
Width: 334
GlyphClass: 2
Flags: W
LayerCount: 2
Fore
SplineSet
204 807 m 1,0,-1
 220 796 l 1,1,2
 214 457 214 457 214 291 c 2,3,-1
 215 -258 l 1,4,-1
 128 -269 l 1,5,-1
 116 -258 l 1,6,7
 116 -244 116 -244 118 796 c 1,8,-1
 204 807 l 1,0,-1
EndSplineSet
EndChar

StartChar: braceright
Encoding: 125 125 96
Width: 321
GlyphClass: 2
Flags: W
LayerCount: 2
Fore
SplineSet
215.5 212.5 m 128,-1,1
 193 193 193 193 193 169.5 c 128,-1,2
 193 146 193 146 216.5 84.5 c 128,-1,3
 240 23 240 23 240 -7 c 0,4,5
 240 -60 240 -60 199 -94 c 128,-1,6
 158 -128 158 -128 90 -128 c 0,7,8
 57 -128 57 -128 17 -119 c 1,9,-1
 11 -109 l 1,10,-1
 24 -54 l 1,11,12
 48 -59 48 -59 70 -59 c 128,-1,13
 92 -59 92 -59 106 -42.5 c 128,-1,14
 120 -26 120 -26 120 -3 c 128,-1,15
 120 20 120 20 106.5 79 c 128,-1,16
 93 138 93 138 93 161 c 0,17,18
 93 231 93 231 166 253 c 1,19,-1
 166 259 l 1,20,21
 93 284 93 284 93 357 c 0,22,23
 93 381 93 381 106.5 439.5 c 128,-1,24
 120 498 120 498 120 521.5 c 128,-1,25
 120 545 120 545 105 562.5 c 128,-1,26
 90 580 90 580 62 580 c 1,27,-1
 21 575 l 1,28,-1
 13 584 l 1,29,-1
 24 639 l 1,30,31
 54 654 54 654 109 654 c 128,-1,32
 164 654 164 654 202 620 c 128,-1,33
 240 586 240 586 240 538 c 0,34,35
 240 507 240 507 216.5 447 c 128,-1,36
 193 387 193 387 193 362.5 c 128,-1,37
 193 338 193 338 216 317.5 c 128,-1,38
 239 297 239 297 278 289 c 1,39,-1
 274 242 l 1,40,0
 238 232 238 232 215.5 212.5 c 128,-1,1
EndSplineSet
EndChar

StartChar: asciitilde
Encoding: 126 126 97
Width: 506
GlyphClass: 2
Flags: W
LayerCount: 2
Fore
SplineSet
250.5 311.5 m 128,-1,1
 338 292 338 292 354.5 292 c 128,-1,2
 371 292 371 292 390 306 c 128,-1,3
 409 320 409 320 434 349 c 1,4,-1
 445 349 l 1,5,-1
 480 311 l 1,6,-1
 480 301 l 1,7,-1
 389 199 l 1,8,-1
 370 195 l 1,9,10
 344 195 344 195 256.5 214.5 c 128,-1,11
 169 234 169 234 152 234 c 0,12,13
 123 234 123 234 86 192 c 1,14,-1
 73 178 l 1,15,-1
 62 178 l 1,16,-1
 27 215 l 1,17,-1
 27 226 l 1,18,-1
 118 327 l 1,19,-1
 137 331 l 1,20,0
 163 331 163 331 250.5 311.5 c 128,-1,1
EndSplineSet
EndChar

StartChar: exclamdown
Encoding: 161 161 99
Width: 285
GlyphClass: 2
Flags: W
LayerCount: 2
Fore
SplineSet
101 451 m 128,-1,1
 123 474 123 474 159.5 474 c 128,-1,2
 196 474 196 474 215.5 453.5 c 128,-1,3
 235 433 235 433 235 397.5 c 128,-1,4
 235 362 235 362 212.5 339 c 128,-1,5
 190 316 190 316 154 316 c 128,-1,6
 118 316 118 316 98.5 336.5 c 128,-1,7
 79 357 79 357 79 392.5 c 128,-1,0
 79 428 79 428 101 451 c 128,-1,1
192 227 m 1,8,-1
 212 -203 l 1,9,-1
 200 -220 l 1,10,-1
 67 -242 l 1,11,-1
 50 -224 l 1,12,-1
 112 229 l 1,13,-1
 176 240 l 1,14,-1
 192 227 l 1,8,-1
EndSplineSet
EndChar

StartChar: cent
Encoding: 162 162 100
Width: 432
GlyphClass: 2
Flags: W
LayerCount: 2
Fore
SplineSet
66 71.5 m 128,-1,1
 25 130 25 130 25 225.5 c 128,-1,2
 25 321 25 321 82 390 c 128,-1,3
 139 459 139 459 232 471 c 1,4,-1
 252 649 l 1,5,-1
 322 658 l 1,6,-1
 328 649 l 1,7,-1
 308 472 l 1,8,9
 352 468 352 468 396 453 c 1,10,-1
 400 444 l 1,11,12
 383 373 383 373 378 289 c 1,13,-1
 313 285 l 1,14,-1
 313 318 l 2,15,16
 313 389 313 389 251 389 c 0,17,18
 158 389 158 389 158 257 c 0,19,20
 158 175 158 175 186 132 c 128,-1,21
 214 89 214 89 267 89 c 0,22,23
 313 89 313 89 373 118 c 1,24,-1
 381 115 l 1,25,-1
 397 63 l 1,26,27
 315 -4 315 -4 255 -11 c 1,28,-1
 240 -151 l 1,29,-1
 171 -159 l 1,30,-1
 165 -152 l 1,31,-1
 181 -4 l 1,32,0
 107 13 107 13 66 71.5 c 128,-1,1
EndSplineSet
EndChar

StartChar: sterling
Encoding: 163 163 101
Width: 518
GlyphClass: 2
Flags: W
LayerCount: 2
Fore
SplineSet
489 93 m 128,-1,1
 489 47 489 47 461.5 17.5 c 128,-1,2
 434 -12 434 -12 396.5 -12 c 128,-1,3
 359 -12 359 -12 281 12.5 c 128,-1,4
 203 37 203 37 158.5 37 c 128,-1,5
 114 37 114 37 58 1 c 1,6,-1
 47 6 l 1,7,-1
 27 67 l 1,8,9
 119 123 119 123 119 203 c 2,10,-1
 119 244 l 1,11,12
 118 267 118 267 105.5 274.5 c 128,-1,13
 93 282 93 282 55 284 c 1,14,-1
 51 290 l 1,15,-1
 58 342 l 1,16,-1
 119 352 l 1,17,-1
 119 373 l 2,18,19
 119 465 119 465 187 531.5 c 128,-1,20
 255 598 255 598 348 598 c 0,21,22
 422 598 422 598 460 583 c 1,23,-1
 465 572 l 1,24,-1
 433 476 l 1,25,-1
 414 473 l 1,26,27
 346 511 346 511 305 511 c 0,28,29
 236 511 236 511 235 416 c 1,30,-1
 232 348 l 1,31,-1
 383 351 l 1,32,-1
 387 346 l 1,33,-1
 376 278 l 1,34,35
 308 281 308 281 230 281 c 1,36,-1
 228 221 l 2,37,38
 226 149 226 149 181 110 c 1,39,-1
 238 122 l 1,40,41
 259 122 259 122 309 112.5 c 128,-1,42
 359 103 359 103 378 103 c 0,43,44
 440 103 440 103 443 178 c 1,45,-1
 468 176 l 1,46,0
 489 139 489 139 489 93 c 128,-1,1
EndSplineSet
EndChar

StartChar: currency
Encoding: 164 164 102
Width: 444
GlyphClass: 2
Flags: W
LayerCount: 2
Fore
SplineSet
86 278 m 1,0,1
 68 311 68 311 68 351.5 c 128,-1,2
 68 392 68 392 88 426 c 1,3,-1
 13 497 l 1,4,-1
 16 514 l 1,5,-1
 86 564 l 1,6,7
 134 512 134 512 153 492 c 1,8,9
 187 510 187 510 225.5 510 c 128,-1,10
 264 510 264 510 300 492 c 1,11,-1
 368 569 l 1,12,-1
 386 565 l 1,13,-1
 437 494 l 1,14,-1
 365 427 l 1,15,16
 386 391 386 391 386 351 c 128,-1,17
 386 311 386 311 367 278 c 1,18,-1
 441 211 l 1,19,-1
 437 194 l 1,20,-1
 366 142 l 1,21,-1
 301 212 l 1,22,23
 267 192 267 192 226.5 192 c 128,-1,24
 186 192 186 192 149 213 c 1,25,-1
 81 140 l 1,26,-1
 64 144 l 1,27,-1
 15 215 l 1,28,29
 22 220 22 220 86 278 c 1,0,1
140 351 m 128,-1,31
 140 315 140 315 165 289.5 c 128,-1,32
 190 264 190 264 226 264 c 128,-1,33
 262 264 262 264 288 289.5 c 128,-1,34
 314 315 314 315 314 351 c 128,-1,35
 314 387 314 387 288 412.5 c 128,-1,36
 262 438 262 438 226 438 c 128,-1,37
 190 438 190 438 165 412.5 c 128,-1,30
 140 387 140 387 140 351 c 128,-1,31
EndSplineSet
EndChar

StartChar: yen
Encoding: 165 165 103
Width: 568
GlyphClass: 2
Flags: W
LayerCount: 2
Fore
SplineSet
177 267 m 1,0,-1
 50 266 l 1,1,-1
 43 273 l 1,2,-1
 51 329 l 1,3,-1
 139 329 l 1,4,5
 83 427 83 427 21 444 c 1,6,-1
 21 468 l 1,7,-1
 27 505 l 1,8,9
 92 502 92 502 118.5 502 c 128,-1,10
 145 502 145 502 208.5 505 c 128,-1,11
 272 508 272 508 276 509 c 1,12,-1
 281 499 l 1,13,-1
 276 448 l 1,14,15
 247 446 247 446 238 442 c 128,-1,16
 229 438 229 438 229 428 c 128,-1,17
 229 418 229 418 245 383 c 1,18,-1
 254 360 l 1,19,-1
 301 279 l 1,20,-1
 366 408 l 2,21,22
 374 422 374 422 374 430.5 c 128,-1,23
 374 439 374 439 368.5 441 c 128,-1,24
 363 443 363 443 351.5 444 c 128,-1,25
 340 445 340 445 331 450 c 1,26,27
 332 456 332 456 332 470 c 1,28,-1
 337 505 l 1,29,-1
 453 502 l 1,30,-1
 541 505 l 1,31,-1
 545 499 l 1,32,-1
 539 444 l 1,33,34
 505 433 505 433 490 420 c 0,35,36
 472 404 472 404 428 331 c 1,37,38
 508 333 508 333 523 333 c 1,39,-1
 530 324 l 1,40,-1
 526 267 l 1,41,-1
 390 267 l 1,42,-1
 364 222 l 2,43,44
 357 211 357 211 354 195 c 1,45,46
 429 196 429 196 522 199 c 1,47,-1
 529 189 l 1,48,-1
 524 132 l 1,49,-1
 343 132 l 1,50,51
 343 80 343 80 350 70.5 c 128,-1,52
 357 61 357 61 366.5 60 c 128,-1,53
 376 59 376 59 390 59 c 2,54,-1
 424 61 l 1,55,-1
 427 55 l 1,56,-1
 419 -3 l 1,57,58
 320 0 320 0 277 0 c 1,59,-1
 140 -9 l 1,60,-1
 146 51 l 1,61,62
 193 57 193 57 206 71.5 c 128,-1,63
 219 86 219 86 221 132 c 1,64,-1
 49 131 l 1,65,-1
 42 139 l 1,66,-1
 50 195 l 1,67,-1
 213 195 l 1,68,69
 204 218 204 218 177 267 c 1,0,-1
EndSplineSet
EndChar

StartChar: brokenbar
Encoding: 166 166 104
Width: 334
GlyphClass: 2
Flags: W
LayerCount: 2
Fore
SplineSet
117 158 m 1,0,-1
 204 173 l 1,1,-1
 214 163 l 1,2,-1
 215 -258 l 1,3,-1
 128 -269 l 1,4,-1
 116 -258 l 1,5,6
 116 -4 116 -4 117 158 c 1,0,-1
117 370 m 1,7,-1
 118 796 l 1,8,-1
 204 807 l 1,9,-1
 220 796 l 1,10,11
 215 550 215 550 214 375 c 1,12,-1
 126 363 l 1,13,-1
 117 370 l 1,7,-1
EndSplineSet
EndChar

StartChar: section
Encoding: 167 167 105
Width: 500
GlyphClass: 2
Flags: W
LayerCount: 2
Fore
SplineSet
388 52 m 0,0,1
 388 -6 388 -6 332 -53 c 128,-1,2
 276 -100 276 -100 196 -100 c 0,3,4
 141 -100 141 -100 100.5 -76.5 c 128,-1,5
 60 -53 60 -53 60 -22 c 0,6,7
 60 46 60 46 87 83 c 1,8,-1
 108 82 l 1,9,10
 115 38 115 38 145 9.5 c 128,-1,11
 175 -19 175 -19 206 -19 c 128,-1,12
 237 -19 237 -19 253 -5.5 c 128,-1,13
 269 8 269 8 269 32 c 128,-1,14
 269 56 269 56 244 80 c 128,-1,15
 219 104 219 104 184 125 c 128,-1,16
 149 146 149 146 113.5 170 c 128,-1,17
 78 194 78 194 53 229.5 c 128,-1,18
 28 265 28 265 28 308 c 0,19,20
 28 390 28 390 127 451 c 1,21,22
 115 475 115 475 115 503 c 0,23,24
 115 566 115 566 165.5 610 c 128,-1,25
 216 654 216 654 289 654 c 0,26,27
 337 654 337 654 374 639 c 128,-1,28
 411 624 411 624 411 602 c 128,-1,29
 411 580 411 580 401 545 c 128,-1,30
 391 510 391 510 381 501 c 1,31,-1
 362 501 l 1,32,33
 350 531 350 531 326.5 550 c 128,-1,34
 303 569 303 569 281 569 c 128,-1,35
 259 569 259 569 246.5 556.5 c 128,-1,36
 234 544 234 544 234 522 c 128,-1,37
 234 500 234 500 258.5 475.5 c 128,-1,38
 283 451 283 451 318 429 c 128,-1,39
 353 407 353 407 388.5 382.5 c 128,-1,40
 424 358 424 358 448.5 323 c 128,-1,41
 473 288 473 288 473 247 c 128,-1,42
 473 206 473 206 447 167.5 c 128,-1,43
 421 129 421 129 377 102 c 1,44,45
 388 78 388 78 388 52 c 0,0,1
158 408 m 1,46,47
 132 384 132 384 132 352.5 c 128,-1,48
 132 321 132 321 155.5 293.5 c 128,-1,49
 179 266 179 266 209 247 c 0,50,51
 310 183 310 183 342 151 c 1,52,53
 365 176 365 176 365 206 c 128,-1,54
 365 236 365 236 342 263.5 c 128,-1,55
 319 291 319 291 290 310 c 0,56,57
 186 379 186 379 158 408 c 1,46,47
EndSplineSet
EndChar

StartChar: dieresis
Encoding: 168 168 106
Width: 398
GlyphClass: 2
Flags: W
LayerCount: 2
Fore
SplineSet
332.5 582 m 128,-1,1
 314 563 314 563 284.5 563 c 128,-1,2
 255 563 255 563 239.5 579.5 c 128,-1,3
 224 596 224 596 224 624.5 c 128,-1,4
 224 653 224 653 242.5 672 c 128,-1,5
 261 691 261 691 290.5 691 c 128,-1,6
 320 691 320 691 335.5 674.5 c 128,-1,7
 351 658 351 658 351 629.5 c 128,-1,0
 351 601 351 601 332.5 582 c 128,-1,1
154.5 581.5 m 128,-1,9
 136 563 136 563 106.5 563 c 128,-1,10
 77 563 77 563 61.5 579.5 c 128,-1,11
 46 596 46 596 46 624.5 c 128,-1,12
 46 653 46 653 64.5 672 c 128,-1,13
 83 691 83 691 112 691 c 128,-1,14
 141 691 141 691 157 674 c 128,-1,15
 173 657 173 657 173 628.5 c 128,-1,8
 173 600 173 600 154.5 581.5 c 128,-1,9
EndSplineSet
EndChar

StartChar: copyright
Encoding: 169 169 107
Width: 696
GlyphClass: 2
Flags: W
LayerCount: 2
Fore
SplineSet
456 148 m 1,0,1
 403 129 403 129 333 129 c 128,-1,2
 263 129 263 129 223 172.5 c 128,-1,3
 183 216 183 216 183 293 c 128,-1,4
 183 370 183 370 231 417 c 128,-1,5
 279 464 279 464 364 464 c 0,6,7
 409 464 409 464 470 451 c 1,8,-1
 473 444 l 1,9,10
 462 401 462 401 459 343 c 1,11,-1
 398 340 l 1,12,13
 399 353 399 353 399 366 c 0,14,15
 399 407 399 407 350 407 c 0,16,17
 281 407 281 407 281 306 c 0,18,19
 281 186 281 186 353 186 c 0,20,21
 379 186 379 186 393 201.5 c 128,-1,22
 407 217 407 217 411 251 c 1,23,-1
 470 256 l 1,24,25
 462 200 462 200 462 156 c 1,26,-1
 456 148 l 1,0,1
43 293 m 128,-1,28
 43 419 43 419 132 508.5 c 128,-1,29
 221 598 221 598 347.5 598 c 128,-1,30
 474 598 474 598 563 508.5 c 128,-1,31
 652 419 652 419 652 293 c 128,-1,32
 652 167 652 167 563 77.5 c 128,-1,33
 474 -12 474 -12 347.5 -12 c 128,-1,34
 221 -12 221 -12 132 77.5 c 128,-1,27
 43 167 43 167 43 293 c 128,-1,28
94 293 m 128,-1,36
 94 187 94 187 168 112 c 128,-1,37
 242 37 242 37 347.5 37 c 128,-1,38
 453 37 453 37 527.5 112 c 128,-1,39
 602 187 602 187 602 293 c 128,-1,40
 602 399 602 399 527.5 474 c 128,-1,41
 453 549 453 549 347.5 549 c 128,-1,42
 242 549 242 549 168 474 c 128,-1,35
 94 399 94 399 94 293 c 128,-1,36
EndSplineSet
EndChar

StartChar: ordfeminine
Encoding: 170 170 108
Width: 341
GlyphClass: 2
Flags: W
LayerCount: 2
Fore
SplineSet
295 409 m 0,0,1
 306 409 306 409 324 418 c 1,2,-1
 334 402 l 1,3,4
 298 340 298 340 267 331 c 1,5,6
 202 331 202 331 197 381 c 1,7,-1
 190 383 l 1,8,9
 141 334 141 334 116 334 c 0,10,11
 77 334 77 334 50 363.5 c 128,-1,12
 23 393 23 393 23 436 c 0,13,14
 23 456 23 456 34 471.5 c 128,-1,15
 45 487 45 487 63 491 c 2,16,-1
 192 517 l 1,17,-1
 192 526 l 2,18,19
 192 551 192 551 177.5 565.5 c 128,-1,20
 163 580 163 580 142 580 c 0,21,22
 102 580 102 580 70 558 c 1,23,-1
 59 551 l 1,24,-1
 53 554 l 1,25,-1
 39 598 l 1,26,27
 135 650 135 650 167 650 c 0,28,29
 229 650 229 650 258 624.5 c 128,-1,30
 287 599 287 599 287 559 c 1,31,-1
 274 434 l 1,32,33
 274 409 274 409 295 409 c 0,0,1
130 462 m 2,34,35
 116 458 116 458 116 442.5 c 128,-1,36
 116 427 116 427 125 416.5 c 128,-1,37
 134 406 134 406 151 406 c 128,-1,38
 168 406 168 406 189 418 c 1,39,-1
 191 477 l 1,40,-1
 130 462 l 2,34,35
EndSplineSet
EndChar

StartChar: guillemotleft
Encoding: 171 171 109
Width: 451
GlyphClass: 2
Flags: W
LayerCount: 2
Fore
SplineSet
321 229 m 1,0,1
 321 226 321 226 410 85 c 1,2,-1
 406 69 l 1,3,-1
 365 44 l 1,4,5
 301 116 301 116 200 215 c 1,6,-1
 200 236 l 1,7,8
 292 328 292 328 365 411 c 1,9,-1
 406 386 l 1,10,-1
 410 370 l 1,11,12
 396 349 396 349 321 229 c 1,0,1
136 229 m 1,13,14
 136 226 136 226 225 85 c 1,15,-1
 221 69 l 1,16,-1
 180 44 l 1,17,18
 116 116 116 116 15 215 c 1,19,-1
 15 236 l 1,20,21
 107 328 107 328 180 411 c 1,22,-1
 221 386 l 1,23,-1
 225 370 l 1,24,25
 211 349 211 349 136 229 c 1,13,14
EndSplineSet
EndChar

StartChar: logicalnot
Encoding: 172 172 110
Width: 506
GlyphClass: 2
Flags: W
LayerCount: 2
Fore
SplineSet
349 222 m 1,0,-1
 252 222 l 1,1,-1
 24 221 l 1,2,-1
 17 231 l 1,3,-1
 31 322 l 1,4,5
 176 321 176 321 265 321 c 1,6,-1
 452 327 l 1,7,-1
 459 314 l 1,8,9
 450 244 450 244 449 171 c 1,10,-1
 450 35 l 1,11,-1
 359 21 l 1,12,-1
 348 28 l 1,13,14
 349 130 349 130 349 222 c 1,0,-1
EndSplineSet
EndChar

StartChar: registered
Encoding: 174 174 111
Width: 468
GlyphClass: 2
Flags: W
LayerCount: 2
Fore
SplineSet
30 507 m 128,-1,1
 30 592 30 592 89.5 651.5 c 128,-1,2
 149 711 149 711 234 711 c 128,-1,3
 319 711 319 711 378.5 651.5 c 128,-1,4
 438 592 438 592 438 507 c 128,-1,5
 438 422 438 422 378.5 362.5 c 128,-1,6
 319 303 319 303 234 303 c 128,-1,7
 149 303 149 303 89.5 362.5 c 128,-1,0
 30 422 30 422 30 507 c 128,-1,1
68 507 m 128,-1,9
 68 439 68 439 117 390 c 128,-1,10
 166 341 166 341 234 341 c 128,-1,11
 302 341 302 341 351 390 c 128,-1,12
 400 439 400 439 400 507 c 128,-1,13
 400 575 400 575 351 624 c 128,-1,14
 302 673 302 673 234 673 c 128,-1,15
 166 673 166 673 117 624 c 128,-1,8
 68 575 68 575 68 507 c 128,-1,9
142 618 m 1,16,-1
 185 617 l 1,17,-1
 196 617 l 1,18,19
 218 619 218 619 231 619 c 0,20,21
 317 619 317 619 317 563 c 0,22,23
 317 525 317 525 275 502 c 1,24,-1
 299 464 l 2,25,26
 317 435 317 435 335 434 c 1,27,-1
 337 431 l 1,28,29
 336 417 336 417 331 413.5 c 128,-1,30
 326 410 326 410 304.5 409.5 c 128,-1,31
 283 409 283 409 274 415 c 128,-1,32
 265 421 265 421 257 439 c 2,33,-1
 232 490 l 1,34,-1
 211 490 l 1,35,-1
 211 463 l 2,36,37
 211 446 211 446 214.5 442 c 128,-1,38
 218 438 218 438 234 438 c 1,39,-1
 236 435 l 1,40,-1
 233 413 l 1,41,42
 208 415 208 415 194 415 c 2,43,-1
 182 415 l 1,44,-1
 137 412 l 1,45,-1
 140 436 l 1,46,47
 154 438 154 438 158 444.5 c 128,-1,48
 162 451 162 451 162 469 c 2,49,-1
 162 576 l 2,50,51
 162 594 162 594 152 594 c 2,52,-1
 141 594 l 1,53,-1
 139 597 l 1,54,-1
 142 618 l 1,16,-1
212 522 m 1,55,-1
 239 520 l 1,56,57
 264 529 264 529 264 556 c 0,58,59
 264 588 264 588 220 588 c 0,60,61
 215 588 215 588 215 580 c 2,62,-1
 212 522 l 1,55,-1
EndSplineSet
EndChar

StartChar: macron
Encoding: 175 175 112
Width: 398
GlyphClass: 2
Flags: W
LayerCount: 2
Fore
SplineSet
345 672 m 1,0,-1
 353 658 l 1,1,-1
 341 582 l 1,2,-1
 61 580 l 1,3,-1
 50 591 l 1,4,-1
 64 667 l 1,5,6
 159 666 159 666 218 666 c 1,7,-1
 345 672 l 1,0,-1
EndSplineSet
EndChar

StartChar: degree
Encoding: 176 176 113
Width: 302
GlyphClass: 2
Flags: W
LayerCount: 2
Fore
SplineSet
59 431 m 128,-1,1
 21 469 21 469 21 523.5 c 128,-1,2
 21 578 21 578 59 616 c 128,-1,3
 97 654 97 654 151 654 c 128,-1,4
 205 654 205 654 243 616 c 128,-1,5
 281 578 281 578 281 523.5 c 128,-1,6
 281 469 281 469 243 431 c 128,-1,7
 205 393 205 393 151 393 c 128,-1,0
 97 393 97 393 59 431 c 128,-1,1
79 523 m 128,-1,9
 79 492 79 492 99.5 471.5 c 128,-1,10
 120 451 120 451 151 451 c 128,-1,11
 182 451 182 451 202.5 471.5 c 128,-1,12
 223 492 223 492 223 523 c 128,-1,13
 223 554 223 554 202.5 575 c 128,-1,14
 182 596 182 596 151 596 c 128,-1,15
 120 596 120 596 99.5 575 c 128,-1,8
 79 554 79 554 79 523 c 128,-1,9
EndSplineSet
EndChar

StartChar: plusminus
Encoding: 177 177 114
Width: 506
GlyphClass: 2
Flags: W
LayerCount: 2
Fore
SplineSet
479 225 m 1,0,-1
 299 224 l 1,1,-1
 300 61 l 1,2,-1
 212 47 l 1,3,-1
 201 54 l 1,4,5
 201 143 201 143 202 224 c 1,6,-1
 24 223 l 1,7,-1
 17 234 l 1,8,-1
 31 325 l 1,9,10
 121 324 121 324 202 324 c 1,11,-1
 203 498 l 1,12,-1
 292 509 l 1,13,-1
 305 502 l 1,14,15
 300 401 300 401 299 324 c 1,16,-1
 482 330 l 1,17,-1
 489 317 l 1,18,-1
 479 225 l 1,0,-1
470 -97 m 1,19,-1
 33 -99 l 1,20,-1
 24 -85 l 1,21,-1
 35 -9 l 1,22,-1
 267 -9 l 2,23,24
 473 -9 473 -9 473 -5 c 1,25,-1
 481 -20 l 1,26,-1
 470 -97 l 1,19,-1
EndSplineSet
EndChar

StartChar: two.sups
Encoding: 178 178 115
Width: 352
GlyphClass: 2
Flags: W
LayerCount: 2
Fore
SplineSet
179 603 m 0,0,1
 179 641 179 641 135 641 c 128,-1,2
 91 641 91 641 51 587 c 1,3,-1
 41 587 l 1,4,-1
 28 650 l 1,5,6
 52 685 52 685 90.5 706.5 c 128,-1,7
 129 728 129 728 175 728 c 128,-1,8
 221 728 221 728 254 702.5 c 128,-1,9
 287 677 287 677 287 635 c 128,-1,10
 287 593 287 593 257.5 544.5 c 128,-1,11
 228 496 228 496 154 416 c 1,12,-1
 157 410 l 1,13,-1
 214 410 l 2,14,15
 243 410 243 410 255.5 422.5 c 128,-1,16
 268 435 268 435 273 469 c 1,17,-1
 334 474 l 1,18,19
 320 397 320 397 316 342 c 1,20,-1
 305 333 l 1,21,22
 148 339 148 339 83 339 c 1,23,-1
 28 334 l 1,24,-1
 22 382 l 1,25,-1
 103 469 l 1,26,27
 179 559 179 559 179 603 c 0,0,1
EndSplineSet
EndChar

StartChar: three.sups
Encoding: 179 179 116
Width: 310
GlyphClass: 2
Flags: W
LayerCount: 2
Fore
SplineSet
34 419 m 1,0,1
 61 408 61 408 94.5 408 c 128,-1,2
 128 408 128 408 150.5 422 c 128,-1,3
 173 436 173 436 173 458 c 0,4,5
 173 503 173 503 84 503 c 1,6,-1
 77 511 l 1,7,-1
 71 559 l 1,8,-1
 115 568 l 1,9,10
 160 588 160 588 160 624 c 0,11,12
 160 638 160 638 150 647 c 128,-1,13
 140 656 140 656 124 656 c 0,14,15
 91 656 91 656 52 628 c 1,16,-1
 44 628 l 1,17,-1
 27 683 l 1,18,19
 50 699 50 699 88 713.5 c 128,-1,20
 126 728 126 728 164.5 728 c 128,-1,21
 203 728 203 728 231.5 706.5 c 128,-1,22
 260 685 260 685 260 653 c 128,-1,23
 260 621 260 621 240.5 597.5 c 128,-1,24
 221 574 221 574 187 562 c 1,25,-1
 187 555 l 1,26,27
 279 526 279 526 279 461 c 0,28,29
 279 413 279 413 217.5 372 c 128,-1,30
 156 331 156 331 81 331 c 0,31,32
 51 331 51 331 38 348 c 128,-1,33
 25 365 25 365 22 407 c 1,34,-1
 34 419 l 1,0,1
EndSplineSet
EndChar

StartChar: acute
Encoding: 180 180 117
Width: 398
GlyphClass: 2
Flags: W
LayerCount: 2
Fore
SplineSet
350 666 m 1,0,-1
 349 652 l 1,1,2
 253 592 253 592 160 523 c 1,3,-1
 145 527 l 1,4,-1
 115 566 l 1,5,6
 219 670 219 670 282 737 c 1,7,-1
 296 736 l 1,8,-1
 350 666 l 1,0,-1
EndSplineSet
EndChar

StartChar: mu
Encoding: 181 181 118
AltUni2: 0003bc.ffffffff.0
Width: 532
GlyphClass: 2
Flags: W
LayerCount: 2
Fore
SplineSet
472 92 m 0,0,1
 494 92 494 92 519 109 c 1,2,-1
 534 88 l 1,3,4
 516 58 516 58 483.5 25.5 c 128,-1,5
 451 -7 451 -7 430 -12 c 1,6,7
 336 -12 336 -12 328 63 c 1,8,-1
 320 67 l 1,9,10
 253 -5 253 -5 216 -11 c 1,11,12
 184 -11 184 -11 162 6 c 1,13,-1
 157 3 l 1,14,-1
 156 -56 l 1,15,-1
 156 -91 l 1,16,-1
 163 -213 l 1,17,-1
 156 -222 l 1,18,-1
 47 -242 l 1,19,-1
 36 -229 l 1,20,21
 49 -88 49 -88 54 73 c 2,22,-1
 61 327 l 1,23,24
 61 381 61 381 52 433 c 1,25,-1
 59 450 l 1,26,27
 152 463 152 463 192 474 c 1,28,-1
 201 457 l 1,29,30
 191 433 191 433 182.5 349.5 c 128,-1,31
 174 266 174 266 174 180 c 128,-1,32
 174 94 174 94 238 94 c 0,33,34
 268 94 268 94 319 131 c 1,35,-1
 319 335 l 2,36,37
 319 376 319 376 309 432 c 1,38,-1
 316 449 l 1,39,40
 408 463 408 463 454 472 c 1,41,-1
 464 455 l 1,42,43
 453 432 453 432 445 339 c 128,-1,44
 437 246 437 246 437 133 c 0,45,46
 437 92 437 92 472 92 c 0,0,1
EndSplineSet
EndChar

StartChar: paragraph
Encoding: 182 182 119
Width: 567
GlyphClass: 2
Flags: W
LayerCount: 2
Fore
SplineSet
251 646 m 1,0,-1
 395 642 l 1,1,-1
 539 645 l 1,2,-1
 533 583 l 1,3,-1
 531 579 l 1,4,5
 494 576 494 576 482 567.5 c 128,-1,6
 470 559 470 559 468 533 c 1,7,8
 456 446 456 446 456 171 c 0,9,10
 456 50 456 50 396 -25 c 128,-1,11
 336 -100 336 -100 225 -100 c 0,12,13
 168 -100 168 -100 126.5 -73 c 128,-1,14
 85 -46 85 -46 85 -3 c 0,15,16
 85 20 85 20 97.5 52 c 128,-1,17
 110 84 110 84 127 105 c 1,18,-1
 143 105 l 1,19,20
 146 44 146 44 172.5 10 c 128,-1,21
 199 -24 199 -24 245.5 -24 c 128,-1,22
 292 -24 292 -24 311 8 c 128,-1,23
 330 40 330 40 330 121 c 2,24,-1
 330 562 l 2,25,26
 330 572 330 572 325.5 574.5 c 128,-1,27
 321 577 321 577 303 577 c 0,28,29
 264 577 264 577 244 539 c 128,-1,30
 224 501 224 501 224 434.5 c 128,-1,31
 224 368 224 368 238.5 322.5 c 128,-1,32
 253 277 253 277 288 229 c 1,33,-1
 288 205 l 1,34,35
 171 210 171 210 97.5 269.5 c 128,-1,36
 24 329 24 329 24 427 c 128,-1,37
 24 525 24 525 87 585.5 c 128,-1,38
 150 646 150 646 251 646 c 1,0,-1
EndSplineSet
EndChar

StartChar: periodcentered
Encoding: 183 183 120
Width: 238
GlyphClass: 2
Flags: W
LayerCount: 2
Fore
SplineSet
116 161 m 128,-1,1
 79 161 79 161 60 181.5 c 128,-1,2
 41 202 41 202 41 237.5 c 128,-1,3
 41 273 41 273 63 296 c 128,-1,4
 85 319 85 319 121 319 c 128,-1,5
 157 319 157 319 177 298 c 128,-1,6
 197 277 197 277 197 242 c 128,-1,7
 197 207 197 207 175 184 c 128,-1,0
 153 161 153 161 116 161 c 128,-1,1
EndSplineSet
EndChar

StartChar: cedilla
Encoding: 184 184 121
Width: 398
GlyphClass: 2
Flags: W
LayerCount: 2
Fore
SplineSet
300 -141 m 0,0,1
 300 -180 300 -180 259.5 -208.5 c 128,-1,2
 219 -237 219 -237 167 -237 c 0,3,4
 139 -237 139 -237 114 -225 c 128,-1,5
 89 -213 89 -213 89 -194 c 128,-1,6
 89 -175 89 -175 126 -131 c 1,7,-1
 135 -131 l 1,8,9
 136 -158 136 -158 150 -172.5 c 128,-1,10
 164 -187 164 -187 184 -187 c 128,-1,11
 204 -187 204 -187 215.5 -178.5 c 128,-1,12
 227 -170 227 -170 227 -157 c 0,13,14
 227 -131 227 -131 141 -86 c 1,15,-1
 173 29 l 1,16,-1
 225 29 l 1,17,-1
 204 -44 l 1,18,19
 231 -60 231 -60 247.5 -70.5 c 128,-1,20
 264 -81 264 -81 282 -101.5 c 128,-1,21
 300 -122 300 -122 300 -141 c 0,0,1
EndSplineSet
EndChar

StartChar: one.sups
Encoding: 185 185 122
Width: 265
GlyphClass: 2
Flags: W
LayerCount: 2
Fore
SplineSet
182 431 m 0,0,1
 182 388 182 388 211 388 c 2,2,-1
 241 389 l 1,3,-1
 244 386 l 1,4,-1
 235 337 l 1,5,6
 171 339 171 339 137 339 c 1,7,-1
 25 332 l 1,8,-1
 30 379 l 1,9,10
 61 381 61 381 75 391.5 c 128,-1,11
 89 402 89 402 89 426 c 2,12,-1
 89 623 l 2,13,14
 89 646 89 646 82.5 653 c 128,-1,15
 76 660 76 660 57 660 c 1,16,-1
 24 658 l 1,17,-1
 20 662 l 1,18,-1
 24 705 l 1,19,20
 104 714 104 714 144 719.5 c 128,-1,21
 184 725 184 725 207 728 c 1,22,-1
 216 705 l 1,23,24
 195 688 195 688 190 656 c 0,25,26
 182 594 182 594 182 431 c 0,0,1
EndSplineSet
EndChar

StartChar: ordmasculine
Encoding: 186 186 123
Width: 354
GlyphClass: 2
Flags: W
LayerCount: 2
Fore
SplineSet
287 377 m 128,-1,1
 243 331 243 331 172.5 331 c 128,-1,2
 102 331 102 331 62.5 372 c 128,-1,3
 23 413 23 413 23 486 c 128,-1,4
 23 559 23 559 67.5 604.5 c 128,-1,5
 112 650 112 650 183.5 650 c 128,-1,6
 255 650 255 650 293 610 c 128,-1,7
 331 570 331 570 331 496.5 c 128,-1,0
 331 423 331 423 287 377 c 128,-1,1
180 390 m 0,8,9
 226 390 226 390 226 466 c 0,10,11
 226 585 226 585 173 585 c 0,12,13
 127 585 127 585 127 509 c 0,14,15
 127 390 127 390 180 390 c 0,8,9
EndSplineSet
EndChar

StartChar: guillemotright
Encoding: 187 187 124
Width: 451
GlyphClass: 2
Flags: W
LayerCount: 2
Fore
SplineSet
271 44 m 1,0,-1
 230 69 l 1,1,-1
 226 85 l 1,2,3
 262 141 262 141 314 226 c 1,4,5
 248 334 248 334 226 369 c 1,6,-1
 230 385 l 1,7,-1
 271 411 l 1,8,9
 335 339 335 339 435 239 c 1,10,-1
 435 219 l 1,11,12
 343 127 343 127 271 44 c 1,0,-1
86 44 m 1,13,-1
 45 69 l 1,14,-1
 41 85 l 1,15,16
 77 141 77 141 129 226 c 1,17,18
 63 334 63 334 41 369 c 1,19,-1
 45 385 l 1,20,-1
 86 411 l 1,21,22
 150 339 150 339 250 239 c 1,23,-1
 250 219 l 1,24,25
 158 127 158 127 86 44 c 1,13,-1
EndSplineSet
EndChar

StartChar: onequarter
Encoding: 188 188 125
Width: 762
GlyphClass: 2
Flags: W
LayerCount: 2
Fore
SplineSet
182 352 m 0,0,1
 182 309 182 309 211 309 c 1,2,-1
 241 311 l 1,3,-1
 244 307 l 1,4,-1
 235 258 l 1,5,6
 171 261 171 261 137 261 c 1,7,-1
 25 254 l 1,8,-1
 30 300 l 1,9,10
 61 302 61 302 75 313 c 128,-1,11
 89 324 89 324 89 347 c 2,12,-1
 89 544 l 2,13,14
 89 567 89 567 82.5 574 c 128,-1,15
 76 581 76 581 57 581 c 1,16,-1
 24 579 l 1,17,-1
 20 584 l 1,18,-1
 24 626 l 1,19,20
 104 635 104 635 144 640.5 c 128,-1,21
 184 646 184 646 207 649 c 1,22,-1
 216 626 l 1,23,24
 195 611 195 611 190 577 c 0,25,26
 182 515 182 515 182 352 c 0,0,1
626 653 m 1,27,-1
 633 634 l 1,28,29
 457 367 457 367 367 227 c 1,30,-1
 165 -93 l 1,31,-1
 100 -66 l 1,32,-1
 95 -52 l 1,33,34
 216 128 216 128 302 264 c 2,35,-1
 564 678 l 1,36,-1
 626 653 l 1,27,-1
682 160 m 1,37,-1
 732 160 l 1,38,-1
 739 152 l 1,39,-1
 732 90 l 1,40,-1
 683 91 l 1,41,-1
 687 7 l 1,42,-1
 680 0 l 1,43,-1
 590 -7 l 1,44,-1
 585 -1 l 1,45,46
 588 49 588 49 589 94 c 1,47,-1
 434 96 l 1,48,-1
 436 149 l 1,49,-1
 606 387 l 1,50,-1
 611 389 l 1,51,-1
 682 381 l 1,52,-1
 682 160 l 1,37,-1
589 160 m 1,53,-1
 589 264 l 1,54,-1
 582 264 l 1,55,-1
 511 160 l 1,56,-1
 589 160 l 1,53,-1
EndSplineSet
EndChar

StartChar: onehalf
Encoding: 189 189 126
Width: 792
GlyphClass: 2
Flags: W
LayerCount: 2
Fore
SplineSet
182 352 m 0,0,1
 182 309 182 309 211 309 c 1,2,-1
 241 311 l 1,3,-1
 244 307 l 1,4,-1
 235 258 l 1,5,6
 171 261 171 261 137 261 c 1,7,-1
 25 254 l 1,8,-1
 30 300 l 1,9,10
 61 302 61 302 75 313 c 128,-1,11
 89 324 89 324 89 347 c 2,12,-1
 89 544 l 2,13,14
 89 567 89 567 82.5 574 c 128,-1,15
 76 581 76 581 57 581 c 1,16,-1
 24 579 l 1,17,-1
 20 584 l 1,18,-1
 24 626 l 1,19,20
 104 635 104 635 144 640.5 c 128,-1,21
 184 646 184 646 207 649 c 1,22,-1
 216 626 l 1,23,24
 195 611 195 611 190 577 c 0,25,26
 182 515 182 515 182 352 c 0,0,1
626 653 m 1,27,-1
 633 634 l 1,28,29
 457 367 457 367 367 227 c 1,30,-1
 165 -93 l 1,31,-1
 100 -66 l 1,32,-1
 95 -52 l 1,33,34
 216 128 216 128 302 264 c 2,35,-1
 564 678 l 1,36,-1
 626 653 l 1,27,-1
619 264 m 0,37,38
 619 301 619 301 574.5 301 c 128,-1,39
 530 301 530 301 491 248 c 1,40,-1
 481 248 l 1,41,-1
 468 310 l 1,42,43
 492 345 492 345 530.5 367 c 128,-1,44
 569 389 569 389 615 389 c 128,-1,45
 661 389 661 389 694 363 c 128,-1,46
 727 337 727 337 727 295.5 c 128,-1,47
 727 254 727 254 697.5 205 c 128,-1,48
 668 156 668 156 594 76 c 1,49,-1
 597 71 l 1,50,-1
 654 71 l 2,51,52
 683 71 683 71 695.5 83.5 c 128,-1,53
 708 96 708 96 713 130 c 1,54,-1
 774 135 l 1,55,56
 760 58 760 58 756 3 c 1,57,-1
 745 -6 l 1,58,59
 588 0 588 0 523 0 c 1,60,-1
 468 -6 l 1,61,-1
 462 42 l 1,62,-1
 543 129 l 1,63,64
 619 219 619 219 619 264 c 0,37,38
EndSplineSet
EndChar

StartChar: threequarters
Encoding: 190 190 127
Width: 762
GlyphClass: 2
Flags: W
LayerCount: 2
Fore
SplineSet
34 340 m 1,0,1
 61 329 61 329 94.5 329 c 128,-1,2
 128 329 128 329 150.5 343 c 128,-1,3
 173 357 173 357 173 379 c 0,4,5
 173 424 173 424 84 424 c 1,6,-1
 77 432 l 1,7,-1
 71 480 l 1,8,-1
 115 489 l 1,9,10
 160 509 160 509 160 545 c 0,11,12
 160 559 160 559 150 568 c 128,-1,13
 140 577 140 577 124 577 c 0,14,15
 92 577 92 577 52 550 c 1,16,-1
 44 550 l 1,17,-1
 27 604 l 1,18,19
 50 620 50 620 88 634.5 c 128,-1,20
 126 649 126 649 164.5 649 c 128,-1,21
 203 649 203 649 231.5 627.5 c 128,-1,22
 260 606 260 606 260 574.5 c 128,-1,23
 260 543 260 543 240.5 519.5 c 128,-1,24
 221 496 221 496 187 483 c 1,25,-1
 187 476 l 1,26,27
 279 448 279 448 279 382 c 0,28,29
 279 334 279 334 217.5 293.5 c 128,-1,30
 156 253 156 253 81 253 c 0,31,32
 51 253 51 253 38 270 c 128,-1,33
 25 287 25 287 22 328 c 1,34,-1
 34 340 l 1,0,1
626 653 m 1,35,-1
 633 634 l 1,36,37
 457 367 457 367 367 227 c 1,38,-1
 165 -93 l 1,39,-1
 100 -66 l 1,40,-1
 95 -52 l 1,41,42
 216 128 216 128 302 264 c 2,43,-1
 564 678 l 1,44,-1
 626 653 l 1,35,-1
682 160 m 1,45,-1
 732 160 l 1,46,-1
 739 152 l 1,47,-1
 732 90 l 1,48,-1
 683 91 l 1,49,-1
 687 7 l 1,50,-1
 680 0 l 1,51,-1
 590 -7 l 1,52,-1
 585 -1 l 1,53,54
 588 49 588 49 589 94 c 1,55,-1
 434 96 l 1,56,-1
 436 149 l 1,57,-1
 606 387 l 1,58,-1
 611 389 l 1,59,-1
 682 381 l 1,60,-1
 682 160 l 1,45,-1
589 160 m 1,61,-1
 589 264 l 1,62,-1
 582 264 l 1,63,-1
 511 160 l 1,64,-1
 589 160 l 1,61,-1
EndSplineSet
EndChar

StartChar: questiondown
Encoding: 191 191 128
Width: 370
GlyphClass: 2
Flags: W
LayerCount: 2
Fore
SplineSet
182 39 m 1,0,1
 130 7 130 7 130 -36.5 c 128,-1,2
 130 -80 130 -80 178.5 -106 c 128,-1,3
 227 -132 227 -132 313 -137 c 1,4,-1
 321 -151 l 1,5,-1
 284 -235 l 1,6,-1
 269 -242 l 1,7,8
 159 -239 159 -239 84.5 -189.5 c 128,-1,9
 10 -140 10 -140 10 -68 c 0,10,11
 10 -7 10 -7 49 32 c 0,12,13
 71 55 71 55 91 70 c 128,-1,14
 111 85 111 85 134 101 c 128,-1,15
 157 117 157 117 160 119 c 128,-1,16
 163 121 163 121 167 124 c 128,-1,17
 171 127 171 127 175 129 c 1,18,-1
 178 136 l 1,19,-1
 163 219 l 1,20,-1
 169 230 l 1,21,-1
 257 248 l 1,22,-1
 269 242 l 1,23,-1
 293 116 l 1,24,-1
 290 102 l 1,25,-1
 182 39 l 1,0,1
159 451 m 128,-1,27
 181 474 181 474 217.5 474 c 128,-1,28
 254 474 254 474 273.5 453.5 c 128,-1,29
 293 433 293 433 293 397.5 c 128,-1,30
 293 362 293 362 270.5 339 c 128,-1,31
 248 316 248 316 212 316 c 128,-1,32
 176 316 176 316 156.5 336.5 c 128,-1,33
 137 357 137 357 137 392.5 c 128,-1,26
 137 428 137 428 159 451 c 128,-1,27
EndSplineSet
EndChar

StartChar: Agrave
Encoding: 192 192 129
Width: 625
GlyphClass: 2
Flags: W
LayerCount: 2
Fore
SplineSet
627 -3 m 1,0,1
 548 0 548 0 507 0 c 0,2,3
 427 0 427 0 335 -8 c 1,4,-1
 329 0 l 1,5,-1
 334 60 l 1,6,7
 383 64 383 64 397 71 c 128,-1,8
 411 78 411 78 411 92.5 c 128,-1,9
 411 107 411 107 406 130 c 1,10,-1
 386 206 l 1,11,12
 360 207 360 207 308 207 c 128,-1,13
 256 207 256 207 200 200 c 1,14,-1
 175 125 l 2,15,16
 169 104 169 104 169 90.5 c 128,-1,17
 169 77 169 77 179 70.5 c 128,-1,18
 189 64 189 64 215 64 c 2,19,-1
 258 64 l 1,20,-1
 262 57 l 1,21,-1
 255 -6 l 1,22,23
 173 0 173 0 109 0 c 1,24,-1
 -12 -3 l 1,25,-1
 -4 64 l 1,26,27
 20 68 20 68 34.5 82.5 c 128,-1,28
 49 97 49 97 61 130 c 2,29,-1
 239 637 l 1,30,-1
 398 653 l 1,31,-1
 409 648 l 1,32,33
 499 301 499 301 552 132 c 0,34,35
 563 96 563 96 580 81 c 128,-1,36
 597 66 597 66 630 63 c 1,37,-1
 634 56 l 1,38,-1
 627 -3 l 1,0,1
294 286 m 2,39,40
 326 286 326 286 368 290 c 1,41,-1
 310 510 l 1,42,-1
 296 510 l 1,43,-1
 224 286 l 1,44,-1
 294 286 l 2,39,40
169 762 m 1,45,-1
 164 775 l 1,46,-1
 190 852 l 1,47,-1
 202 857 l 1,48,49
 317 800 317 800 425 753 c 1,50,-1
 412 706 l 1,51,-1
 398 697 l 1,52,53
 276 735 276 735 169 762 c 1,45,-1
EndSplineSet
EndChar

StartChar: Aacute
Encoding: 193 193 130
Width: 625
GlyphClass: 2
Flags: W
LayerCount: 2
Fore
SplineSet
627 -3 m 1,0,1
 548 0 548 0 507 0 c 0,2,3
 427 0 427 0 335 -8 c 1,4,-1
 329 0 l 1,5,-1
 334 60 l 1,6,7
 383 64 383 64 397 71 c 128,-1,8
 411 78 411 78 411 92.5 c 128,-1,9
 411 107 411 107 406 130 c 1,10,-1
 386 206 l 1,11,12
 360 207 360 207 308 207 c 128,-1,13
 256 207 256 207 200 200 c 1,14,-1
 175 125 l 2,15,16
 169 104 169 104 169 90.5 c 128,-1,17
 169 77 169 77 179 70.5 c 128,-1,18
 189 64 189 64 215 64 c 2,19,-1
 258 64 l 1,20,-1
 262 57 l 1,21,-1
 255 -6 l 1,22,23
 173 0 173 0 109 0 c 1,24,-1
 -12 -3 l 1,25,-1
 -4 64 l 1,26,27
 20 68 20 68 34.5 82.5 c 128,-1,28
 49 97 49 97 61 130 c 2,29,-1
 239 637 l 1,30,-1
 398 653 l 1,31,-1
 409 648 l 1,32,33
 499 301 499 301 552 132 c 0,34,35
 563 96 563 96 580 81 c 128,-1,36
 597 66 597 66 630 63 c 1,37,-1
 634 56 l 1,38,-1
 627 -3 l 1,0,1
294 286 m 2,39,40
 326 286 326 286 368 290 c 1,41,-1
 310 510 l 1,42,-1
 296 510 l 1,43,-1
 224 286 l 1,44,-1
 294 286 l 2,39,40
491 775 m 1,45,-1
 485 762 l 1,46,47
 370 733 370 733 256 697 c 1,48,-1
 243 706 l 1,49,-1
 230 753 l 1,50,-1
 453 857 l 1,51,-1
 465 852 l 1,52,-1
 491 775 l 1,45,-1
EndSplineSet
EndChar

StartChar: Acircumflex
Encoding: 194 194 131
Width: 625
GlyphClass: 2
Flags: W
LayerCount: 2
Fore
SplineSet
627 -3 m 1,0,1
 548 0 548 0 507 0 c 0,2,3
 427 0 427 0 335 -8 c 1,4,-1
 329 0 l 1,5,-1
 334 60 l 1,6,7
 383 64 383 64 397 71 c 128,-1,8
 411 78 411 78 411 92.5 c 128,-1,9
 411 107 411 107 406 130 c 1,10,-1
 386 206 l 1,11,12
 360 207 360 207 308 207 c 128,-1,13
 256 207 256 207 200 200 c 1,14,-1
 175 125 l 2,15,16
 169 104 169 104 169 90.5 c 128,-1,17
 169 77 169 77 179 70.5 c 128,-1,18
 189 64 189 64 215 64 c 2,19,-1
 258 64 l 1,20,-1
 262 57 l 1,21,-1
 255 -6 l 1,22,23
 173 0 173 0 109 0 c 1,24,-1
 -12 -3 l 1,25,-1
 -4 64 l 1,26,27
 20 68 20 68 34.5 82.5 c 128,-1,28
 49 97 49 97 61 130 c 2,29,-1
 239 637 l 1,30,-1
 398 653 l 1,31,-1
 409 648 l 1,32,33
 499 301 499 301 552 132 c 0,34,35
 563 96 563 96 580 81 c 128,-1,36
 597 66 597 66 630 63 c 1,37,-1
 634 56 l 1,38,-1
 627 -3 l 1,0,1
294 286 m 2,39,40
 326 286 326 286 368 290 c 1,41,-1
 310 510 l 1,42,-1
 296 510 l 1,43,-1
 224 286 l 1,44,-1
 294 286 l 2,39,40
328 876 m 1,45,46
 328 877 328 877 391 826.5 c 128,-1,47
 454 776 454 776 485 752 c 1,48,-1
 461 711 l 1,49,-1
 445 707 l 1,50,51
 395 732 395 732 318 765 c 1,52,53
 270 745 270 745 192 707 c 1,54,-1
 176 711 l 1,55,-1
 151 752 l 1,56,57
 224 805 224 805 308 876 c 1,58,-1
 328 876 l 1,45,46
EndSplineSet
EndChar

StartChar: Atilde
Encoding: 195 195 132
Width: 625
GlyphClass: 2
Flags: W
LayerCount: 2
Fore
SplineSet
627 -3 m 1,0,1
 548 0 548 0 507 0 c 0,2,3
 427 0 427 0 335 -8 c 1,4,-1
 329 0 l 1,5,-1
 334 60 l 1,6,7
 383 64 383 64 397 71 c 128,-1,8
 411 78 411 78 411 92.5 c 128,-1,9
 411 107 411 107 406 130 c 1,10,-1
 386 206 l 1,11,12
 360 207 360 207 308 207 c 128,-1,13
 256 207 256 207 200 200 c 1,14,-1
 175 125 l 2,15,16
 169 104 169 104 169 90.5 c 128,-1,17
 169 77 169 77 179 70.5 c 128,-1,18
 189 64 189 64 215 64 c 2,19,-1
 258 64 l 1,20,-1
 262 57 l 1,21,-1
 255 -6 l 1,22,23
 173 0 173 0 109 0 c 1,24,-1
 -12 -3 l 1,25,-1
 -4 64 l 1,26,27
 20 68 20 68 34.5 82.5 c 128,-1,28
 49 97 49 97 61 130 c 2,29,-1
 239 637 l 1,30,-1
 398 653 l 1,31,-1
 409 648 l 1,32,33
 499 301 499 301 552 132 c 0,34,35
 563 96 563 96 580 81 c 128,-1,36
 597 66 597 66 630 63 c 1,37,-1
 634 56 l 1,38,-1
 627 -3 l 1,0,1
294 286 m 2,39,40
 326 286 326 286 368 290 c 1,41,-1
 310 510 l 1,42,-1
 296 510 l 1,43,-1
 224 286 l 1,44,-1
 294 286 l 2,39,40
310 818 m 128,-1,46
 369 801 369 801 382 801 c 0,47,48
 404 801 404 801 437 840 c 2,49,-1
 448 853 l 1,50,-1
 459 853 l 1,51,-1
 499 816 l 1,52,-1
 499 806 l 1,53,-1
 420 709 l 1,54,-1
 404 705 l 1,55,56
 386 705 386 705 327 722 c 128,-1,57
 268 739 268 739 256 739 c 0,58,59
 233 739 233 739 200 700 c 2,60,-1
 189 687 l 1,61,-1
 178 687 l 1,62,-1
 139 724 l 1,63,-1
 139 735 l 1,64,-1
 217 831 l 1,65,-1
 234 835 l 1,66,45
 251 835 251 835 310 818 c 128,-1,46
EndSplineSet
EndChar

StartChar: Adieresis
Encoding: 196 196 133
Width: 625
GlyphClass: 2
Flags: W
LayerCount: 2
Fore
SplineSet
627 -3 m 1,0,1
 548 0 548 0 507 0 c 0,2,3
 427 0 427 0 335 -8 c 1,4,-1
 329 0 l 1,5,-1
 334 60 l 1,6,7
 383 64 383 64 397 71 c 128,-1,8
 411 78 411 78 411 92.5 c 128,-1,9
 411 107 411 107 406 130 c 1,10,-1
 386 206 l 1,11,12
 360 207 360 207 308 207 c 128,-1,13
 256 207 256 207 200 200 c 1,14,-1
 175 125 l 2,15,16
 169 104 169 104 169 90.5 c 128,-1,17
 169 77 169 77 179 70.5 c 128,-1,18
 189 64 189 64 215 64 c 2,19,-1
 258 64 l 1,20,-1
 262 57 l 1,21,-1
 255 -6 l 1,22,23
 173 0 173 0 109 0 c 1,24,-1
 -12 -3 l 1,25,-1
 -4 64 l 1,26,27
 20 68 20 68 34.5 82.5 c 128,-1,28
 49 97 49 97 61 130 c 2,29,-1
 239 637 l 1,30,-1
 398 653 l 1,31,-1
 409 648 l 1,32,33
 499 301 499 301 552 132 c 0,34,35
 563 96 563 96 580 81 c 128,-1,36
 597 66 597 66 630 63 c 1,37,-1
 634 56 l 1,38,-1
 627 -3 l 1,0,1
294 286 m 2,39,40
 326 286 326 286 368 290 c 1,41,-1
 310 510 l 1,42,-1
 296 510 l 1,43,-1
 224 286 l 1,44,-1
 294 286 l 2,39,40
451.5 725 m 128,-1,46
 433 706 433 706 403.5 706 c 128,-1,47
 374 706 374 706 358.5 722.5 c 128,-1,48
 343 739 343 739 343 767.5 c 128,-1,49
 343 796 343 796 361.5 815 c 128,-1,50
 380 834 380 834 409.5 834 c 128,-1,51
 439 834 439 834 454.5 817.5 c 128,-1,52
 470 801 470 801 470 772.5 c 128,-1,45
 470 744 470 744 451.5 725 c 128,-1,46
273.5 725 m 128,-1,54
 255 706 255 706 225.5 706 c 128,-1,55
 196 706 196 706 180.5 722.5 c 128,-1,56
 165 739 165 739 165 767.5 c 128,-1,57
 165 796 165 796 183.5 815 c 128,-1,58
 202 834 202 834 231 834 c 128,-1,59
 260 834 260 834 276 817.5 c 128,-1,60
 292 801 292 801 292 772.5 c 128,-1,53
 292 744 292 744 273.5 725 c 128,-1,54
EndSplineSet
EndChar

StartChar: Aring
Encoding: 197 197 134
Width: 625
GlyphClass: 2
Flags: W
LayerCount: 2
Fore
SplineSet
627 -3 m 1,0,1
 548 0 548 0 507 0 c 0,2,3
 427 0 427 0 335 -8 c 1,4,-1
 329 0 l 1,5,-1
 334 60 l 1,6,7
 383 64 383 64 397 71 c 128,-1,8
 411 78 411 78 411 92.5 c 128,-1,9
 411 107 411 107 406 130 c 1,10,-1
 386 206 l 1,11,12
 360 207 360 207 308 207 c 128,-1,13
 256 207 256 207 200 200 c 1,14,-1
 175 125 l 2,15,16
 169 104 169 104 169 90.5 c 128,-1,17
 169 77 169 77 179 70.5 c 128,-1,18
 189 64 189 64 215 64 c 2,19,-1
 258 64 l 1,20,-1
 262 57 l 1,21,-1
 255 -6 l 1,22,23
 173 0 173 0 109 0 c 1,24,-1
 -12 -3 l 1,25,-1
 -4 64 l 1,26,27
 20 68 20 68 34.5 82.5 c 128,-1,28
 49 97 49 97 61 130 c 2,29,-1
 239 637 l 1,30,-1
 398 653 l 1,31,-1
 409 648 l 1,32,33
 499 301 499 301 552 132 c 0,34,35
 563 96 563 96 580 81 c 128,-1,36
 597 66 597 66 630 63 c 1,37,-1
 634 56 l 1,38,-1
 627 -3 l 1,0,1
294 286 m 2,39,40
 326 286 326 286 368 290 c 1,41,-1
 310 510 l 1,42,-1
 296 510 l 1,43,-1
 224 286 l 1,44,-1
 294 286 l 2,39,40
320 731 m 0,45,46
 360 731 360 731 360 767 c 0,47,48
 360 786 360 786 348 797.5 c 128,-1,49
 336 809 336 809 314 809 c 0,50,51
 275 809 275 809 275 773 c 0,52,53
 275 752 275 752 289 741.5 c 128,-1,54
 303 731 303 731 320 731 c 0,45,46
383.5 707 m 128,-1,56
 357 678 357 678 314 678 c 128,-1,57
 271 678 271 678 248 703 c 128,-1,58
 225 728 225 728 225 769 c 128,-1,59
 225 810 225 810 251.5 837 c 128,-1,60
 278 864 278 864 322 864 c 128,-1,61
 366 864 366 864 388 839 c 128,-1,62
 410 814 410 814 410 775 c 128,-1,55
 410 736 410 736 383.5 707 c 128,-1,56
EndSplineSet
EndChar

StartChar: AE
Encoding: 198 198 135
Width: 871
GlyphClass: 2
Flags: W
LayerCount: 2
Fore
SplineSet
386 73.5 m 128,-1,1
 402 83 402 83 402 102 c 0,2,3
 402 126 402 126 386 249 c 1,4,-1
 299 238 l 1,5,-1
 215 222 l 1,6,-1
 170 125 l 2,7,8
 159 100 159 100 159 87 c 128,-1,9
 159 74 159 74 170.5 69 c 128,-1,10
 182 64 182 64 214 64 c 1,11,-1
 247 59 l 1,12,-1
 241 -6 l 1,13,14
 240 -5 240 -5 211 -4 c 128,-1,15
 182 -3 182 -3 141.5 -1.5 c 128,-1,16
 101 0 101 0 75 0 c 1,17,-1
 1 -3 l 1,18,-1
 -4 57 l 1,19,20
 6 59 6 59 23.5 79.5 c 128,-1,21
 41 100 41 100 56 130 c 2,22,-1
 264 555 l 1,23,24
 260 577 260 577 239 577 c 1,25,-1
 208 575 l 1,26,-1
 202 584 l 1,27,-1
 210 645 l 1,28,29
 321 642 321 642 504.5 642 c 128,-1,30
 688 642 688 642 772 654 c 1,31,-1
 780 643 l 1,32,33
 762 554 762 554 757 461 c 1,34,-1
 666 455 l 1,35,36
 668 481 668 481 668 495 c 0,37,38
 668 536 668 536 646 547 c 128,-1,39
 624 558 624 558 564.5 558 c 128,-1,40
 505 558 505 558 496 553 c 128,-1,41
 487 548 487 548 486 531 c 1,42,-1
 512 349 l 1,43,-1
 608 361 l 1,44,-1
 704 380 l 1,45,-1
 715 370 l 1,46,-1
 702 286 l 1,47,-1
 611 279 l 1,48,-1
 523 269 l 1,49,-1
 543 146 l 2,50,51
 549 110 549 110 565.5 94 c 128,-1,52
 582 78 582 78 613 78 c 0,53,54
 697 78 697 78 721.5 98 c 128,-1,55
 746 118 746 118 756 193 c 1,56,-1
 841 200 l 1,57,-1
 848 190 l 1,58,59
 830 100 830 100 820 4 c 1,60,-1
 811 -7 l 1,61,62
 601 0 601 0 517 0 c 2,63,-1
 479 0 l 2,64,65
 408 0 408 0 320 -8 c 1,66,-1
 315 0 l 1,67,-1
 319 60 l 1,68,0
 370 64 370 64 386 73.5 c 128,-1,1
252 317 m 1,69,-1
 317 321 l 1,70,-1
 379 329 l 1,71,-1
 356 510 l 1,72,-1
 341 510 l 1,73,-1
 252 317 l 1,69,-1
EndSplineSet
EndChar

StartChar: Ccedilla
Encoding: 199 199 136
Width: 617
GlyphClass: 2
Flags: W
LayerCount: 2
Fore
SplineSet
100.5 80 m 128,-1,1
 28 163 28 163 28 313.5 c 128,-1,2
 28 464 28 464 123 559 c 128,-1,3
 218 654 218 654 378 654 c 0,4,5
 457 654 457 654 569 629 c 1,6,-1
 575 616 l 1,7,8
 555 533 555 533 549 427 c 1,9,-1
 450 420 l 1,10,11
 452 447 452 447 452 473 c 0,12,13
 452 516 452 516 425.5 536.5 c 128,-1,14
 399 557 399 557 343 557 c 0,15,16
 184 557 184 557 184 338 c 0,17,18
 184 216 184 216 228 149 c 128,-1,19
 272 82 272 82 350 82 c 0,20,21
 404 82 404 82 434 114.5 c 128,-1,22
 464 147 464 147 476 220 c 1,23,-1
 575 227 l 1,24,25
 558 123 558 123 555 40 c 1,26,-1
 545 28 l 1,27,28
 462 -6 462 -6 352 -11 c 1,29,-1
 343 -44 l 1,30,31
 370 -60 370 -60 386.5 -70.5 c 128,-1,32
 403 -81 403 -81 421 -101.5 c 128,-1,33
 439 -122 439 -122 439 -141 c 0,34,35
 439 -180 439 -180 398.5 -208.5 c 128,-1,36
 358 -237 358 -237 306 -237 c 0,37,38
 278 -237 278 -237 253 -225 c 128,-1,39
 228 -213 228 -213 228 -194 c 128,-1,40
 228 -175 228 -175 265 -131 c 1,41,-1
 274 -131 l 1,42,43
 275 -158 275 -158 289 -172.5 c 128,-1,44
 303 -187 303 -187 323 -187 c 128,-1,45
 343 -187 343 -187 354.5 -178.5 c 128,-1,46
 366 -170 366 -170 366 -157 c 0,47,48
 366 -131 366 -131 280 -86 c 1,49,-1
 301 -11 l 1,50,0
 173 -3 173 -3 100.5 80 c 128,-1,1
EndSplineSet
EndChar

StartChar: Egrave
Encoding: 200 200 137
Width: 597
GlyphClass: 2
Flags: W
LayerCount: 2
Fore
SplineSet
253 370 m 1,0,-1
 346 369 l 1,1,-1
 462 377 l 1,2,-1
 470 368 l 1,3,-1
 456 282 l 1,4,5
 376 285 376 285 338.5 285 c 128,-1,6
 301 285 301 285 250 279 c 1,7,8
 247 170 247 170 247 134.5 c 128,-1,9
 247 99 247 99 257.5 89 c 128,-1,10
 268 79 268 79 314 79 c 128,-1,11
 360 79 360 79 386 82.5 c 128,-1,12
 412 86 412 86 430 99 c 128,-1,13
 448 112 448 112 454.5 132.5 c 128,-1,14
 461 153 461 153 467 193 c 1,15,-1
 552 200 l 1,16,-1
 559 190 l 1,17,18
 541 100 541 100 531 4 c 1,19,-1
 522 -7 l 1,20,21
 334 0 334 0 252 0 c 0,22,23
 130 0 130 0 36 -10 c 1,24,-1
 44 58 l 1,25,26
 85 64 85 64 100.5 82.5 c 128,-1,27
 116 101 116 101 116 144 c 2,28,-1
 117 523 l 2,29,30
 117 556 117 556 110.5 566.5 c 128,-1,31
 104 577 104 577 84 577 c 1,32,-1
 54 575 l 1,33,-1
 47 584 l 1,34,-1
 55 645 l 1,35,36
 165 642 165 642 309 642 c 128,-1,37
 453 642 453 642 544 654 c 1,38,-1
 552 643 l 1,39,40
 534 554 534 554 529 461 c 1,41,-1
 437 455 l 1,42,43
 439 481 439 481 439 495 c 0,44,45
 439 536 439 536 418 547 c 128,-1,46
 397 558 397 558 337.5 558 c 128,-1,47
 278 558 278 558 269.5 552.5 c 128,-1,48
 261 547 261 547 260 525 c 2,49,-1
 253 370 l 1,0,-1
155 762 m 1,50,-1
 150 775 l 1,51,-1
 176 852 l 1,52,-1
 188 857 l 1,53,54
 303 800 303 800 411 753 c 1,55,-1
 398 706 l 1,56,-1
 384 697 l 1,57,58
 262 735 262 735 155 762 c 1,50,-1
EndSplineSet
EndChar

StartChar: Eacute
Encoding: 201 201 138
Width: 597
GlyphClass: 2
Flags: W
LayerCount: 2
Fore
SplineSet
253 370 m 1,0,-1
 346 369 l 1,1,-1
 462 377 l 1,2,-1
 470 368 l 1,3,-1
 456 282 l 1,4,5
 376 285 376 285 338.5 285 c 128,-1,6
 301 285 301 285 250 279 c 1,7,8
 247 170 247 170 247 134.5 c 128,-1,9
 247 99 247 99 257.5 89 c 128,-1,10
 268 79 268 79 314 79 c 128,-1,11
 360 79 360 79 386 82.5 c 128,-1,12
 412 86 412 86 430 99 c 128,-1,13
 448 112 448 112 454.5 132.5 c 128,-1,14
 461 153 461 153 467 193 c 1,15,-1
 552 200 l 1,16,-1
 559 190 l 1,17,18
 541 100 541 100 531 4 c 1,19,-1
 522 -7 l 1,20,21
 334 0 334 0 252 0 c 0,22,23
 130 0 130 0 36 -10 c 1,24,-1
 44 58 l 1,25,26
 85 64 85 64 100.5 82.5 c 128,-1,27
 116 101 116 101 116 144 c 2,28,-1
 117 523 l 2,29,30
 117 556 117 556 110.5 566.5 c 128,-1,31
 104 577 104 577 84 577 c 1,32,-1
 54 575 l 1,33,-1
 47 584 l 1,34,-1
 55 645 l 1,35,36
 165 642 165 642 309 642 c 128,-1,37
 453 642 453 642 544 654 c 1,38,-1
 552 643 l 1,39,40
 534 554 534 554 529 461 c 1,41,-1
 437 455 l 1,42,43
 439 481 439 481 439 495 c 0,44,45
 439 536 439 536 418 547 c 128,-1,46
 397 558 397 558 337.5 558 c 128,-1,47
 278 558 278 558 269.5 552.5 c 128,-1,48
 261 547 261 547 260 525 c 2,49,-1
 253 370 l 1,0,-1
492 775 m 1,50,-1
 486 762 l 1,51,52
 371 733 371 733 257 697 c 1,53,-1
 244 706 l 1,54,-1
 231 753 l 1,55,-1
 454 857 l 1,56,-1
 466 852 l 1,57,-1
 492 775 l 1,50,-1
EndSplineSet
EndChar

StartChar: Ecircumflex
Encoding: 202 202 139
Width: 597
GlyphClass: 2
Flags: W
LayerCount: 2
Fore
SplineSet
253 370 m 1,0,-1
 346 369 l 1,1,-1
 462 377 l 1,2,-1
 470 368 l 1,3,-1
 456 282 l 1,4,5
 376 285 376 285 338.5 285 c 128,-1,6
 301 285 301 285 250 279 c 1,7,8
 247 170 247 170 247 134.5 c 128,-1,9
 247 99 247 99 257.5 89 c 128,-1,10
 268 79 268 79 314 79 c 128,-1,11
 360 79 360 79 386 82.5 c 128,-1,12
 412 86 412 86 430 99 c 128,-1,13
 448 112 448 112 454.5 132.5 c 128,-1,14
 461 153 461 153 467 193 c 1,15,-1
 552 200 l 1,16,-1
 559 190 l 1,17,18
 541 100 541 100 531 4 c 1,19,-1
 522 -7 l 1,20,21
 334 0 334 0 252 0 c 0,22,23
 130 0 130 0 36 -10 c 1,24,-1
 44 58 l 1,25,26
 85 64 85 64 100.5 82.5 c 128,-1,27
 116 101 116 101 116 144 c 2,28,-1
 117 523 l 2,29,30
 117 556 117 556 110.5 566.5 c 128,-1,31
 104 577 104 577 84 577 c 1,32,-1
 54 575 l 1,33,-1
 47 584 l 1,34,-1
 55 645 l 1,35,36
 165 642 165 642 309 642 c 128,-1,37
 453 642 453 642 544 654 c 1,38,-1
 552 643 l 1,39,40
 534 554 534 554 529 461 c 1,41,-1
 437 455 l 1,42,43
 439 481 439 481 439 495 c 0,44,45
 439 536 439 536 418 547 c 128,-1,46
 397 558 397 558 337.5 558 c 128,-1,47
 278 558 278 558 269.5 552.5 c 128,-1,48
 261 547 261 547 260 525 c 2,49,-1
 253 370 l 1,0,-1
329 876 m 1,50,51
 329 877 329 877 392 826.5 c 128,-1,52
 455 776 455 776 486 752 c 1,53,-1
 462 711 l 1,54,-1
 446 707 l 1,55,56
 396 732 396 732 319 765 c 1,57,58
 271 745 271 745 193 707 c 1,59,-1
 177 711 l 1,60,-1
 152 752 l 1,61,62
 225 805 225 805 309 876 c 1,63,-1
 329 876 l 1,50,51
EndSplineSet
EndChar

StartChar: Edieresis
Encoding: 203 203 140
Width: 597
GlyphClass: 2
Flags: W
LayerCount: 2
Fore
SplineSet
253 370 m 1,0,-1
 346 369 l 1,1,-1
 462 377 l 1,2,-1
 470 368 l 1,3,-1
 456 282 l 1,4,5
 376 285 376 285 338.5 285 c 128,-1,6
 301 285 301 285 250 279 c 1,7,8
 247 170 247 170 247 134.5 c 128,-1,9
 247 99 247 99 257.5 89 c 128,-1,10
 268 79 268 79 314 79 c 128,-1,11
 360 79 360 79 386 82.5 c 128,-1,12
 412 86 412 86 430 99 c 128,-1,13
 448 112 448 112 454.5 132.5 c 128,-1,14
 461 153 461 153 467 193 c 1,15,-1
 552 200 l 1,16,-1
 559 190 l 1,17,18
 541 100 541 100 531 4 c 1,19,-1
 522 -7 l 1,20,21
 334 0 334 0 252 0 c 0,22,23
 130 0 130 0 36 -10 c 1,24,-1
 44 58 l 1,25,26
 85 64 85 64 100.5 82.5 c 128,-1,27
 116 101 116 101 116 144 c 2,28,-1
 117 523 l 2,29,30
 117 556 117 556 110.5 566.5 c 128,-1,31
 104 577 104 577 84 577 c 1,32,-1
 54 575 l 1,33,-1
 47 584 l 1,34,-1
 55 645 l 1,35,36
 165 642 165 642 309 642 c 128,-1,37
 453 642 453 642 544 654 c 1,38,-1
 552 643 l 1,39,40
 534 554 534 554 529 461 c 1,41,-1
 437 455 l 1,42,43
 439 481 439 481 439 495 c 0,44,45
 439 536 439 536 418 547 c 128,-1,46
 397 558 397 558 337.5 558 c 128,-1,47
 278 558 278 558 269.5 552.5 c 128,-1,48
 261 547 261 547 260 525 c 2,49,-1
 253 370 l 1,0,-1
451.5 725 m 128,-1,51
 433 706 433 706 403.5 706 c 128,-1,52
 374 706 374 706 358.5 722.5 c 128,-1,53
 343 739 343 739 343 767.5 c 128,-1,54
 343 796 343 796 361.5 815 c 128,-1,55
 380 834 380 834 409.5 834 c 128,-1,56
 439 834 439 834 454.5 817.5 c 128,-1,57
 470 801 470 801 470 772.5 c 128,-1,50
 470 744 470 744 451.5 725 c 128,-1,51
273.5 725 m 128,-1,59
 255 706 255 706 225.5 706 c 128,-1,60
 196 706 196 706 180.5 722.5 c 128,-1,61
 165 739 165 739 165 767.5 c 128,-1,62
 165 796 165 796 183.5 815 c 128,-1,63
 202 834 202 834 231 834 c 128,-1,64
 260 834 260 834 276 817.5 c 128,-1,65
 292 801 292 801 292 772.5 c 128,-1,58
 292 744 292 744 273.5 725 c 128,-1,59
EndSplineSet
EndChar

StartChar: Igrave
Encoding: 204 204 141
Width: 365
GlyphClass: 2
Flags: W
LayerCount: 2
Fore
SplineSet
48 643 m 1,0,-1
 188 642 l 1,1,-1
 330 649 l 1,2,-1
 324 582 l 1,3,4
 286 577 286 577 274 566.5 c 128,-1,5
 262 556 262 556 260 528 c 0,6,7
 248 321 248 321 248 133 c 0,8,9
 248 92 248 92 255.5 78.5 c 128,-1,10
 263 65 263 65 286 65 c 1,11,-1
 329 68 l 1,12,-1
 334 61 l 1,13,-1
 325 -3 l 1,14,15
 221 0 221 0 186 0 c 0,16,17
 117 0 117 0 36 -9 c 1,18,-1
 43 56 l 1,19,20
 87 65 87 65 101.5 82 c 128,-1,21
 116 99 116 99 116 140 c 2,22,-1
 117 525 l 2,23,24
 117 556 117 556 110 566.5 c 128,-1,25
 103 577 103 577 81 577 c 2,26,-1
 46 576 l 1,27,-1
 41 584 l 1,28,-1
 48 643 l 1,0,-1
23 762 m 1,29,-1
 18 775 l 1,30,-1
 44 852 l 1,31,-1
 56 857 l 1,32,33
 171 800 171 800 279 753 c 1,34,-1
 266 706 l 1,35,-1
 252 697 l 1,36,37
 130 735 130 735 23 762 c 1,29,-1
EndSplineSet
EndChar

StartChar: Iacute
Encoding: 205 205 142
Width: 365
GlyphClass: 2
Flags: W
LayerCount: 2
Fore
SplineSet
48 643 m 1,0,-1
 188 642 l 1,1,-1
 330 649 l 1,2,-1
 324 582 l 1,3,4
 286 577 286 577 274 566.5 c 128,-1,5
 262 556 262 556 260 528 c 0,6,7
 248 321 248 321 248 133 c 0,8,9
 248 92 248 92 255.5 78.5 c 128,-1,10
 263 65 263 65 286 65 c 1,11,-1
 329 68 l 1,12,-1
 334 61 l 1,13,-1
 325 -3 l 1,14,15
 221 0 221 0 186 0 c 0,16,17
 117 0 117 0 36 -9 c 1,18,-1
 43 56 l 1,19,20
 87 65 87 65 101.5 82 c 128,-1,21
 116 99 116 99 116 140 c 2,22,-1
 117 525 l 2,23,24
 117 556 117 556 110 566.5 c 128,-1,25
 103 577 103 577 81 577 c 2,26,-1
 46 576 l 1,27,-1
 41 584 l 1,28,-1
 48 643 l 1,0,-1
360 775 m 1,29,-1
 354 762 l 1,30,31
 239 733 239 733 125 697 c 1,32,-1
 112 706 l 1,33,-1
 99 753 l 1,34,-1
 322 857 l 1,35,-1
 334 852 l 1,36,-1
 360 775 l 1,29,-1
EndSplineSet
EndChar

StartChar: Icircumflex
Encoding: 206 206 143
Width: 365
GlyphClass: 2
Flags: W
LayerCount: 2
Fore
SplineSet
48 643 m 1,0,-1
 188 642 l 1,1,-1
 330 649 l 1,2,-1
 324 582 l 1,3,4
 286 577 286 577 274 566.5 c 128,-1,5
 262 556 262 556 260 528 c 0,6,7
 248 321 248 321 248 133 c 0,8,9
 248 92 248 92 255.5 78.5 c 128,-1,10
 263 65 263 65 286 65 c 1,11,-1
 329 68 l 1,12,-1
 334 61 l 1,13,-1
 325 -3 l 1,14,15
 221 0 221 0 186 0 c 0,16,17
 117 0 117 0 36 -9 c 1,18,-1
 43 56 l 1,19,20
 87 65 87 65 101.5 82 c 128,-1,21
 116 99 116 99 116 140 c 2,22,-1
 117 525 l 2,23,24
 117 556 117 556 110 566.5 c 128,-1,25
 103 577 103 577 81 577 c 2,26,-1
 46 576 l 1,27,-1
 41 584 l 1,28,-1
 48 643 l 1,0,-1
196 876 m 1,29,30
 196 877 196 877 259 826.5 c 128,-1,31
 322 776 322 776 353 752 c 1,32,-1
 329 711 l 1,33,-1
 313 707 l 1,34,35
 263 732 263 732 186 765 c 1,36,37
 138 745 138 745 60 707 c 1,38,-1
 44 711 l 1,39,-1
 19 752 l 1,40,41
 92 805 92 805 176 876 c 1,42,-1
 196 876 l 1,29,30
EndSplineSet
EndChar

StartChar: Idieresis
Encoding: 207 207 144
Width: 365
GlyphClass: 2
Flags: W
LayerCount: 2
Fore
SplineSet
48 643 m 1,0,-1
 188 642 l 1,1,-1
 330 649 l 1,2,-1
 324 582 l 1,3,4
 286 577 286 577 274 566.5 c 128,-1,5
 262 556 262 556 260 528 c 0,6,7
 248 321 248 321 248 133 c 0,8,9
 248 92 248 92 255.5 78.5 c 128,-1,10
 263 65 263 65 286 65 c 1,11,-1
 329 68 l 1,12,-1
 334 61 l 1,13,-1
 325 -3 l 1,14,15
 221 0 221 0 186 0 c 0,16,17
 117 0 117 0 36 -9 c 1,18,-1
 43 56 l 1,19,20
 87 65 87 65 101.5 82 c 128,-1,21
 116 99 116 99 116 140 c 2,22,-1
 117 525 l 2,23,24
 117 556 117 556 110 566.5 c 128,-1,25
 103 577 103 577 81 577 c 2,26,-1
 46 576 l 1,27,-1
 41 584 l 1,28,-1
 48 643 l 1,0,-1
319.5 725 m 128,-1,30
 301 706 301 706 271.5 706 c 128,-1,31
 242 706 242 706 226.5 722.5 c 128,-1,32
 211 739 211 739 211 767.5 c 128,-1,33
 211 796 211 796 229.5 815 c 128,-1,34
 248 834 248 834 277.5 834 c 128,-1,35
 307 834 307 834 322.5 817.5 c 128,-1,36
 338 801 338 801 338 772.5 c 128,-1,29
 338 744 338 744 319.5 725 c 128,-1,30
141.5 725 m 128,-1,38
 123 706 123 706 93.5 706 c 128,-1,39
 64 706 64 706 48.5 722.5 c 128,-1,40
 33 739 33 739 33 767.5 c 128,-1,41
 33 796 33 796 51.5 815 c 128,-1,42
 70 834 70 834 99 834 c 128,-1,43
 128 834 128 834 144 817.5 c 128,-1,44
 160 801 160 801 160 772.5 c 128,-1,37
 160 744 160 744 141.5 725 c 128,-1,38
EndSplineSet
EndChar

StartChar: Eth
Encoding: 208 208 145
Width: 709
GlyphClass: 2
Flags: W
LayerCount: 2
Fore
SplineSet
333 -12 m 1,0,1
 238 0 238 0 198 0 c 0,2,3
 135 0 135 0 53 -10 c 1,4,-1
 60 58 l 1,5,6
 105 66 105 66 118.5 85.5 c 128,-1,7
 132 105 132 105 132 162 c 2,8,-1
 132 286 l 1,9,-1
 16 286 l 1,10,-1
 8 293 l 1,11,-1
 18 353 l 1,12,-1
 132 353 l 1,13,-1
 132 522 l 2,14,15
 132 554 132 554 126 565 c 128,-1,16
 120 576 120 576 101 576 c 1,17,-1
 68 574 l 1,18,-1
 62 583 l 1,19,-1
 70 645 l 1,20,21
 158 642 158 642 198 642 c 1,22,-1
 356 647 l 1,23,24
 507 647 507 647 593.5 567 c 128,-1,25
 680 487 680 487 680 338 c 128,-1,26
 680 189 680 189 582.5 88.5 c 128,-1,27
 485 -12 485 -12 333 -12 c 1,0,1
345 75 m 0,28,29
 522 75 522 75 522 316 c 0,30,31
 522 443 522 443 468.5 501.5 c 128,-1,32
 415 560 415 560 303 560 c 0,33,34
 287 560 287 560 281 555 c 128,-1,35
 275 550 275 550 274 536 c 2,36,-1
 266 353 l 1,37,-1
 391 355 l 1,38,-1
 397 346 l 1,39,-1
 391 286 l 1,40,-1
 264 286 l 1,41,-1
 262 146 l 2,42,43
 262 103 262 103 278.5 89 c 128,-1,44
 295 75 295 75 345 75 c 0,28,29
EndSplineSet
EndChar

StartChar: Ntilde
Encoding: 209 209 146
Width: 729
GlyphClass: 2
Flags: W
LayerCount: 2
Fore
SplineSet
495 577 m 2,0,-1
 461 576 l 1,1,-1
 457 584 l 1,2,-1
 464 646 l 1,3,4
 549 642 549 642 593 642 c 1,5,-1
 711 647 l 1,6,-1
 706 580 l 1,7,8
 673 575 673 575 658.5 561 c 128,-1,9
 644 547 644 547 643 517 c 2,10,-1
 630 -14 l 1,11,-1
 524 -27 l 1,12,13
 376 210 376 210 233 417 c 1,14,-1
 223 417 l 1,15,-1
 222 109 l 2,16,17
 222 84 222 84 229.5 74 c 128,-1,18
 237 64 237 64 256 64 c 1,19,-1
 299 67 l 1,20,-1
 305 60 l 1,21,-1
 295 -4 l 1,22,23
 209 0 209 0 176 0 c 0,24,25
 119 0 119 0 43 -8 c 1,26,-1
 51 59 l 1,27,28
 109 66 109 66 110 122 c 2,29,-1
 123 517 l 1,30,31
 123 549 123 549 107 561.5 c 128,-1,32
 91 574 91 574 42 579 c 1,33,-1
 34 589 l 1,34,-1
 41 647 l 1,35,36
 108 642 108 642 157 642 c 1,37,-1
 253 646 l 1,38,39
 384 433 384 433 520 235 c 1,40,-1
 530 235 l 1,41,-1
 528 534 l 2,42,43
 527 577 527 577 495 577 c 2,0,-1
370 818 m 128,-1,45
 429 801 429 801 442 801 c 0,46,47
 464 801 464 801 497 840 c 2,48,-1
 508 853 l 1,49,-1
 519 853 l 1,50,-1
 559 816 l 1,51,-1
 559 806 l 1,52,-1
 480 709 l 1,53,-1
 464 705 l 1,54,55
 446 705 446 705 387 722 c 128,-1,56
 328 739 328 739 316 739 c 0,57,58
 293 739 293 739 260 700 c 2,59,-1
 249 687 l 1,60,-1
 238 687 l 1,61,-1
 199 724 l 1,62,-1
 199 735 l 1,63,-1
 277 831 l 1,64,-1
 294 835 l 1,65,44
 311 835 311 835 370 818 c 128,-1,45
EndSplineSet
EndChar

StartChar: Ograve
Encoding: 210 210 147
Width: 674
GlyphClass: 2
Flags: W
LayerCount: 2
Fore
SplineSet
224 144 m 128,-1,1
 265 75 265 75 338 75 c 128,-1,2
 411 75 411 75 450.5 130.5 c 128,-1,3
 490 186 490 186 490 303 c 128,-1,4
 490 420 490 420 448 488.5 c 128,-1,5
 406 557 406 557 332.5 557 c 128,-1,6
 259 557 259 557 221 501.5 c 128,-1,7
 183 446 183 446 183 329.5 c 128,-1,0
 183 213 183 213 224 144 c 128,-1,1
555 85 m 128,-1,9
 464 -12 464 -12 323 -12 c 128,-1,10
 182 -12 182 -12 105 73 c 128,-1,11
 28 158 28 158 28 310 c 128,-1,12
 28 462 28 462 118 558 c 128,-1,13
 208 654 208 654 350 654 c 128,-1,14
 492 654 492 654 569 571 c 128,-1,15
 646 488 646 488 646 335 c 128,-1,8
 646 182 646 182 555 85 c 128,-1,9
171 762 m 1,16,-1
 166 775 l 1,17,-1
 192 852 l 1,18,-1
 204 857 l 1,19,20
 319 800 319 800 427 753 c 1,21,-1
 414 706 l 1,22,-1
 400 697 l 1,23,24
 278 735 278 735 171 762 c 1,16,-1
EndSplineSet
EndChar

StartChar: Oacute
Encoding: 211 211 148
Width: 674
GlyphClass: 2
Flags: W
LayerCount: 2
Fore
SplineSet
224 144 m 128,-1,1
 265 75 265 75 338 75 c 128,-1,2
 411 75 411 75 450.5 130.5 c 128,-1,3
 490 186 490 186 490 303 c 128,-1,4
 490 420 490 420 448 488.5 c 128,-1,5
 406 557 406 557 332.5 557 c 128,-1,6
 259 557 259 557 221 501.5 c 128,-1,7
 183 446 183 446 183 329.5 c 128,-1,0
 183 213 183 213 224 144 c 128,-1,1
555 85 m 128,-1,9
 464 -12 464 -12 323 -12 c 128,-1,10
 182 -12 182 -12 105 73 c 128,-1,11
 28 158 28 158 28 310 c 128,-1,12
 28 462 28 462 118 558 c 128,-1,13
 208 654 208 654 350 654 c 128,-1,14
 492 654 492 654 569 571 c 128,-1,15
 646 488 646 488 646 335 c 128,-1,8
 646 182 646 182 555 85 c 128,-1,9
508 775 m 1,16,-1
 502 762 l 1,17,18
 387 733 387 733 273 697 c 1,19,-1
 260 706 l 1,20,-1
 247 753 l 1,21,-1
 470 857 l 1,22,-1
 482 852 l 1,23,-1
 508 775 l 1,16,-1
EndSplineSet
EndChar

StartChar: Ocircumflex
Encoding: 212 212 149
Width: 674
GlyphClass: 2
Flags: W
LayerCount: 2
Fore
SplineSet
224 144 m 128,-1,1
 265 75 265 75 338 75 c 128,-1,2
 411 75 411 75 450.5 130.5 c 128,-1,3
 490 186 490 186 490 303 c 128,-1,4
 490 420 490 420 448 488.5 c 128,-1,5
 406 557 406 557 332.5 557 c 128,-1,6
 259 557 259 557 221 501.5 c 128,-1,7
 183 446 183 446 183 329.5 c 128,-1,0
 183 213 183 213 224 144 c 128,-1,1
555 85 m 128,-1,9
 464 -12 464 -12 323 -12 c 128,-1,10
 182 -12 182 -12 105 73 c 128,-1,11
 28 158 28 158 28 310 c 128,-1,12
 28 462 28 462 118 558 c 128,-1,13
 208 654 208 654 350 654 c 128,-1,14
 492 654 492 654 569 571 c 128,-1,15
 646 488 646 488 646 335 c 128,-1,8
 646 182 646 182 555 85 c 128,-1,9
344 876 m 1,16,17
 344 877 344 877 407 826.5 c 128,-1,18
 470 776 470 776 501 752 c 1,19,-1
 477 711 l 1,20,-1
 461 707 l 1,21,22
 411 732 411 732 334 765 c 1,23,24
 286 745 286 745 208 707 c 1,25,-1
 192 711 l 1,26,-1
 167 752 l 1,27,28
 240 805 240 805 324 876 c 1,29,-1
 344 876 l 1,16,17
EndSplineSet
EndChar

StartChar: Otilde
Encoding: 213 213 150
Width: 674
GlyphClass: 2
Flags: W
LayerCount: 2
Fore
SplineSet
224 144 m 128,-1,1
 265 75 265 75 338 75 c 128,-1,2
 411 75 411 75 450.5 130.5 c 128,-1,3
 490 186 490 186 490 303 c 128,-1,4
 490 420 490 420 448 488.5 c 128,-1,5
 406 557 406 557 332.5 557 c 128,-1,6
 259 557 259 557 221 501.5 c 128,-1,7
 183 446 183 446 183 329.5 c 128,-1,0
 183 213 183 213 224 144 c 128,-1,1
555 85 m 128,-1,9
 464 -12 464 -12 323 -12 c 128,-1,10
 182 -12 182 -12 105 73 c 128,-1,11
 28 158 28 158 28 310 c 128,-1,12
 28 462 28 462 118 558 c 128,-1,13
 208 654 208 654 350 654 c 128,-1,14
 492 654 492 654 569 571 c 128,-1,15
 646 488 646 488 646 335 c 128,-1,8
 646 182 646 182 555 85 c 128,-1,9
326 818 m 128,-1,17
 385 801 385 801 398 801 c 0,18,19
 420 801 420 801 453 840 c 2,20,-1
 464 853 l 1,21,-1
 475 853 l 1,22,-1
 515 816 l 1,23,-1
 515 806 l 1,24,-1
 436 709 l 1,25,-1
 420 705 l 1,26,27
 402 705 402 705 343 722 c 128,-1,28
 284 739 284 739 272 739 c 0,29,30
 249 739 249 739 216 700 c 2,31,-1
 205 687 l 1,32,-1
 194 687 l 1,33,-1
 155 724 l 1,34,-1
 155 735 l 1,35,-1
 233 831 l 1,36,-1
 250 835 l 1,37,16
 267 835 267 835 326 818 c 128,-1,17
EndSplineSet
EndChar

StartChar: Odieresis
Encoding: 214 214 151
Width: 674
GlyphClass: 2
Flags: W
LayerCount: 2
Fore
SplineSet
224 144 m 128,-1,1
 265 75 265 75 338 75 c 128,-1,2
 411 75 411 75 450.5 130.5 c 128,-1,3
 490 186 490 186 490 303 c 128,-1,4
 490 420 490 420 448 488.5 c 128,-1,5
 406 557 406 557 332.5 557 c 128,-1,6
 259 557 259 557 221 501.5 c 128,-1,7
 183 446 183 446 183 329.5 c 128,-1,0
 183 213 183 213 224 144 c 128,-1,1
555 85 m 128,-1,9
 464 -12 464 -12 323 -12 c 128,-1,10
 182 -12 182 -12 105 73 c 128,-1,11
 28 158 28 158 28 310 c 128,-1,12
 28 462 28 462 118 558 c 128,-1,13
 208 654 208 654 350 654 c 128,-1,14
 492 654 492 654 569 571 c 128,-1,15
 646 488 646 488 646 335 c 128,-1,8
 646 182 646 182 555 85 c 128,-1,9
467.5 725 m 128,-1,17
 449 706 449 706 419.5 706 c 128,-1,18
 390 706 390 706 374.5 722.5 c 128,-1,19
 359 739 359 739 359 767.5 c 128,-1,20
 359 796 359 796 377.5 815 c 128,-1,21
 396 834 396 834 425.5 834 c 128,-1,22
 455 834 455 834 470.5 817.5 c 128,-1,23
 486 801 486 801 486 772.5 c 128,-1,16
 486 744 486 744 467.5 725 c 128,-1,17
289.5 725 m 128,-1,25
 271 706 271 706 241.5 706 c 128,-1,26
 212 706 212 706 196.5 722.5 c 128,-1,27
 181 739 181 739 181 767.5 c 128,-1,28
 181 796 181 796 199.5 815 c 128,-1,29
 218 834 218 834 247 834 c 128,-1,30
 276 834 276 834 292 817.5 c 128,-1,31
 308 801 308 801 308 772.5 c 128,-1,24
 308 744 308 744 289.5 725 c 128,-1,25
EndSplineSet
EndChar

StartChar: multiply
Encoding: 215 215 152
Width: 506
GlyphClass: 2
Flags: W
LayerCount: 2
Fore
SplineSet
379 452 m 1,0,-1
 391 447 l 1,1,-1
 448 377 l 1,2,-1
 321 249 l 1,3,-1
 452 127 l 1,4,-1
 447 114 l 1,5,-1
 375 56 l 1,6,-1
 251 179 l 1,7,-1
 128 54 l 1,8,-1
 114 57 l 1,9,-1
 63 129 l 1,10,11
 126 191 126 191 182 247 c 1,12,-1
 52 376 l 1,13,-1
 55 390 l 1,14,-1
 129 443 l 1,15,16
 195 375 195 375 253 318 c 1,17,-1
 379 452 l 1,0,-1
EndSplineSet
EndChar

StartChar: Oslash
Encoding: 216 216 153
Width: 674
GlyphClass: 2
Flags: W
LayerCount: 2
Fore
SplineSet
132 47 m 1,0,1
 28 131 28 131 28 296.5 c 128,-1,2
 28 462 28 462 118 558 c 128,-1,3
 208 654 208 654 356 654 c 0,4,5
 422 654 422 654 475 633 c 1,6,-1
 534 729 l 1,7,-1
 596 700 l 1,8,-1
 599 687 l 1,9,-1
 542 596 l 1,10,11
 646 514 646 514 646 348 c 128,-1,12
 646 182 646 182 555 85 c 128,-1,13
 464 -12 464 -12 315 -12 c 0,14,15
 253 -12 253 -12 196 9 c 1,16,-1
 126 -107 l 1,17,-1
 66 -78 l 1,18,-1
 63 -68 l 1,19,-1
 132 47 l 1,0,1
340 75 m 0,20,21
 411 75 411 75 450.5 130.5 c 128,-1,22
 490 186 490 186 490 290.5 c 128,-1,23
 490 395 490 395 461 462 c 1,24,-1
 254 107 l 1,25,26
 289 75 289 75 340 75 c 0,20,21
221 501.5 m 128,-1,28
 183 446 183 446 183 343.5 c 128,-1,29
 183 241 183 241 209 175 c 1,30,-1
 413 528 l 1,31,32
 378 557 378 557 328 557 c 0,33,27
 259 557 259 557 221 501.5 c 128,-1,28
EndSplineSet
EndChar

StartChar: Ugrave
Encoding: 217 217 154
Width: 655
GlyphClass: 2
Flags: W
LayerCount: 2
Fore
SplineSet
343 79 m 0,0,1
 465 79 465 79 465 209 c 1,2,-1
 461 523 l 2,3,4
 460 556 460 556 454 566.5 c 128,-1,5
 448 577 448 577 429 577 c 1,6,-1
 396 575 l 1,7,-1
 394 579 l 1,8,-1
 402 645 l 1,9,10
 481 642 481 642 519 642 c 1,11,-1
 638 648 l 1,12,-1
 632 581 l 1,13,14
 595 573 595 573 584.5 564 c 128,-1,15
 574 555 574 555 574 531 c 2,16,-1
 574 220 l 2,17,18
 574 107 574 107 507.5 47.5 c 128,-1,19
 441 -12 441 -12 316 -12 c 0,20,21
 84 -12 84 -12 84 204 c 2,22,-1
 84 523 l 2,23,24
 84 556 84 556 78 566.5 c 128,-1,25
 72 577 72 577 52 577 c 1,26,-1
 20 575 l 1,27,-1
 18 579 l 1,28,-1
 27 645 l 1,29,30
 113 642 113 642 170 642 c 1,31,-1
 289 648 l 1,32,-1
 282 580 l 1,33,34
 251 576 251 576 239.5 565 c 128,-1,35
 228 554 228 554 226 527 c 1,36,-1
 219 236 l 1,37,38
 219 161 219 161 251 120 c 128,-1,39
 283 79 283 79 343 79 c 0,0,1
177 762 m 1,40,-1
 172 775 l 1,41,-1
 198 852 l 1,42,-1
 210 857 l 1,43,44
 325 800 325 800 433 753 c 1,45,-1
 420 706 l 1,46,-1
 406 697 l 1,47,48
 284 735 284 735 177 762 c 1,40,-1
EndSplineSet
EndChar

StartChar: Uacute
Encoding: 218 218 155
Width: 655
GlyphClass: 2
Flags: W
LayerCount: 2
Fore
SplineSet
343 79 m 0,0,1
 465 79 465 79 465 209 c 1,2,-1
 461 523 l 2,3,4
 460 556 460 556 454 566.5 c 128,-1,5
 448 577 448 577 429 577 c 1,6,-1
 396 575 l 1,7,-1
 394 579 l 1,8,-1
 402 645 l 1,9,10
 481 642 481 642 519 642 c 1,11,-1
 638 648 l 1,12,-1
 632 581 l 1,13,14
 595 573 595 573 584.5 564 c 128,-1,15
 574 555 574 555 574 531 c 2,16,-1
 574 220 l 2,17,18
 574 107 574 107 507.5 47.5 c 128,-1,19
 441 -12 441 -12 316 -12 c 0,20,21
 84 -12 84 -12 84 204 c 2,22,-1
 84 523 l 2,23,24
 84 556 84 556 78 566.5 c 128,-1,25
 72 577 72 577 52 577 c 1,26,-1
 20 575 l 1,27,-1
 18 579 l 1,28,-1
 27 645 l 1,29,30
 113 642 113 642 170 642 c 1,31,-1
 289 648 l 1,32,-1
 282 580 l 1,33,34
 251 576 251 576 239.5 565 c 128,-1,35
 228 554 228 554 226 527 c 1,36,-1
 219 236 l 1,37,38
 219 161 219 161 251 120 c 128,-1,39
 283 79 283 79 343 79 c 0,0,1
514 775 m 1,40,-1
 508 762 l 1,41,42
 393 733 393 733 279 697 c 1,43,-1
 266 706 l 1,44,-1
 253 753 l 1,45,-1
 476 857 l 1,46,-1
 488 852 l 1,47,-1
 514 775 l 1,40,-1
EndSplineSet
EndChar

StartChar: Ucircumflex
Encoding: 219 219 156
Width: 655
GlyphClass: 2
Flags: W
LayerCount: 2
Fore
SplineSet
343 79 m 0,0,1
 465 79 465 79 465 209 c 1,2,-1
 461 523 l 2,3,4
 460 556 460 556 454 566.5 c 128,-1,5
 448 577 448 577 429 577 c 1,6,-1
 396 575 l 1,7,-1
 394 579 l 1,8,-1
 402 645 l 1,9,10
 481 642 481 642 519 642 c 1,11,-1
 638 648 l 1,12,-1
 632 581 l 1,13,14
 595 573 595 573 584.5 564 c 128,-1,15
 574 555 574 555 574 531 c 2,16,-1
 574 220 l 2,17,18
 574 107 574 107 507.5 47.5 c 128,-1,19
 441 -12 441 -12 316 -12 c 0,20,21
 84 -12 84 -12 84 204 c 2,22,-1
 84 523 l 2,23,24
 84 556 84 556 78 566.5 c 128,-1,25
 72 577 72 577 52 577 c 1,26,-1
 20 575 l 1,27,-1
 18 579 l 1,28,-1
 27 645 l 1,29,30
 113 642 113 642 170 642 c 1,31,-1
 289 648 l 1,32,-1
 282 580 l 1,33,34
 251 576 251 576 239.5 565 c 128,-1,35
 228 554 228 554 226 527 c 1,36,-1
 219 236 l 1,37,38
 219 161 219 161 251 120 c 128,-1,39
 283 79 283 79 343 79 c 0,0,1
351 876 m 1,40,41
 351 877 351 877 414 826.5 c 128,-1,42
 477 776 477 776 508 752 c 1,43,-1
 484 711 l 1,44,-1
 468 707 l 1,45,46
 418 732 418 732 341 765 c 1,47,48
 293 745 293 745 215 707 c 1,49,-1
 199 711 l 1,50,-1
 174 752 l 1,51,52
 247 805 247 805 331 876 c 1,53,-1
 351 876 l 1,40,41
EndSplineSet
EndChar

StartChar: Udieresis
Encoding: 220 220 157
Width: 655
GlyphClass: 2
Flags: W
LayerCount: 2
Fore
SplineSet
343 79 m 0,0,1
 465 79 465 79 465 209 c 1,2,-1
 461 523 l 2,3,4
 460 556 460 556 454 566.5 c 128,-1,5
 448 577 448 577 429 577 c 1,6,-1
 396 575 l 1,7,-1
 394 579 l 1,8,-1
 402 645 l 1,9,10
 481 642 481 642 519 642 c 1,11,-1
 638 648 l 1,12,-1
 632 581 l 1,13,14
 595 573 595 573 584.5 564 c 128,-1,15
 574 555 574 555 574 531 c 2,16,-1
 574 220 l 2,17,18
 574 107 574 107 507.5 47.5 c 128,-1,19
 441 -12 441 -12 316 -12 c 0,20,21
 84 -12 84 -12 84 204 c 2,22,-1
 84 523 l 2,23,24
 84 556 84 556 78 566.5 c 128,-1,25
 72 577 72 577 52 577 c 1,26,-1
 20 575 l 1,27,-1
 18 579 l 1,28,-1
 27 645 l 1,29,30
 113 642 113 642 170 642 c 1,31,-1
 289 648 l 1,32,-1
 282 580 l 1,33,34
 251 576 251 576 239.5 565 c 128,-1,35
 228 554 228 554 226 527 c 1,36,-1
 219 236 l 1,37,38
 219 161 219 161 251 120 c 128,-1,39
 283 79 283 79 343 79 c 0,0,1
473.5 725 m 128,-1,41
 455 706 455 706 425.5 706 c 128,-1,42
 396 706 396 706 380.5 722.5 c 128,-1,43
 365 739 365 739 365 767.5 c 128,-1,44
 365 796 365 796 383.5 815 c 128,-1,45
 402 834 402 834 431.5 834 c 128,-1,46
 461 834 461 834 476.5 817.5 c 128,-1,47
 492 801 492 801 492 772.5 c 128,-1,40
 492 744 492 744 473.5 725 c 128,-1,41
295.5 725 m 128,-1,49
 277 706 277 706 247.5 706 c 128,-1,50
 218 706 218 706 202.5 722.5 c 128,-1,51
 187 739 187 739 187 767.5 c 128,-1,52
 187 796 187 796 205.5 815 c 128,-1,53
 224 834 224 834 253 834 c 128,-1,54
 282 834 282 834 298 817.5 c 128,-1,55
 314 801 314 801 314 772.5 c 128,-1,48
 314 744 314 744 295.5 725 c 128,-1,49
EndSplineSet
EndChar

StartChar: Yacute
Encoding: 221 221 158
Width: 598
GlyphClass: 2
Flags: W
LayerCount: 2
Fore
SplineSet
369 645 m 1,0,-1
 502 641 l 1,1,-1
 604 645 l 1,2,-1
 608 638 l 1,3,-1
 601 577 l 1,4,5
 562 564 562 564 538 537.5 c 128,-1,6
 514 511 514 511 480 449 c 2,7,-1
 384 270 l 2,8,9
 366 235 366 235 366 132 c 0,10,11
 366 129 366 129 366 111.5 c 128,-1,12
 366 94 366 94 375.5 80.5 c 128,-1,13
 385 67 385 67 413 67 c 1,14,-1
 463 70 l 1,15,-1
 466 65 l 1,16,-1
 457 -4 l 1,17,18
 342 0 342 0 304 0 c 0,19,20
 253 0 253 0 136 -11 c 1,21,-1
 143 58 l 1,22,23
 200 65 200 65 216.5 83 c 128,-1,24
 233 101 233 101 233 152 c 2,25,-1
 233 182 l 2,26,27
 233 229 233 229 204 284 c 2,28,-1
 106 475 l 2,29,30
 82 523 82 523 59.5 544.5 c 128,-1,31
 37 566 37 566 -7 575 c 1,32,-1
 -10 580 l 1,33,-1
 -2 644 l 1,34,35
 87 641 87 641 127 641 c 1,36,-1
 287 649 l 1,37,-1
 292 640 l 1,38,-1
 287 582 l 1,39,40
 253 581 253 581 240 574 c 128,-1,41
 227 567 227 567 227 554.5 c 128,-1,42
 227 542 227 542 245 498 c 0,43,44
 285 399 285 399 312 346 c 1,45,-1
 322 346 l 1,46,-1
 401 511 l 2,47,48
 415 539 415 539 415 559 c 128,-1,49
 415 579 415 579 364 582 c 1,50,-1
 362 587 l 1,51,-1
 369 645 l 1,0,-1
497 775 m 1,52,-1
 491 762 l 1,53,54
 376 733 376 733 262 697 c 1,55,-1
 249 706 l 1,56,-1
 236 753 l 1,57,-1
 459 857 l 1,58,-1
 471 852 l 1,59,-1
 497 775 l 1,52,-1
EndSplineSet
EndChar

StartChar: Thorn
Encoding: 222 222 159
Width: 573
GlyphClass: 2
Flags: W
LayerCount: 2
Fore
SplineSet
260 536 m 2,0,1
 260 536 260 536 258 512 c 1,2,-1
 334 512 l 2,3,4
 561 512 561 512 561 336 c 0,5,6
 561 254 561 254 491 199 c 128,-1,7
 421 144 421 144 319 144 c 2,8,-1
 248 144 l 1,9,-1
 248 114 l 2,10,11
 248 84 248 84 255.5 74.5 c 128,-1,12
 263 65 263 65 286 65 c 1,13,-1
 334 68 l 1,14,-1
 338 61 l 1,15,-1
 329 -3 l 1,16,17
 222 0 222 0 186 0 c 0,18,19
 117 0 117 0 36 -9 c 1,20,-1
 43 56 l 1,21,22
 87 65 87 65 101.5 81.5 c 128,-1,23
 116 98 116 98 116 140 c 2,24,-1
 117 525 l 2,25,26
 117 556 117 556 110 566.5 c 128,-1,27
 103 577 103 577 81 577 c 2,28,-1
 46 576 l 1,29,-1
 41 584 l 1,30,-1
 48 643 l 1,31,-1
 188 642 l 1,32,-1
 330 649 l 1,33,-1
 324 582 l 1,34,35
 285 576 285 576 273.5 567.5 c 128,-1,36
 262 559 262 559 260 536 c 2,0,1
419 326 m 0,37,38
 419 381 419 381 385 406 c 128,-1,39
 351 431 351 431 277 431 c 0,40,41
 264 431 264 431 259.5 428 c 128,-1,42
 255 425 255 425 254 417 c 0,43,44
 249 295 249 295 249 232 c 1,45,46
 299 218 299 218 332 218 c 1,47,48
 419 232 419 232 419 326 c 0,37,38
EndSplineSet
EndChar

StartChar: germandbls
Encoding: 223 223 160
Width: 639
GlyphClass: 2
Flags: W
LayerCount: 2
Fore
SplineSet
390 92 m 128,-1,1
 413 68 413 68 444 68 c 128,-1,2
 475 68 475 68 492 85.5 c 128,-1,3
 509 103 509 103 509 128.5 c 128,-1,4
 509 154 509 154 487.5 174.5 c 128,-1,5
 466 195 466 195 435 212 c 128,-1,6
 404 229 404 229 373 248 c 128,-1,7
 342 267 342 267 320.5 297.5 c 128,-1,8
 299 328 299 328 299 363.5 c 128,-1,9
 299 399 299 399 317 428 c 128,-1,10
 335 457 335 457 356 476 c 0,11,12
 413 528 413 528 413 567 c 128,-1,13
 413 606 413 606 385.5 628.5 c 128,-1,14
 358 651 358 651 309 651 c 128,-1,15
 260 651 260 651 238 615.5 c 128,-1,16
 216 580 216 580 216 496 c 2,17,-1
 212 113 l 1,18,19
 210 67 210 67 245 67 c 2,20,-1
 282 68 l 1,21,-1
 285 64 l 1,22,-1
 276 -3 l 1,23,24
 199 0 199 0 170 0 c 128,-1,25
 141 0 141 0 108.5 -1.5 c 128,-1,26
 76 -3 76 -3 53.5 -4 c 128,-1,27
 31 -5 31 -5 31 -6 c 2,28,-1
 38 56 l 1,29,30
 70 60 70 60 81.5 73.5 c 128,-1,31
 93 87 93 87 93 120 c 2,32,-1
 93 346 l 1,33,34
 91 369 91 369 78.5 377 c 128,-1,35
 66 385 66 385 28 386 c 1,36,-1
 24 392 l 1,37,-1
 32 444 l 1,38,-1
 93 454 l 1,39,40
 93 590 93 590 159.5 666 c 128,-1,41
 226 742 226 742 345 742 c 0,42,43
 427 742 427 742 480 702 c 128,-1,44
 533 662 533 662 533 601 c 0,45,46
 533 567 533 567 515.5 536.5 c 128,-1,47
 498 506 498 506 477 487.5 c 128,-1,48
 456 469 456 469 438.5 444.5 c 128,-1,49
 421 420 421 420 421 398 c 128,-1,50
 421 376 421 376 443 356.5 c 128,-1,51
 465 337 465 337 496.5 320 c 128,-1,52
 528 303 528 303 559.5 283 c 128,-1,53
 591 263 591 263 613 230.5 c 128,-1,54
 635 198 635 198 635 156 c 0,55,56
 635 85 635 85 577.5 36.5 c 128,-1,57
 520 -12 520 -12 435 -12 c 0,58,59
 384 -12 384 -12 346 5 c 128,-1,60
 308 22 308 22 302 47 c 1,61,62
 303 68 303 68 316.5 103 c 128,-1,63
 330 138 330 138 345 157 c 1,64,-1
 365 156 l 1,65,0
 367 116 367 116 390 92 c 128,-1,1
EndSplineSet
EndChar

StartChar: agrave
Encoding: 224 224 161
Width: 479
GlyphClass: 2
Flags: W
LayerCount: 2
Fore
SplineSet
391 103 m 128,-1,1
 401 92 401 92 420 92 c 128,-1,2
 439 92 439 92 464 109 c 1,3,-1
 480 88 l 1,4,5
 466 59 466 59 435 26.5 c 128,-1,6
 404 -6 404 -6 383 -12 c 1,7,8
 291 -12 291 -12 282 65 c 1,9,-1
 274 68 l 1,10,11
 198 -8 198 -8 164 -8 c 0,12,13
 106 -8 106 -8 66.5 34 c 128,-1,14
 27 76 27 76 27 138 c 0,15,16
 27 169 27 169 43 192 c 128,-1,17
 59 215 59 215 85 221 c 2,18,-1
 277 266 l 1,19,-1
 278 289 l 1,20,21
 278 332 278 332 255.5 355.5 c 128,-1,22
 233 379 233 379 200 379 c 128,-1,23
 167 379 167 379 137.5 367.5 c 128,-1,24
 108 356 108 356 76 332 c 1,25,-1
 67 337 l 1,26,-1
 49 397 l 1,27,28
 186 474 186 474 234 474 c 0,29,30
 318 474 318 474 359.5 436.5 c 128,-1,31
 401 399 401 399 401 337 c 0,32,33
 401 321 401 321 391 238 c 128,-1,34
 381 155 381 155 381 134.5 c 128,-1,0
 381 114 381 114 391 103 c 128,-1,1
170 182 m 2,35,36
 147 175 147 175 147 149 c 128,-1,37
 147 123 147 123 162.5 106 c 128,-1,38
 178 89 178 89 206.5 89 c 128,-1,39
 235 89 235 89 273 117 c 1,40,-1
 275 211 l 1,41,-1
 170 182 l 2,35,36
93 652 m 1,42,-1
 92 666 l 1,43,-1
 146 736 l 1,44,-1
 159 737 l 1,45,46
 245 647 245 647 327 567 c 1,47,-1
 297 528 l 1,48,-1
 282 524 l 1,49,50
 205 582 205 582 93 652 c 1,42,-1
EndSplineSet
EndChar

StartChar: aacute
Encoding: 225 225 162
Width: 479
GlyphClass: 2
Flags: W
LayerCount: 2
Fore
SplineSet
391 103 m 128,-1,1
 401 92 401 92 420 92 c 128,-1,2
 439 92 439 92 464 109 c 1,3,-1
 480 88 l 1,4,5
 466 59 466 59 435 26.5 c 128,-1,6
 404 -6 404 -6 383 -12 c 1,7,8
 291 -12 291 -12 282 65 c 1,9,-1
 274 68 l 1,10,11
 198 -8 198 -8 164 -8 c 0,12,13
 106 -8 106 -8 66.5 34 c 128,-1,14
 27 76 27 76 27 138 c 0,15,16
 27 169 27 169 43 192 c 128,-1,17
 59 215 59 215 85 221 c 2,18,-1
 277 266 l 1,19,-1
 278 289 l 1,20,21
 278 332 278 332 255.5 355.5 c 128,-1,22
 233 379 233 379 200 379 c 128,-1,23
 167 379 167 379 137.5 367.5 c 128,-1,24
 108 356 108 356 76 332 c 1,25,-1
 67 337 l 1,26,-1
 49 397 l 1,27,28
 186 474 186 474 234 474 c 0,29,30
 318 474 318 474 359.5 436.5 c 128,-1,31
 401 399 401 399 401 337 c 0,32,33
 401 321 401 321 391 238 c 128,-1,34
 381 155 381 155 381 134.5 c 128,-1,0
 381 114 381 114 391 103 c 128,-1,1
170 182 m 2,35,36
 147 175 147 175 147 149 c 128,-1,37
 147 123 147 123 162.5 106 c 128,-1,38
 178 89 178 89 206.5 89 c 128,-1,39
 235 89 235 89 273 117 c 1,40,-1
 275 211 l 1,41,-1
 170 182 l 2,35,36
379 667 m 1,42,-1
 378 653 l 1,43,44
 282 593 282 593 189 524 c 1,45,-1
 174 528 l 1,46,-1
 144 567 l 1,47,48
 248 671 248 671 311 738 c 1,49,-1
 325 737 l 1,50,-1
 379 667 l 1,42,-1
EndSplineSet
EndChar

StartChar: acircumflex
Encoding: 226 226 163
Width: 479
GlyphClass: 2
Flags: W
LayerCount: 2
Fore
SplineSet
391 103 m 128,-1,1
 401 92 401 92 420 92 c 128,-1,2
 439 92 439 92 464 109 c 1,3,-1
 480 88 l 1,4,5
 466 59 466 59 435 26.5 c 128,-1,6
 404 -6 404 -6 383 -12 c 1,7,8
 291 -12 291 -12 282 65 c 1,9,-1
 274 68 l 1,10,11
 198 -8 198 -8 164 -8 c 0,12,13
 106 -8 106 -8 66.5 34 c 128,-1,14
 27 76 27 76 27 138 c 0,15,16
 27 169 27 169 43 192 c 128,-1,17
 59 215 59 215 85 221 c 2,18,-1
 277 266 l 1,19,-1
 278 289 l 1,20,21
 278 332 278 332 255.5 355.5 c 128,-1,22
 233 379 233 379 200 379 c 128,-1,23
 167 379 167 379 137.5 367.5 c 128,-1,24
 108 356 108 356 76 332 c 1,25,-1
 67 337 l 1,26,-1
 49 397 l 1,27,28
 186 474 186 474 234 474 c 0,29,30
 318 474 318 474 359.5 436.5 c 128,-1,31
 401 399 401 399 401 337 c 0,32,33
 401 321 401 321 391 238 c 128,-1,34
 381 155 381 155 381 134.5 c 128,-1,0
 381 114 381 114 391 103 c 128,-1,1
170 182 m 2,35,36
 147 175 147 175 147 149 c 128,-1,37
 147 123 147 123 162.5 106 c 128,-1,38
 178 89 178 89 206.5 89 c 128,-1,39
 235 89 235 89 273 117 c 1,40,-1
 275 211 l 1,41,-1
 170 182 l 2,35,36
96 535 m 1,42,-1
 67 576 l 1,43,44
 131 636 131 636 219 730 c 1,45,-1
 239 730 l 1,46,47
 319 644 319 644 390 576 c 1,48,-1
 361 535 l 1,49,-1
 346 531 l 1,50,51
 326 547 326 547 229 614 c 1,52,53
 158 568 158 568 112 531 c 1,54,-1
 96 535 l 1,42,-1
EndSplineSet
EndChar

StartChar: atilde
Encoding: 227 227 164
Width: 479
GlyphClass: 2
Flags: W
LayerCount: 2
Fore
SplineSet
391 103 m 128,-1,1
 401 92 401 92 420 92 c 128,-1,2
 439 92 439 92 464 109 c 1,3,-1
 480 88 l 1,4,5
 466 59 466 59 435 26.5 c 128,-1,6
 404 -6 404 -6 383 -12 c 1,7,8
 291 -12 291 -12 282 65 c 1,9,-1
 274 68 l 1,10,11
 198 -8 198 -8 164 -8 c 0,12,13
 106 -8 106 -8 66.5 34 c 128,-1,14
 27 76 27 76 27 138 c 0,15,16
 27 169 27 169 43 192 c 128,-1,17
 59 215 59 215 85 221 c 2,18,-1
 277 266 l 1,19,-1
 278 289 l 1,20,21
 278 332 278 332 255.5 355.5 c 128,-1,22
 233 379 233 379 200 379 c 128,-1,23
 167 379 167 379 137.5 367.5 c 128,-1,24
 108 356 108 356 76 332 c 1,25,-1
 67 337 l 1,26,-1
 49 397 l 1,27,28
 186 474 186 474 234 474 c 0,29,30
 318 474 318 474 359.5 436.5 c 128,-1,31
 401 399 401 399 401 337 c 0,32,33
 401 321 401 321 391 238 c 128,-1,34
 381 155 381 155 381 134.5 c 128,-1,0
 381 114 381 114 391 103 c 128,-1,1
170 182 m 2,35,36
 147 175 147 175 147 149 c 128,-1,37
 147 123 147 123 162.5 106 c 128,-1,38
 178 89 178 89 206.5 89 c 128,-1,39
 235 89 235 89 273 117 c 1,40,-1
 275 211 l 1,41,-1
 170 182 l 2,35,36
217 675.5 m 128,-1,43
 276 659 276 659 288 659 c 128,-1,44
 300 659 300 659 316.5 673 c 128,-1,45
 333 687 333 687 355 715 c 1,46,-1
 366 715 l 1,47,-1
 405 678 l 1,48,-1
 405 668 l 1,49,-1
 327 566 l 1,50,-1
 310 562 l 1,51,52
 293 562 293 562 234 579 c 128,-1,53
 175 596 175 596 162.5 596 c 128,-1,54
 150 596 150 596 133.5 582 c 128,-1,55
 117 568 117 568 96 540 c 1,56,-1
 85 540 l 1,57,-1
 45 576 l 1,58,-1
 45 587 l 1,59,-1
 124 688 l 1,60,-1
 140 692 l 1,61,42
 158 692 158 692 217 675.5 c 128,-1,43
EndSplineSet
EndChar

StartChar: adieresis
Encoding: 228 228 165
Width: 479
GlyphClass: 2
Flags: W
LayerCount: 2
Fore
SplineSet
391 103 m 128,-1,1
 401 92 401 92 420 92 c 128,-1,2
 439 92 439 92 464 109 c 1,3,-1
 480 88 l 1,4,5
 466 59 466 59 435 26.5 c 128,-1,6
 404 -6 404 -6 383 -12 c 1,7,8
 291 -12 291 -12 282 65 c 1,9,-1
 274 68 l 1,10,11
 198 -8 198 -8 164 -8 c 0,12,13
 106 -8 106 -8 66.5 34 c 128,-1,14
 27 76 27 76 27 138 c 0,15,16
 27 169 27 169 43 192 c 128,-1,17
 59 215 59 215 85 221 c 2,18,-1
 277 266 l 1,19,-1
 278 289 l 1,20,21
 278 332 278 332 255.5 355.5 c 128,-1,22
 233 379 233 379 200 379 c 128,-1,23
 167 379 167 379 137.5 367.5 c 128,-1,24
 108 356 108 356 76 332 c 1,25,-1
 67 337 l 1,26,-1
 49 397 l 1,27,28
 186 474 186 474 234 474 c 0,29,30
 318 474 318 474 359.5 436.5 c 128,-1,31
 401 399 401 399 401 337 c 0,32,33
 401 321 401 321 391 238 c 128,-1,34
 381 155 381 155 381 134.5 c 128,-1,0
 381 114 381 114 391 103 c 128,-1,1
170 182 m 2,35,36
 147 175 147 175 147 149 c 128,-1,37
 147 123 147 123 162.5 106 c 128,-1,38
 178 89 178 89 206.5 89 c 128,-1,39
 235 89 235 89 273 117 c 1,40,-1
 275 211 l 1,41,-1
 170 182 l 2,35,36
360.5 583 m 128,-1,43
 342 564 342 564 312.5 564 c 128,-1,44
 283 564 283 564 267.5 580.5 c 128,-1,45
 252 597 252 597 252 625.5 c 128,-1,46
 252 654 252 654 270.5 673 c 128,-1,47
 289 692 289 692 318.5 692 c 128,-1,48
 348 692 348 692 363.5 675.5 c 128,-1,49
 379 659 379 659 379 630.5 c 128,-1,42
 379 602 379 602 360.5 583 c 128,-1,43
182.5 583 m 128,-1,51
 164 564 164 564 134.5 564 c 128,-1,52
 105 564 105 564 89.5 580.5 c 128,-1,53
 74 597 74 597 74 625.5 c 128,-1,54
 74 654 74 654 92.5 673 c 128,-1,55
 111 692 111 692 140 692 c 128,-1,56
 169 692 169 692 185 675 c 128,-1,57
 201 658 201 658 201 630 c 128,-1,50
 201 602 201 602 182.5 583 c 128,-1,51
EndSplineSet
EndChar

StartChar: aring
Encoding: 229 229 166
Width: 479
GlyphClass: 2
Flags: W
LayerCount: 2
Fore
SplineSet
391 103 m 128,-1,1
 401 92 401 92 420 92 c 128,-1,2
 439 92 439 92 464 109 c 1,3,-1
 480 88 l 1,4,5
 466 59 466 59 435 26.5 c 128,-1,6
 404 -6 404 -6 383 -12 c 1,7,8
 291 -12 291 -12 282 65 c 1,9,-1
 274 68 l 1,10,11
 198 -8 198 -8 164 -8 c 0,12,13
 106 -8 106 -8 66.5 34 c 128,-1,14
 27 76 27 76 27 138 c 0,15,16
 27 169 27 169 43 192 c 128,-1,17
 59 215 59 215 85 221 c 2,18,-1
 277 266 l 1,19,-1
 278 289 l 1,20,21
 278 332 278 332 255.5 355.5 c 128,-1,22
 233 379 233 379 200 379 c 128,-1,23
 167 379 167 379 137.5 367.5 c 128,-1,24
 108 356 108 356 76 332 c 1,25,-1
 67 337 l 1,26,-1
 49 397 l 1,27,28
 186 474 186 474 234 474 c 0,29,30
 318 474 318 474 359.5 436.5 c 128,-1,31
 401 399 401 399 401 337 c 0,32,33
 401 321 401 321 391 238 c 128,-1,34
 381 155 381 155 381 134.5 c 128,-1,0
 381 114 381 114 391 103 c 128,-1,1
170 182 m 2,35,36
 147 175 147 175 147 149 c 128,-1,37
 147 123 147 123 162.5 106 c 128,-1,38
 178 89 178 89 206.5 89 c 128,-1,39
 235 89 235 89 273 117 c 1,40,-1
 275 211 l 1,41,-1
 170 182 l 2,35,36
231 597 m 0,42,43
 271 597 271 597 271 634 c 0,44,45
 271 675 271 675 228.5 675 c 128,-1,46
 186 675 186 675 186 640 c 0,47,48
 186 618 186 618 200 607.5 c 128,-1,49
 214 597 214 597 231 597 c 0,42,43
295 573.5 m 128,-1,51
 269 544 269 544 225.5 544 c 128,-1,52
 182 544 182 544 159 569 c 128,-1,53
 136 594 136 594 136 635 c 128,-1,54
 136 676 136 676 162.5 703 c 128,-1,55
 189 730 189 730 233 730 c 128,-1,56
 277 730 277 730 299 705 c 128,-1,57
 321 680 321 680 321 641.5 c 128,-1,50
 321 603 321 603 295 573.5 c 128,-1,51
EndSplineSet
EndChar

StartChar: ae
Encoding: 230 230 167
Width: 670
GlyphClass: 2
Flags: W
LayerCount: 2
Fore
SplineSet
487 -12 m 0,0,1
 350 -12 350 -12 296 86 c 1,2,3
 205 0 205 0 156 -8 c 1,4,5
 97 -8 97 -8 57.5 33.5 c 128,-1,6
 18 75 18 75 18 136 c 0,7,8
 18 169 18 169 36 193 c 128,-1,9
 54 217 54 217 83 223 c 2,10,-1
 264 261 l 1,11,-1
 265 292 l 1,12,13
 265 334 265 334 243 357 c 128,-1,14
 221 380 221 380 188 380 c 128,-1,15
 155 380 155 380 125 368 c 128,-1,16
 95 356 95 356 62 332 c 1,17,-1
 53 337 l 1,18,-1
 35 397 l 1,19,20
 173 474 173 474 220 474 c 0,21,22
 304 474 304 474 344 409 c 1,23,24
 403 474 403 474 494 474 c 0,25,26
 566 474 566 474 607 429.5 c 128,-1,27
 648 385 648 385 648 306 c 1,28,-1
 646 277 l 1,29,-1
 636 265 l 1,30,-1
 380 221 l 1,31,32
 387 155 387 155 420 119.5 c 128,-1,33
 453 84 453 84 509 84 c 0,34,35
 537 84 537 84 567 92 c 128,-1,36
 597 100 597 100 629 116 c 1,37,-1
 637 113 l 1,38,-1
 653 62 l 1,39,40
 642 54 642 54 624 41.5 c 128,-1,41
 606 29 606 29 562 8.5 c 128,-1,42
 518 -12 518 -12 487 -12 c 0,0,1
166 182 m 1,43,44
 137 176 137 176 137 148.5 c 128,-1,45
 137 121 137 121 152.5 104 c 128,-1,46
 168 87 168 87 191 87 c 0,47,48
 227 87 227 87 277 128 c 1,49,50
 264 165 264 165 264 208 c 1,51,-1
 166 182 l 1,43,44
522 321 m 0,52,53
 522 352 522 352 506 371 c 128,-1,54
 490 390 490 390 457.5 390 c 128,-1,55
 425 390 425 390 401.5 363.5 c 128,-1,56
 378 337 378 337 377 292 c 1,57,-1
 377 274 l 1,58,-1
 505 306 l 2,59,60
 522 311 522 311 522 321 c 0,52,53
EndSplineSet
EndChar

StartChar: ccedilla
Encoding: 231 231 168
Width: 432
GlyphClass: 2
Flags: W
LayerCount: 2
Fore
SplineSet
74.5 60.5 m 128,-1,1
 25 121 25 121 25 226 c 128,-1,2
 25 331 25 331 93.5 402.5 c 128,-1,3
 162 474 162 474 269 474 c 0,4,5
 339 474 339 474 381 458 c 1,6,-1
 396 453 l 1,7,-1
 400 444 l 1,8,9
 383 373 383 373 378 289 c 1,10,-1
 313 285 l 1,11,-1
 313 318 l 2,12,13
 313 389 313 389 251 389 c 0,14,15
 158 389 158 389 158 257 c 0,16,17
 158 175 158 175 186 132 c 128,-1,18
 214 89 214 89 267 89 c 0,19,20
 313 89 313 89 373 118 c 1,21,-1
 381 115 l 1,22,-1
 397 63 l 1,23,24
 323 2 323 2 265 -10 c 1,25,-1
 255 -44 l 1,26,27
 282 -60 282 -60 298.5 -70.5 c 128,-1,28
 315 -81 315 -81 333 -101.5 c 128,-1,29
 351 -122 351 -122 351 -141 c 0,30,31
 351 -180 351 -180 310.5 -208.5 c 128,-1,32
 270 -237 270 -237 218 -237 c 0,33,34
 190 -237 190 -237 165 -225 c 128,-1,35
 140 -213 140 -213 140 -194 c 128,-1,36
 140 -175 140 -175 177 -131 c 1,37,-1
 186 -131 l 1,38,39
 187 -158 187 -158 201 -172.5 c 128,-1,40
 215 -187 215 -187 235 -187 c 128,-1,41
 255 -187 255 -187 266.5 -178.5 c 128,-1,42
 278 -170 278 -170 278 -157 c 0,43,44
 278 -131 278 -131 192 -86 c 1,45,-1
 213 -10 l 1,46,0
 124 0 124 0 74.5 60.5 c 128,-1,1
EndSplineSet
EndChar

StartChar: egrave
Encoding: 232 232 169
Width: 463
GlyphClass: 2
Flags: W
LayerCount: 2
Fore
SplineSet
308 320 m 0,0,1
 308 394 308 394 245 394 c 0,2,3
 206 394 206 394 182.5 367.5 c 128,-1,4
 159 341 159 341 155 290 c 1,5,-1
 289 297 l 1,6,7
 300 299 300 299 304 303 c 128,-1,8
 308 307 308 307 308 320 c 0,0,1
155 234 m 1,9,-1
 155 225 l 1,10,11
 158 159 158 159 191 122.5 c 128,-1,12
 224 86 224 86 280 86 c 0,13,14
 308 86 308 86 338 93.5 c 128,-1,15
 368 101 368 101 400 116 c 1,16,-1
 408 113 l 1,17,-1
 424 62 l 1,18,19
 383 32 383 32 333.5 10 c 128,-1,20
 284 -12 284 -12 252 -12 c 0,21,22
 146 -12 146 -12 85.5 50 c 128,-1,23
 25 112 25 112 25 220 c 128,-1,24
 25 328 25 328 93 401 c 128,-1,25
 161 474 161 474 263 474 c 0,26,27
 431 474 431 474 431 302 c 0,28,29
 431 273 431 273 424 245 c 1,30,-1
 412 234 l 1,31,-1
 155 234 l 1,9,-1
115 651 m 1,32,-1
 114 665 l 1,33,-1
 168 735 l 1,34,-1
 181 736 l 1,35,36
 267 646 267 646 349 566 c 1,37,-1
 319 527 l 1,38,-1
 304 523 l 1,39,40
 227 581 227 581 115 651 c 1,32,-1
EndSplineSet
EndChar

StartChar: eacute
Encoding: 233 233 170
Width: 463
GlyphClass: 2
Flags: W
LayerCount: 2
Fore
SplineSet
308 320 m 0,0,1
 308 394 308 394 245 394 c 0,2,3
 206 394 206 394 182.5 367.5 c 128,-1,4
 159 341 159 341 155 290 c 1,5,-1
 289 297 l 1,6,7
 300 299 300 299 304 303 c 128,-1,8
 308 307 308 307 308 320 c 0,0,1
155 234 m 1,9,-1
 155 225 l 1,10,11
 158 159 158 159 191 122.5 c 128,-1,12
 224 86 224 86 280 86 c 0,13,14
 308 86 308 86 338 93.5 c 128,-1,15
 368 101 368 101 400 116 c 1,16,-1
 408 113 l 1,17,-1
 424 62 l 1,18,19
 383 32 383 32 333.5 10 c 128,-1,20
 284 -12 284 -12 252 -12 c 0,21,22
 146 -12 146 -12 85.5 50 c 128,-1,23
 25 112 25 112 25 220 c 128,-1,24
 25 328 25 328 93 401 c 128,-1,25
 161 474 161 474 263 474 c 0,26,27
 431 474 431 474 431 302 c 0,28,29
 431 273 431 273 424 245 c 1,30,-1
 412 234 l 1,31,-1
 155 234 l 1,9,-1
401 666 m 1,32,-1
 400 652 l 1,33,34
 304 592 304 592 211 523 c 1,35,-1
 196 527 l 1,36,-1
 166 566 l 1,37,38
 270 670 270 670 333 737 c 1,39,-1
 347 736 l 1,40,-1
 401 666 l 1,32,-1
EndSplineSet
EndChar

StartChar: ecircumflex
Encoding: 234 234 171
Width: 463
GlyphClass: 2
Flags: W
LayerCount: 2
Fore
SplineSet
308 320 m 0,0,1
 308 394 308 394 245 394 c 0,2,3
 206 394 206 394 182.5 367.5 c 128,-1,4
 159 341 159 341 155 290 c 1,5,-1
 289 297 l 1,6,7
 300 299 300 299 304 303 c 128,-1,8
 308 307 308 307 308 320 c 0,0,1
155 234 m 1,9,-1
 155 225 l 1,10,11
 158 159 158 159 191 122.5 c 128,-1,12
 224 86 224 86 280 86 c 0,13,14
 308 86 308 86 338 93.5 c 128,-1,15
 368 101 368 101 400 116 c 1,16,-1
 408 113 l 1,17,-1
 424 62 l 1,18,19
 383 32 383 32 333.5 10 c 128,-1,20
 284 -12 284 -12 252 -12 c 0,21,22
 146 -12 146 -12 85.5 50 c 128,-1,23
 25 112 25 112 25 220 c 128,-1,24
 25 328 25 328 93 401 c 128,-1,25
 161 474 161 474 263 474 c 0,26,27
 431 474 431 474 431 302 c 0,28,29
 431 273 431 273 424 245 c 1,30,-1
 412 234 l 1,31,-1
 155 234 l 1,9,-1
118 535 m 1,32,-1
 89 576 l 1,33,34
 153 636 153 636 241 730 c 1,35,-1
 261 730 l 1,36,37
 341 644 341 644 412 576 c 1,38,-1
 383 535 l 1,39,-1
 368 531 l 1,40,41
 348 547 348 547 251 614 c 1,42,43
 180 568 180 568 134 531 c 1,44,-1
 118 535 l 1,32,-1
EndSplineSet
EndChar

StartChar: edieresis
Encoding: 235 235 172
Width: 463
GlyphClass: 2
Flags: W
LayerCount: 2
Fore
SplineSet
308 320 m 0,0,1
 308 394 308 394 245 394 c 0,2,3
 206 394 206 394 182.5 367.5 c 128,-1,4
 159 341 159 341 155 290 c 1,5,-1
 289 297 l 1,6,7
 300 299 300 299 304 303 c 128,-1,8
 308 307 308 307 308 320 c 0,0,1
155 234 m 1,9,-1
 155 225 l 1,10,11
 158 159 158 159 191 122.5 c 128,-1,12
 224 86 224 86 280 86 c 0,13,14
 308 86 308 86 338 93.5 c 128,-1,15
 368 101 368 101 400 116 c 1,16,-1
 408 113 l 1,17,-1
 424 62 l 1,18,19
 383 32 383 32 333.5 10 c 128,-1,20
 284 -12 284 -12 252 -12 c 0,21,22
 146 -12 146 -12 85.5 50 c 128,-1,23
 25 112 25 112 25 220 c 128,-1,24
 25 328 25 328 93 401 c 128,-1,25
 161 474 161 474 263 474 c 0,26,27
 431 474 431 474 431 302 c 0,28,29
 431 273 431 273 424 245 c 1,30,-1
 412 234 l 1,31,-1
 155 234 l 1,9,-1
382.5 582 m 128,-1,33
 364 563 364 563 334.5 563 c 128,-1,34
 305 563 305 563 289.5 579.5 c 128,-1,35
 274 596 274 596 274 624.5 c 128,-1,36
 274 653 274 653 292.5 672 c 128,-1,37
 311 691 311 691 340.5 691 c 128,-1,38
 370 691 370 691 385.5 674.5 c 128,-1,39
 401 658 401 658 401 629.5 c 128,-1,32
 401 601 401 601 382.5 582 c 128,-1,33
204.5 581.5 m 128,-1,41
 186 563 186 563 156.5 563 c 128,-1,42
 127 563 127 563 111.5 579.5 c 128,-1,43
 96 596 96 596 96 624.5 c 128,-1,44
 96 653 96 653 114.5 672 c 128,-1,45
 133 691 133 691 162 691 c 128,-1,46
 191 691 191 691 207 674 c 128,-1,47
 223 657 223 657 223 628.5 c 128,-1,40
 223 600 223 600 204.5 581.5 c 128,-1,41
EndSplineSet
EndChar

StartChar: igrave
Encoding: 236 236 173
Width: 293
GlyphClass: 2
Flags: W
LayerCount: 2
Fore
SplineSet
91 115 m 2,0,-1
 91 329 l 2,1,2
 91 360 91 360 81.5 372.5 c 128,-1,3
 72 385 72 385 48 385 c 1,4,-1
 25 382 l 1,5,-1
 31 441 l 1,6,7
 100 449 100 449 223 474 c 1,8,-1
 232 457 l 1,9,10
 208 407 208 407 208 106 c 0,11,12
 208 62 208 62 239 62 c 1,13,-1
 268 64 l 1,14,-1
 270 60 l 1,15,-1
 260 -3 l 1,16,17
 191 0 191 0 159 0 c 0,18,19
 112 0 112 0 26 -11 c 1,20,-1
 34 53 l 1,21,22
 91 63 91 63 91 115 c 2,0,-1
12 651 m 1,23,-1
 11 665 l 1,24,-1
 65 735 l 1,25,-1
 78 736 l 1,26,27
 164 646 164 646 246 566 c 1,28,-1
 216 527 l 1,29,-1
 201 523 l 1,30,31
 124 581 124 581 12 651 c 1,23,-1
EndSplineSet
EndChar

StartChar: iacute
Encoding: 237 237 174
Width: 293
GlyphClass: 2
Flags: W
LayerCount: 2
Fore
SplineSet
91 115 m 2,0,-1
 91 329 l 2,1,2
 91 360 91 360 81.5 372.5 c 128,-1,3
 72 385 72 385 48 385 c 1,4,-1
 25 382 l 1,5,-1
 31 441 l 1,6,7
 100 449 100 449 223 474 c 1,8,-1
 232 457 l 1,9,10
 208 407 208 407 208 106 c 0,11,12
 208 62 208 62 239 62 c 1,13,-1
 268 64 l 1,14,-1
 270 60 l 1,15,-1
 260 -3 l 1,16,17
 191 0 191 0 159 0 c 0,18,19
 112 0 112 0 26 -11 c 1,20,-1
 34 53 l 1,21,22
 91 63 91 63 91 115 c 2,0,-1
302 666 m 1,23,-1
 301 652 l 1,24,25
 205 592 205 592 112 523 c 1,26,-1
 97 527 l 1,27,-1
 67 566 l 1,28,29
 171 670 171 670 234 737 c 1,30,-1
 248 736 l 1,31,-1
 302 666 l 1,23,-1
EndSplineSet
EndChar

StartChar: icircumflex
Encoding: 238 238 175
Width: 293
GlyphClass: 2
Flags: W
LayerCount: 2
Fore
SplineSet
91 115 m 2,0,-1
 91 329 l 2,1,2
 91 360 91 360 81.5 372.5 c 128,-1,3
 72 385 72 385 48 385 c 1,4,-1
 25 382 l 1,5,-1
 31 441 l 1,6,7
 100 449 100 449 223 474 c 1,8,-1
 232 457 l 1,9,10
 208 407 208 407 208 106 c 0,11,12
 208 62 208 62 239 62 c 1,13,-1
 268 64 l 1,14,-1
 270 60 l 1,15,-1
 260 -3 l 1,16,17
 191 0 191 0 159 0 c 0,18,19
 112 0 112 0 26 -11 c 1,20,-1
 34 53 l 1,21,22
 91 63 91 63 91 115 c 2,0,-1
21 534 m 1,23,-1
 -8 575 l 1,24,25
 56 635 56 635 144 729 c 1,26,-1
 164 729 l 1,27,28
 244 643 244 643 315 575 c 1,29,-1
 286 534 l 1,30,-1
 271 530 l 1,31,32
 251 546 251 546 154 613 c 1,33,34
 83 567 83 567 37 530 c 1,35,-1
 21 534 l 1,23,-1
EndSplineSet
EndChar

StartChar: idieresis
Encoding: 239 239 176
Width: 293
GlyphClass: 2
Flags: W
LayerCount: 2
Fore
SplineSet
91 115 m 2,0,-1
 91 329 l 2,1,2
 91 360 91 360 81.5 372.5 c 128,-1,3
 72 385 72 385 48 385 c 1,4,-1
 25 382 l 1,5,-1
 31 441 l 1,6,7
 100 449 100 449 223 474 c 1,8,-1
 232 457 l 1,9,10
 208 407 208 407 208 106 c 0,11,12
 208 62 208 62 239 62 c 1,13,-1
 268 64 l 1,14,-1
 270 60 l 1,15,-1
 260 -3 l 1,16,17
 191 0 191 0 159 0 c 0,18,19
 112 0 112 0 26 -11 c 1,20,-1
 34 53 l 1,21,22
 91 63 91 63 91 115 c 2,0,-1
284.5 582 m 128,-1,24
 266 563 266 563 236.5 563 c 128,-1,25
 207 563 207 563 191.5 579.5 c 128,-1,26
 176 596 176 596 176 624.5 c 128,-1,27
 176 653 176 653 194.5 672 c 128,-1,28
 213 691 213 691 242.5 691 c 128,-1,29
 272 691 272 691 287.5 674.5 c 128,-1,30
 303 658 303 658 303 629.5 c 128,-1,23
 303 601 303 601 284.5 582 c 128,-1,24
106.5 581.5 m 128,-1,32
 88 563 88 563 58.5 563 c 128,-1,33
 29 563 29 563 13.5 579.5 c 128,-1,34
 -2 596 -2 596 -2 624.5 c 128,-1,35
 -2 653 -2 653 16.5 672 c 128,-1,36
 35 691 35 691 64 691 c 128,-1,37
 93 691 93 691 109 674 c 128,-1,38
 125 657 125 657 125 628.5 c 128,-1,31
 125 600 125 600 106.5 581.5 c 128,-1,32
EndSplineSet
EndChar

StartChar: eth
Encoding: 240 240 177
Width: 508
GlyphClass: 2
Flags: W
LayerCount: 2
Fore
SplineSet
479 250 m 0,0,1
 479 133 479 133 414 60.5 c 128,-1,2
 349 -12 349 -12 247 -12 c 128,-1,3
 145 -12 145 -12 87 48 c 128,-1,4
 29 108 29 108 29 212.5 c 128,-1,5
 29 317 29 317 87.5 390 c 128,-1,6
 146 463 146 463 232 463 c 1,7,8
 247 460 247 460 290 439 c 1,9,-1
 293 444 l 1,10,11
 263 505 263 505 216 550 c 1,12,-1
 87 486 l 1,13,-1
 78 489 l 1,14,-1
 61 550 l 1,15,-1
 160 599 l 1,16,17
 108 642 108 642 37 680 c 1,18,-1
 69 736 l 1,19,-1
 82 741 l 1,20,21
 177 700 177 700 251 646 c 1,22,-1
 392 716 l 1,23,-1
 401 711 l 1,24,-1
 418 652 l 1,25,-1
 311 599 l 1,26,27
 479 445 479 445 479 250 c 0,0,1
344 204 m 0,28,29
 344 283 344 283 329 349 c 1,30,31
 298 375 298 375 251 375 c 128,-1,32
 204 375 204 375 183 342.5 c 128,-1,33
 162 310 162 310 162 230.5 c 128,-1,34
 162 151 162 151 189 108 c 128,-1,35
 216 65 216 65 266 65 c 0,36,37
 344 65 344 65 344 204 c 0,28,29
EndSplineSet
EndChar

StartChar: ntilde
Encoding: 241 241 178
Width: 570
GlyphClass: 2
Flags: W
LayerCount: 2
Fore
SplineSet
303 369 m 0,0,1
 269 369 269 369 217 332 c 1,2,3
 207 149 207 149 207 116 c 128,-1,4
 207 83 207 83 213.5 73 c 128,-1,5
 220 63 220 63 237 63 c 1,6,-1
 263 65 l 1,7,-1
 266 60 l 1,8,-1
 255 -3 l 1,9,10
 189 0 189 0 149 0 c 1,11,-1
 30 -6 l 1,12,-1
 38 58 l 1,13,14
 67 61 67 61 78.5 73 c 128,-1,15
 90 85 90 85 90 113 c 2,16,-1
 90 323 l 2,17,18
 90 358 90 358 79.5 370.5 c 128,-1,19
 69 383 69 383 41 383 c 2,20,-1
 28 383 l 1,21,-1
 24 388 l 1,22,-1
 30 441 l 1,23,-1
 216 474 l 1,24,-1
 224 464 l 1,25,26
 215 429 215 429 213 395 c 1,27,-1
 217 391 l 1,28,29
 312 474 312 474 346 474 c 0,30,31
 417 474 417 474 457 439.5 c 128,-1,32
 497 405 497 405 497 344 c 0,33,34
 497 326 497 326 488 230.5 c 128,-1,35
 479 135 479 135 479 109 c 128,-1,36
 479 83 479 83 486 72.5 c 128,-1,37
 493 62 493 62 510 62 c 2,38,-1
 540 63 l 1,39,-1
 542 59 l 1,40,-1
 533 -3 l 1,41,42
 462 0 462 0 424 0 c 1,43,-1
 312 -8 l 1,44,-1
 318 55 l 1,45,46
 363 66 363 66 364 111 c 2,47,-1
 367 282 l 1,48,49
 367 369 367 369 303 369 c 0,0,1
289 674.5 m 128,-1,51
 348 658 348 658 360 658 c 128,-1,52
 372 658 372 658 388.5 672 c 128,-1,53
 405 686 405 686 427 714 c 1,54,-1
 438 714 l 1,55,-1
 477 677 l 1,56,-1
 477 667 l 1,57,-1
 399 565 l 1,58,-1
 382 561 l 1,59,60
 365 561 365 561 306 578 c 128,-1,61
 247 595 247 595 234.5 595 c 128,-1,62
 222 595 222 595 205.5 581 c 128,-1,63
 189 567 189 567 168 539 c 1,64,-1
 157 539 l 1,65,-1
 117 575 l 1,66,-1
 117 586 l 1,67,-1
 196 687 l 1,68,-1
 212 691 l 1,69,50
 230 691 230 691 289 674.5 c 128,-1,51
EndSplineSet
EndChar

StartChar: ograve
Encoding: 242 242 179
Width: 503
GlyphClass: 2
Flags: W
LayerCount: 2
Fore
SplineSet
411.5 59 m 128,-1,1
 345 -12 345 -12 243 -12 c 128,-1,2
 141 -12 141 -12 83 50.5 c 128,-1,3
 25 113 25 113 25 222.5 c 128,-1,4
 25 332 25 332 92 403 c 128,-1,5
 159 474 159 474 261.5 474 c 128,-1,6
 364 474 364 474 421 412.5 c 128,-1,7
 478 351 478 351 478 240.5 c 128,-1,0
 478 130 478 130 411.5 59 c 128,-1,1
257 65 m 0,8,9
 343 65 343 65 343 199 c 0,10,11
 343 388 343 388 244 388 c 0,12,13
 158 388 158 388 158 254 c 0,14,15
 158 65 158 65 257 65 c 0,8,9
123 651 m 1,16,-1
 122 665 l 1,17,-1
 176 735 l 1,18,-1
 189 736 l 1,19,20
 275 646 275 646 357 566 c 1,21,-1
 327 527 l 1,22,-1
 312 523 l 1,23,24
 235 581 235 581 123 651 c 1,16,-1
EndSplineSet
EndChar

StartChar: oacute
Encoding: 243 243 180
Width: 503
GlyphClass: 2
Flags: W
LayerCount: 2
Fore
SplineSet
411.5 59 m 128,-1,1
 345 -12 345 -12 243 -12 c 128,-1,2
 141 -12 141 -12 83 50.5 c 128,-1,3
 25 113 25 113 25 222.5 c 128,-1,4
 25 332 25 332 92 403 c 128,-1,5
 159 474 159 474 261.5 474 c 128,-1,6
 364 474 364 474 421 412.5 c 128,-1,7
 478 351 478 351 478 240.5 c 128,-1,0
 478 130 478 130 411.5 59 c 128,-1,1
257 65 m 0,8,9
 343 65 343 65 343 199 c 0,10,11
 343 388 343 388 244 388 c 0,12,13
 158 388 158 388 158 254 c 0,14,15
 158 65 158 65 257 65 c 0,8,9
410 666 m 1,16,-1
 409 652 l 1,17,18
 313 592 313 592 220 523 c 1,19,-1
 205 527 l 1,20,-1
 175 566 l 1,21,22
 279 670 279 670 342 737 c 1,23,-1
 356 736 l 1,24,-1
 410 666 l 1,16,-1
EndSplineSet
EndChar

StartChar: ocircumflex
Encoding: 244 244 181
Width: 503
GlyphClass: 2
Flags: W
LayerCount: 2
Fore
SplineSet
411.5 59 m 128,-1,1
 345 -12 345 -12 243 -12 c 128,-1,2
 141 -12 141 -12 83 50.5 c 128,-1,3
 25 113 25 113 25 222.5 c 128,-1,4
 25 332 25 332 92 403 c 128,-1,5
 159 474 159 474 261.5 474 c 128,-1,6
 364 474 364 474 421 412.5 c 128,-1,7
 478 351 478 351 478 240.5 c 128,-1,0
 478 130 478 130 411.5 59 c 128,-1,1
257 65 m 0,8,9
 343 65 343 65 343 199 c 0,10,11
 343 388 343 388 244 388 c 0,12,13
 158 388 158 388 158 254 c 0,14,15
 158 65 158 65 257 65 c 0,8,9
127 535 m 1,16,-1
 98 576 l 1,17,18
 162 636 162 636 250 730 c 1,19,-1
 270 730 l 1,20,21
 350 644 350 644 421 576 c 1,22,-1
 392 535 l 1,23,-1
 377 531 l 1,24,25
 357 547 357 547 260 614 c 1,26,27
 189 568 189 568 143 531 c 1,28,-1
 127 535 l 1,16,-1
EndSplineSet
EndChar

StartChar: otilde
Encoding: 245 245 182
Width: 503
GlyphClass: 2
Flags: W
LayerCount: 2
Fore
SplineSet
411.5 59 m 128,-1,1
 345 -12 345 -12 243 -12 c 128,-1,2
 141 -12 141 -12 83 50.5 c 128,-1,3
 25 113 25 113 25 222.5 c 128,-1,4
 25 332 25 332 92 403 c 128,-1,5
 159 474 159 474 261.5 474 c 128,-1,6
 364 474 364 474 421 412.5 c 128,-1,7
 478 351 478 351 478 240.5 c 128,-1,0
 478 130 478 130 411.5 59 c 128,-1,1
257 65 m 0,8,9
 343 65 343 65 343 199 c 0,10,11
 343 388 343 388 244 388 c 0,12,13
 158 388 158 388 158 254 c 0,14,15
 158 65 158 65 257 65 c 0,8,9
248 674.5 m 128,-1,17
 307 658 307 658 319 658 c 128,-1,18
 331 658 331 658 347.5 672 c 128,-1,19
 364 686 364 686 386 714 c 1,20,-1
 397 714 l 1,21,-1
 436 677 l 1,22,-1
 436 667 l 1,23,-1
 358 565 l 1,24,-1
 341 561 l 1,25,26
 324 561 324 561 265 578 c 128,-1,27
 206 595 206 595 193.5 595 c 128,-1,28
 181 595 181 595 164.5 581 c 128,-1,29
 148 567 148 567 127 539 c 1,30,-1
 116 539 l 1,31,-1
 76 575 l 1,32,-1
 76 586 l 1,33,-1
 155 687 l 1,34,-1
 171 691 l 1,35,16
 189 691 189 691 248 674.5 c 128,-1,17
EndSplineSet
EndChar

StartChar: odieresis
Encoding: 246 246 183
Width: 503
GlyphClass: 2
Flags: W
LayerCount: 2
Fore
SplineSet
411.5 59 m 128,-1,1
 345 -12 345 -12 243 -12 c 128,-1,2
 141 -12 141 -12 83 50.5 c 128,-1,3
 25 113 25 113 25 222.5 c 128,-1,4
 25 332 25 332 92 403 c 128,-1,5
 159 474 159 474 261.5 474 c 128,-1,6
 364 474 364 474 421 412.5 c 128,-1,7
 478 351 478 351 478 240.5 c 128,-1,0
 478 130 478 130 411.5 59 c 128,-1,1
257 65 m 0,8,9
 343 65 343 65 343 199 c 0,10,11
 343 388 343 388 244 388 c 0,12,13
 158 388 158 388 158 254 c 0,14,15
 158 65 158 65 257 65 c 0,8,9
391.5 582 m 128,-1,17
 373 563 373 563 343.5 563 c 128,-1,18
 314 563 314 563 298.5 579.5 c 128,-1,19
 283 596 283 596 283 624.5 c 128,-1,20
 283 653 283 653 301.5 672 c 128,-1,21
 320 691 320 691 349.5 691 c 128,-1,22
 379 691 379 691 394.5 674.5 c 128,-1,23
 410 658 410 658 410 629.5 c 128,-1,16
 410 601 410 601 391.5 582 c 128,-1,17
213 581.5 m 128,-1,25
 194 563 194 563 165 563 c 128,-1,26
 136 563 136 563 120.5 579.5 c 128,-1,27
 105 596 105 596 105 624.5 c 128,-1,28
 105 653 105 653 123.5 672 c 128,-1,29
 142 691 142 691 171 691 c 128,-1,30
 200 691 200 691 216 674 c 128,-1,31
 232 657 232 657 232 628.5 c 128,-1,24
 232 600 232 600 213 581.5 c 128,-1,25
EndSplineSet
EndChar

StartChar: divide
Encoding: 247 247 184
Width: 506
GlyphClass: 2
Flags: W
LayerCount: 2
Fore
SplineSet
482 312 m 1,0,-1
 489 300 l 1,1,-1
 479 208 l 1,2,-1
 24 206 l 1,3,-1
 17 217 l 1,4,-1
 31 307 l 1,5,6
 176 306 176 306 265 306 c 1,7,-1
 482 312 l 1,0,-1
299.5 28 m 128,-1,9
 279 7 279 7 245.5 7 c 128,-1,10
 212 7 212 7 194.5 26 c 128,-1,11
 177 45 177 45 177 77 c 128,-1,12
 177 109 177 109 197.5 130 c 128,-1,13
 218 151 218 151 251 151 c 128,-1,14
 284 151 284 151 302 132 c 128,-1,15
 320 113 320 113 320 81 c 128,-1,8
 320 49 320 49 299.5 28 c 128,-1,9
299.5 383 m 128,-1,17
 279 362 279 362 245.5 362 c 128,-1,18
 212 362 212 362 194.5 381 c 128,-1,19
 177 400 177 400 177 432 c 128,-1,20
 177 464 177 464 197.5 485 c 128,-1,21
 218 506 218 506 251 506 c 128,-1,22
 284 506 284 506 302 487 c 128,-1,23
 320 468 320 468 320 436 c 128,-1,16
 320 404 320 404 299.5 383 c 128,-1,17
EndSplineSet
EndChar

StartChar: oslash
Encoding: 248 248 185
Width: 503
GlyphClass: 2
Flags: W
LayerCount: 2
Fore
SplineSet
95 39 m 1,0,1
 25 101 25 101 25 216.5 c 128,-1,2
 25 332 25 332 92 403 c 128,-1,3
 159 474 159 474 267 474 c 0,4,5
 304 474 304 474 343 462 c 1,6,-1
 410 572 l 1,7,-1
 471 542 l 1,8,-1
 474 530 l 1,9,-1
 409 424 l 1,10,11
 478 361 478 361 478 245.5 c 128,-1,12
 478 130 478 130 411.5 59 c 128,-1,13
 345 -12 345 -12 237 -12 c 0,14,15
 197 -12 197 -12 158 1 c 1,16,-1
 86 -117 l 1,17,-1
 27 -88 l 1,18,-1
 24 -78 l 1,19,-1
 95 39 l 1,0,1
257 65 m 0,20,21
 343 65 343 65 343 199 c 0,22,23
 343 259 343 259 333 296 c 1,24,-1
 207 82 l 1,25,26
 227 65 227 65 257 65 c 0,20,21
158 254 m 0,27,28
 158 199 158 199 167 160 c 1,29,-1
 291 373 l 1,30,31
 270 388 270 388 244 388 c 0,32,33
 158 388 158 388 158 254 c 0,27,28
EndSplineSet
EndChar

StartChar: ugrave
Encoding: 249 249 186
Width: 547
GlyphClass: 2
Flags: W
LayerCount: 2
Fore
SplineSet
487 92 m 0,0,1
 509 92 509 92 534 109 c 1,2,-1
 550 88 l 1,3,4
 532 58 532 58 499.5 25.5 c 128,-1,5
 467 -7 467 -7 445 -12 c 1,6,7
 354 -12 354 -12 343 65 c 1,8,-1
 335 69 l 1,9,10
 250 -11 250 -11 224 -11 c 0,11,12
 147 -11 147 -11 107 21.5 c 128,-1,13
 67 54 67 54 67 115 c 1,14,-1
 74 336 l 1,15,16
 74 385 74 385 41 385 c 1,17,-1
 15 382 l 1,18,-1
 21 441 l 1,19,-1
 204 474 l 1,20,-1
 214 457 l 1,21,22
 203 433 203 433 195 348.5 c 128,-1,23
 187 264 187 264 187 179 c 128,-1,24
 187 94 187 94 249 94 c 0,25,26
 277 94 277 94 334 131 c 1,27,-1
 334 335 l 2,28,29
 334 364 334 364 326 374 c 1,30,31
 314 386 314 386 274 383 c 1,32,-1
 282 441 l 1,33,-1
 469 472 l 1,34,-1
 479 455 l 1,35,36
 468 432 468 432 460 338.5 c 128,-1,37
 452 245 452 245 452 133 c 0,38,39
 452 92 452 92 487 92 c 0,0,1
130 651 m 1,40,-1
 129 665 l 1,41,-1
 183 735 l 1,42,-1
 196 736 l 1,43,44
 282 646 282 646 364 566 c 1,45,-1
 334 527 l 1,46,-1
 319 523 l 1,47,48
 242 581 242 581 130 651 c 1,40,-1
EndSplineSet
EndChar

StartChar: uacute
Encoding: 250 250 187
Width: 547
GlyphClass: 2
Flags: W
LayerCount: 2
Fore
SplineSet
487 92 m 0,0,1
 509 92 509 92 534 109 c 1,2,-1
 550 88 l 1,3,4
 532 58 532 58 499.5 25.5 c 128,-1,5
 467 -7 467 -7 445 -12 c 1,6,7
 354 -12 354 -12 343 65 c 1,8,-1
 335 69 l 1,9,10
 250 -11 250 -11 224 -11 c 0,11,12
 147 -11 147 -11 107 21.5 c 128,-1,13
 67 54 67 54 67 115 c 1,14,-1
 74 336 l 1,15,16
 74 385 74 385 41 385 c 1,17,-1
 15 382 l 1,18,-1
 21 441 l 1,19,-1
 204 474 l 1,20,-1
 214 457 l 1,21,22
 203 433 203 433 195 348.5 c 128,-1,23
 187 264 187 264 187 179 c 128,-1,24
 187 94 187 94 249 94 c 0,25,26
 277 94 277 94 334 131 c 1,27,-1
 334 335 l 2,28,29
 334 364 334 364 326 374 c 1,30,31
 314 386 314 386 274 383 c 1,32,-1
 282 441 l 1,33,-1
 469 472 l 1,34,-1
 479 455 l 1,35,36
 468 432 468 432 460 338.5 c 128,-1,37
 452 245 452 245 452 133 c 0,38,39
 452 92 452 92 487 92 c 0,0,1
416 666 m 1,40,-1
 415 652 l 1,41,42
 319 592 319 592 226 523 c 1,43,-1
 211 527 l 1,44,-1
 181 566 l 1,45,46
 285 670 285 670 348 737 c 1,47,-1
 362 736 l 1,48,-1
 416 666 l 1,40,-1
EndSplineSet
EndChar

StartChar: ucircumflex
Encoding: 251 251 188
Width: 547
GlyphClass: 2
Flags: W
LayerCount: 2
Fore
SplineSet
487 92 m 0,0,1
 509 92 509 92 534 109 c 1,2,-1
 550 88 l 1,3,4
 532 58 532 58 499.5 25.5 c 128,-1,5
 467 -7 467 -7 445 -12 c 1,6,7
 354 -12 354 -12 343 65 c 1,8,-1
 335 69 l 1,9,10
 250 -11 250 -11 224 -11 c 0,11,12
 147 -11 147 -11 107 21.5 c 128,-1,13
 67 54 67 54 67 115 c 1,14,-1
 74 336 l 1,15,16
 74 385 74 385 41 385 c 1,17,-1
 15 382 l 1,18,-1
 21 441 l 1,19,-1
 204 474 l 1,20,-1
 214 457 l 1,21,22
 203 433 203 433 195 348.5 c 128,-1,23
 187 264 187 264 187 179 c 128,-1,24
 187 94 187 94 249 94 c 0,25,26
 277 94 277 94 334 131 c 1,27,-1
 334 335 l 2,28,29
 334 364 334 364 326 374 c 1,30,31
 314 386 314 386 274 383 c 1,32,-1
 282 441 l 1,33,-1
 469 472 l 1,34,-1
 479 455 l 1,35,36
 468 432 468 432 460 338.5 c 128,-1,37
 452 245 452 245 452 133 c 0,38,39
 452 92 452 92 487 92 c 0,0,1
133 535 m 1,40,-1
 104 576 l 1,41,42
 168 636 168 636 256 730 c 1,43,-1
 276 730 l 1,44,45
 356 644 356 644 427 576 c 1,46,-1
 398 535 l 1,47,-1
 383 531 l 1,48,49
 363 547 363 547 266 614 c 1,50,51
 195 568 195 568 149 531 c 1,52,-1
 133 535 l 1,40,-1
EndSplineSet
EndChar

StartChar: udieresis
Encoding: 252 252 189
Width: 547
GlyphClass: 2
Flags: W
LayerCount: 2
Fore
SplineSet
487 92 m 0,0,1
 509 92 509 92 534 109 c 1,2,-1
 550 88 l 1,3,4
 532 58 532 58 499.5 25.5 c 128,-1,5
 467 -7 467 -7 445 -12 c 1,6,7
 354 -12 354 -12 343 65 c 1,8,-1
 335 69 l 1,9,10
 250 -11 250 -11 224 -11 c 0,11,12
 147 -11 147 -11 107 21.5 c 128,-1,13
 67 54 67 54 67 115 c 1,14,-1
 74 336 l 1,15,16
 74 385 74 385 41 385 c 1,17,-1
 15 382 l 1,18,-1
 21 441 l 1,19,-1
 204 474 l 1,20,-1
 214 457 l 1,21,22
 203 433 203 433 195 348.5 c 128,-1,23
 187 264 187 264 187 179 c 128,-1,24
 187 94 187 94 249 94 c 0,25,26
 277 94 277 94 334 131 c 1,27,-1
 334 335 l 2,28,29
 334 364 334 364 326 374 c 1,30,31
 314 386 314 386 274 383 c 1,32,-1
 282 441 l 1,33,-1
 469 472 l 1,34,-1
 479 455 l 1,35,36
 468 432 468 432 460 338.5 c 128,-1,37
 452 245 452 245 452 133 c 0,38,39
 452 92 452 92 487 92 c 0,0,1
397.5 582 m 128,-1,41
 379 563 379 563 349.5 563 c 128,-1,42
 320 563 320 563 304.5 579.5 c 128,-1,43
 289 596 289 596 289 624.5 c 128,-1,44
 289 653 289 653 307.5 672 c 128,-1,45
 326 691 326 691 355.5 691 c 128,-1,46
 385 691 385 691 400.5 674.5 c 128,-1,47
 416 658 416 658 416 629.5 c 128,-1,40
 416 601 416 601 397.5 582 c 128,-1,41
219 581.5 m 128,-1,49
 200 563 200 563 171 563 c 128,-1,50
 142 563 142 563 126.5 579.5 c 128,-1,51
 111 596 111 596 111 624.5 c 128,-1,52
 111 653 111 653 129.5 672 c 128,-1,53
 148 691 148 691 177 691 c 128,-1,54
 206 691 206 691 222 674 c 128,-1,55
 238 657 238 657 238 628.5 c 128,-1,48
 238 600 238 600 219 581.5 c 128,-1,49
EndSplineSet
EndChar

StartChar: yacute
Encoding: 253 253 190
Width: 465
GlyphClass: 2
Flags: W
LayerCount: 2
Fore
SplineSet
248 132 m 1,0,1
 338 364 338 364 338 378.5 c 128,-1,2
 338 393 338 393 332 397.5 c 128,-1,3
 326 402 326 402 309 402 c 2,4,-1
 277 402 l 1,5,-1
 274 407 l 1,6,-1
 282 465 l 1,7,8
 343 462 343 462 388 462 c 2,9,-1
 481 462 l 1,10,-1
 473 401 l 1,11,12
 451 396 451 396 441 386.5 c 128,-1,13
 431 377 431 377 422 352 c 1,14,-1
 294 43 l 2,15,16
 230 -111 230 -111 175 -176 c 128,-1,17
 120 -241 120 -241 55 -241 c 0,18,19
 54 -241 54 -241 53 -241 c 0,20,21
 39 -241 39 -241 8 -208.5 c 128,-1,22
 -23 -176 -23 -176 -23 -160 c 1,23,-1
 -15 -147 l 1,24,25
 117 -136 117 -136 186 -9 c 1,26,27
 94 250 94 250 48 357 c 1,28,29
 27 399 27 399 -12 400 c 1,30,-1
 -14 405 l 1,31,-1
 -7 462 l 1,32,-1
 71 462 l 2,33,34
 130 462 130 462 177 465 c 128,-1,35
 224 468 224 468 224 469 c 2,36,-1
 226 464 l 1,37,-1
 217 405 l 1,38,39
 189 404 189 404 179 398.5 c 128,-1,40
 169 393 169 393 169 380 c 0,41,42
 169 352 169 352 237 132 c 1,43,-1
 248 132 l 1,0,1
401 666 m 1,44,-1
 400 652 l 1,45,46
 304 592 304 592 211 523 c 1,47,-1
 196 527 l 1,48,-1
 166 566 l 1,49,50
 270 670 270 670 333 737 c 1,51,-1
 347 736 l 1,52,-1
 401 666 l 1,44,-1
EndSplineSet
EndChar

StartChar: thorn
Encoding: 254 254 191
Width: 513
GlyphClass: 2
Flags: W
LayerCount: 2
Fore
SplineSet
258 -232 m 1,0,-1
 148 -230 l 2,1,2
 116 -230 116 -230 60 -232.5 c 128,-1,3
 4 -235 4 -235 4 -236 c 2,4,-1
 13 -174 l 1,5,6
 47 -170 47 -170 55 -156 c 128,-1,7
 63 -142 63 -142 64 -97 c 2,8,-1
 68 75 l 1,9,-1
 68 597 l 2,10,11
 68 629 68 629 59 641 c 128,-1,12
 50 653 50 653 26 653 c 1,13,-1
 1 651 l 1,14,15
 0 655 0 655 0 664 c 2,16,-1
 4 710 l 1,17,-1
 210 742 l 1,18,-1
 217 723 l 1,19,20
 199 700 199 700 191 406 c 1,21,22
 267 461 267 461 291 468 c 1,23,24
 311 471 311 471 320 469 c 1,25,26
 399 462 399 462 444 404 c 128,-1,27
 489 346 489 346 489 241.5 c 128,-1,28
 489 137 489 137 418 63.5 c 128,-1,29
 347 -10 347 -10 237 -10 c 0,30,31
 206 -10 206 -10 185 -7 c 1,32,-1
 185 -36 l 1,33,-1
 184 -90 l 2,34,35
 184 -131 184 -131 189.5 -142 c 128,-1,36
 195 -153 195 -153 199 -158 c 0,37,38
 207 -168 207 -168 222 -168 c 2,39,-1
 266 -166 l 1,40,-1
 269 -170 l 1,41,-1
 258 -232 l 1,0,-1
186 88 m 1,42,43
 219 73 219 73 262.5 73 c 128,-1,44
 306 73 306 73 332.5 109.5 c 128,-1,45
 359 146 359 146 359 216.5 c 128,-1,46
 359 287 359 287 332.5 331 c 128,-1,47
 306 375 306 375 265 375 c 128,-1,48
 224 375 224 375 188 342 c 1,49,-1
 186 88 l 1,42,43
EndSplineSet
EndChar

StartChar: ydieresis
Encoding: 255 255 192
Width: 465
GlyphClass: 2
Flags: W
LayerCount: 2
Fore
SplineSet
248 132 m 1,0,1
 338 364 338 364 338 378.5 c 128,-1,2
 338 393 338 393 332 397.5 c 128,-1,3
 326 402 326 402 309 402 c 2,4,-1
 277 402 l 1,5,-1
 274 407 l 1,6,-1
 282 465 l 1,7,8
 343 462 343 462 388 462 c 2,9,-1
 481 462 l 1,10,-1
 473 401 l 1,11,12
 451 396 451 396 441 386.5 c 128,-1,13
 431 377 431 377 422 352 c 1,14,-1
 294 43 l 2,15,16
 230 -111 230 -111 175 -176 c 128,-1,17
 120 -241 120 -241 55 -241 c 0,18,19
 54 -241 54 -241 53 -241 c 0,20,21
 39 -241 39 -241 8 -208.5 c 128,-1,22
 -23 -176 -23 -176 -23 -160 c 1,23,-1
 -15 -147 l 1,24,25
 117 -136 117 -136 186 -9 c 1,26,27
 94 250 94 250 48 357 c 1,28,29
 27 399 27 399 -12 400 c 1,30,-1
 -14 405 l 1,31,-1
 -7 462 l 1,32,-1
 71 462 l 2,33,34
 130 462 130 462 177 465 c 128,-1,35
 224 468 224 468 224 469 c 2,36,-1
 226 464 l 1,37,-1
 217 405 l 1,38,39
 189 404 189 404 179 398.5 c 128,-1,40
 169 393 169 393 169 380 c 0,41,42
 169 352 169 352 237 132 c 1,43,-1
 248 132 l 1,0,1
382.5 582 m 128,-1,45
 364 563 364 563 334.5 563 c 128,-1,46
 305 563 305 563 289.5 579.5 c 128,-1,47
 274 596 274 596 274 624.5 c 128,-1,48
 274 653 274 653 292.5 672 c 128,-1,49
 311 691 311 691 340.5 691 c 128,-1,50
 370 691 370 691 385.5 674.5 c 128,-1,51
 401 658 401 658 401 629.5 c 128,-1,44
 401 601 401 601 382.5 582 c 128,-1,45
204.5 581.5 m 128,-1,53
 186 563 186 563 156.5 563 c 128,-1,54
 127 563 127 563 111.5 579.5 c 128,-1,55
 96 596 96 596 96 624.5 c 128,-1,56
 96 653 96 653 114.5 672 c 128,-1,57
 133 691 133 691 162 691 c 128,-1,58
 191 691 191 691 207 674 c 128,-1,59
 223 657 223 657 223 628.5 c 128,-1,52
 223 600 223 600 204.5 581.5 c 128,-1,53
EndSplineSet
EndChar

StartChar: Amacron
Encoding: 256 256 193
Width: 625
GlyphClass: 2
Flags: W
LayerCount: 2
Fore
SplineSet
627 -3 m 1,0,1
 548 0 548 0 507 0 c 0,2,3
 427 0 427 0 335 -8 c 1,4,-1
 329 0 l 1,5,-1
 334 60 l 1,6,7
 383 64 383 64 397 71 c 128,-1,8
 411 78 411 78 411 92.5 c 128,-1,9
 411 107 411 107 406 130 c 1,10,-1
 386 206 l 1,11,12
 360 207 360 207 308 207 c 128,-1,13
 256 207 256 207 200 200 c 1,14,-1
 175 125 l 2,15,16
 169 104 169 104 169 90.5 c 128,-1,17
 169 77 169 77 179 70.5 c 128,-1,18
 189 64 189 64 215 64 c 2,19,-1
 258 64 l 1,20,-1
 262 57 l 1,21,-1
 255 -6 l 1,22,23
 173 0 173 0 109 0 c 1,24,-1
 -12 -3 l 1,25,-1
 -4 64 l 1,26,27
 20 68 20 68 34.5 82.5 c 128,-1,28
 49 97 49 97 61 130 c 2,29,-1
 239 637 l 1,30,-1
 398 653 l 1,31,-1
 409 648 l 1,32,33
 499 301 499 301 552 132 c 0,34,35
 563 96 563 96 580 81 c 128,-1,36
 597 66 597 66 630 63 c 1,37,-1
 634 56 l 1,38,-1
 627 -3 l 1,0,1
294 286 m 2,39,40
 326 286 326 286 368 290 c 1,41,-1
 310 510 l 1,42,-1
 296 510 l 1,43,-1
 224 286 l 1,44,-1
 294 286 l 2,39,40
463 800 m 1,45,-1
 471 786 l 1,46,-1
 459 709 l 1,47,-1
 179 707 l 1,48,-1
 168 719 l 1,49,-1
 182 795 l 1,50,51
 277 794 277 794 336 794 c 1,52,-1
 463 800 l 1,45,-1
EndSplineSet
EndChar

StartChar: amacron
Encoding: 257 257 194
Width: 479
GlyphClass: 2
Flags: W
LayerCount: 2
Fore
SplineSet
391 103 m 128,-1,1
 401 92 401 92 420 92 c 128,-1,2
 439 92 439 92 464 109 c 1,3,-1
 480 88 l 1,4,5
 466 59 466 59 435 26.5 c 128,-1,6
 404 -6 404 -6 383 -12 c 1,7,8
 291 -12 291 -12 282 65 c 1,9,-1
 274 68 l 1,10,11
 198 -8 198 -8 164 -8 c 0,12,13
 106 -8 106 -8 66.5 34 c 128,-1,14
 27 76 27 76 27 138 c 0,15,16
 27 169 27 169 43 192 c 128,-1,17
 59 215 59 215 85 221 c 2,18,-1
 277 266 l 1,19,-1
 278 289 l 1,20,21
 278 332 278 332 255.5 355.5 c 128,-1,22
 233 379 233 379 200 379 c 128,-1,23
 167 379 167 379 137.5 367.5 c 128,-1,24
 108 356 108 356 76 332 c 1,25,-1
 67 337 l 1,26,-1
 49 397 l 1,27,28
 186 474 186 474 234 474 c 0,29,30
 318 474 318 474 359.5 436.5 c 128,-1,31
 401 399 401 399 401 337 c 0,32,33
 401 321 401 321 391 238 c 128,-1,34
 381 155 381 155 381 134.5 c 128,-1,0
 381 114 381 114 391 103 c 128,-1,1
170 182 m 2,35,36
 147 175 147 175 147 149 c 128,-1,37
 147 123 147 123 162.5 106 c 128,-1,38
 178 89 178 89 206.5 89 c 128,-1,39
 235 89 235 89 273 117 c 1,40,-1
 275 211 l 1,41,-1
 170 182 l 2,35,36
372 673 m 1,42,-1
 380 659 l 1,43,-1
 368 583 l 1,44,-1
 88 581 l 1,45,-1
 77 592 l 1,46,-1
 91 668 l 1,47,48
 186 667 186 667 245 667 c 1,49,-1
 372 673 l 1,42,-1
EndSplineSet
EndChar

StartChar: Abreve
Encoding: 258 258 195
Width: 625
GlyphClass: 2
Flags: W
LayerCount: 2
Fore
SplineSet
627 -3 m 1,0,1
 548 0 548 0 507 0 c 0,2,3
 427 0 427 0 335 -8 c 1,4,-1
 329 0 l 1,5,-1
 334 60 l 1,6,7
 383 64 383 64 397 71 c 128,-1,8
 411 78 411 78 411 92.5 c 128,-1,9
 411 107 411 107 406 130 c 1,10,-1
 386 206 l 1,11,12
 360 207 360 207 308 207 c 128,-1,13
 256 207 256 207 200 200 c 1,14,-1
 175 125 l 2,15,16
 169 104 169 104 169 90.5 c 128,-1,17
 169 77 169 77 179 70.5 c 128,-1,18
 189 64 189 64 215 64 c 2,19,-1
 258 64 l 1,20,-1
 262 57 l 1,21,-1
 255 -6 l 1,22,23
 173 0 173 0 109 0 c 1,24,-1
 -12 -3 l 1,25,-1
 -4 64 l 1,26,27
 20 68 20 68 34.5 82.5 c 128,-1,28
 49 97 49 97 61 130 c 2,29,-1
 239 637 l 1,30,-1
 398 653 l 1,31,-1
 409 648 l 1,32,33
 499 301 499 301 552 132 c 0,34,35
 563 96 563 96 580 81 c 128,-1,36
 597 66 597 66 630 63 c 1,37,-1
 634 56 l 1,38,-1
 627 -3 l 1,0,1
294 286 m 2,39,40
 326 286 326 286 368 290 c 1,41,-1
 310 510 l 1,42,-1
 296 510 l 1,43,-1
 224 286 l 1,44,-1
 294 286 l 2,39,40
317 788 m 128,-1,46
 393 788 393 788 420 848 c 1,47,-1
 437 844 l 1,48,-1
 465 809 l 1,49,50
 450 759 450 759 413 726 c 128,-1,51
 376 693 376 693 317 693 c 128,-1,52
 258 693 258 693 221 726 c 128,-1,53
 184 759 184 759 169 809 c 1,54,-1
 197 844 l 1,55,-1
 214 848 l 1,56,45
 241 788 241 788 317 788 c 128,-1,46
EndSplineSet
EndChar

StartChar: abreve
Encoding: 259 259 196
Width: 479
GlyphClass: 2
Flags: W
LayerCount: 2
Fore
SplineSet
391 103 m 128,-1,1
 401 92 401 92 420 92 c 128,-1,2
 439 92 439 92 464 109 c 1,3,-1
 480 88 l 1,4,5
 466 59 466 59 435 26.5 c 128,-1,6
 404 -6 404 -6 383 -12 c 1,7,8
 291 -12 291 -12 282 65 c 1,9,-1
 274 68 l 1,10,11
 198 -8 198 -8 164 -8 c 0,12,13
 106 -8 106 -8 66.5 34 c 128,-1,14
 27 76 27 76 27 138 c 0,15,16
 27 169 27 169 43 192 c 128,-1,17
 59 215 59 215 85 221 c 2,18,-1
 277 266 l 1,19,-1
 278 289 l 1,20,21
 278 332 278 332 255.5 355.5 c 128,-1,22
 233 379 233 379 200 379 c 128,-1,23
 167 379 167 379 137.5 367.5 c 128,-1,24
 108 356 108 356 76 332 c 1,25,-1
 67 337 l 1,26,-1
 49 397 l 1,27,28
 186 474 186 474 234 474 c 0,29,30
 318 474 318 474 359.5 436.5 c 128,-1,31
 401 399 401 399 401 337 c 0,32,33
 401 321 401 321 391 238 c 128,-1,34
 381 155 381 155 381 134.5 c 128,-1,0
 381 114 381 114 391 103 c 128,-1,1
170 182 m 2,35,36
 147 175 147 175 147 149 c 128,-1,37
 147 123 147 123 162.5 106 c 128,-1,38
 178 89 178 89 206.5 89 c 128,-1,39
 235 89 235 89 273 117 c 1,40,-1
 275 211 l 1,41,-1
 170 182 l 2,35,36
228 643 m 128,-1,43
 304 643 304 643 331 711 c 1,44,-1
 348 707 l 1,45,-1
 376 673 l 1,46,47
 361 619 361 619 324 583.5 c 128,-1,48
 287 548 287 548 228 548 c 128,-1,49
 169 548 169 548 132 583.5 c 128,-1,50
 95 619 95 619 80 673 c 1,51,-1
 108 707 l 1,52,-1
 125 711 l 1,53,42
 152 643 152 643 228 643 c 128,-1,43
EndSplineSet
EndChar

StartChar: Aogonek
Encoding: 260 260 197
Width: 625
GlyphClass: 2
Flags: W
LayerCount: 2
Fore
SplineSet
444.5 -216.5 m 128,-1,1
 412 -192 412 -192 412 -155 c 128,-1,2
 412 -118 412 -118 434 -83.5 c 128,-1,3
 456 -49 456 -49 503 0 c 1,4,5
 427 0 427 0 335 -8 c 1,6,-1
 329 0 l 1,7,-1
 334 60 l 1,8,9
 383 64 383 64 397 71 c 128,-1,10
 411 78 411 78 411 92.5 c 128,-1,11
 411 107 411 107 406 130 c 1,12,-1
 386 206 l 1,13,14
 360 207 360 207 308 207 c 128,-1,15
 256 207 256 207 200 200 c 1,16,-1
 175 125 l 2,17,18
 169 104 169 104 169 90.5 c 128,-1,19
 169 77 169 77 179 70.5 c 128,-1,20
 189 64 189 64 215 64 c 2,21,-1
 258 64 l 1,22,-1
 262 57 l 1,23,-1
 255 -6 l 1,24,25
 173 0 173 0 109 0 c 1,26,-1
 -12 -3 l 1,27,-1
 -4 64 l 1,28,29
 20 68 20 68 34.5 82.5 c 128,-1,30
 49 97 49 97 61 130 c 2,31,-1
 239 637 l 1,32,-1
 398 653 l 1,33,-1
 409 648 l 1,34,35
 499 301 499 301 552 132 c 0,36,37
 563 96 563 96 580 81 c 128,-1,38
 597 66 597 66 630 63 c 1,39,-1
 634 56 l 1,40,-1
 627 -3 l 1,41,42
 595 -1 595 -1 562 0 c 1,43,44
 523 -47 523 -47 508 -73 c 128,-1,45
 493 -99 493 -99 493 -121 c 128,-1,46
 493 -143 493 -143 507 -156.5 c 128,-1,47
 521 -170 521 -170 540 -170 c 0,48,49
 575 -170 575 -170 615 -146 c 1,50,-1
 633 -175 l 1,51,52
 581 -224 581 -224 531 -241 c 1,53,0
 477 -241 477 -241 444.5 -216.5 c 128,-1,1
294 286 m 2,54,55
 326 286 326 286 368 290 c 1,56,-1
 310 510 l 1,57,-1
 296 510 l 1,58,-1
 224 286 l 1,59,-1
 294 286 l 2,54,55
EndSplineSet
EndChar

